<svg height="512pt" viewBox="0 -5 512.00025 512" width="512pt" xmlns="http://www.w3.org/2000/svg"><path d="m174.027344 442.230469h10.105468v-50.980469c0-8.375 6.792969-15.167969 15.167969-15.167969s15.164063 6.792969 15.164063 15.167969v50.980469h33.363281c18.398437 0 33.363281 14.96875 33.363281 33.363281 0 8.375-6.789062 15.167969-15.164062 15.167969-8.378906 0-15.167969-6.792969-15.167969-15.167969 0-1.671875-1.359375-3.03125-3.03125-3.03125h-73.800781c-1.671875 0-3.035156 1.359375-3.035156 3.03125 0 8.375-6.789063 15.167969-15.164063 15.167969s-15.167969-6.792969-15.167969-15.167969c.003906-18.394531 14.96875-33.363281 33.367188-33.363281zm0 0" fill="#50e0e0"/><path d="m26.148438 480.445312 86.917968-114.253906c10.042969 13.890625 15.820313 31.070313 15.40625 49.628906-.960937 43.449219-36.4375 78.859376-79.890625 79.746094-5.917969.121094-11.703125-.386718-17.28125-1.464844-6.238281-1.207031-9-8.597656-5.152343-13.65625zm0 0" fill="#4a5660"/><path d="m113.066406 366.191406-86.917968 114.253906c-3.847657 5.058594-1.085938 12.449219 5.152343 13.65625 4.34375.835938 8.808594 1.328126 13.363281 1.449219l80.257813-105.503906c-2.644531-8.648437-6.675781-16.691406-11.855469-23.855469zm0 0" fill="#3d4851"/><path d="m199.300781 376.085938c-8.375 0-15.167969 6.789062-15.167969 15.164062v40.320312h9.847657c6.902343 0 13.738281-.453124 20.484375-1.285156v-39.035156c0-8.375-6.789063-15.164062-15.164063-15.164062zm0 0" fill="#00bcb9"/><path d="m331.117188 73.699219c-5.683594-12.253907-13.46875-23.328125-22.898438-32.75-20.675781-20.675781-49.230469-33.464844-80.785156-33.464844-63.085938 0-114.246094 51.148437-114.246094 114.246094v184.011719h-39.761719c0 58.445312 47.375 105.824218 105.824219 105.824218h14.730469c59.84375 0 111.367187-35.589844 134.578125-86.746094zm0 0" fill="#3d4851"/><path d="m143.195312 121.730469c0-58.011719 43.242188-105.917969 99.246094-113.265625-4.910156-.644532-9.917968-.980469-15.003906-.980469-63.089844 0-114.25 51.148437-114.25 114.246094v184.011719h30.007812zm0 0" fill="#333a41"/><path d="m103.429688 305.742188h-30.003907c0 58.445312 47.375 105.824218 105.824219 105.824218h14.730469c2.730469 0 5.433593-.101562 8.128906-.246094-55.113281-3.675781-98.679687-49.53125-98.679687-105.578124zm0 0" fill="#333a41"/><path d="m195.140625 150.070312c3.167969 32.496094 23.671875 51.746094 48.097656 70.492188 37.246094 28.570312 82.753907 52.632812 85.320313 104.257812 8.433594-18.585937 13.125-39.230468 13.125-60.96875v-142.121093c0-17.15625-3.78125-33.433594-10.566406-48.03125-14.246094-10.679688-31.9375-17.007813-51.109376-17.007813-49.679687 0-89.65625 44.273438-84.867187 93.378906zm0 0" fill="#e8e8e8"/><path d="m452.117188 121.144531c-31.757813-29.1875-74.925782-47.445312-121-47.445312 5.855468 52.695312-21.625 68.910156-28.328126 94.238281l34.847657 24.566406 63.363281 10zm0 0" fill="#ff8f71"/><path d="m401 178.855469v23.648437l44.484375 7.015625 54.457031 24.113281c2.292969.800782 4.679688-.96875 4.597656-3.394531-1.546874-42.183593-21.605468-80.785156-52.421874-109.09375-28.804688 3.460938-51.117188 27.976563-51.117188 57.710938zm0 0" fill="#4a5660"/><path d="m301.332031 178.53125c-.253906 24.699219 20.855469 44.265625 45.527344 43.222656 96.359375-4.0625 139.785156 7.289063 153.082031 11.878906-75.457031-79.679687-197.152344-65.695312-197.152344-65.695312-.890624 3.335938-1.417968 6.832031-1.457031 10.59375zm0 0" fill="#f75747"/><path d="m255.675781 152.003906h17.910157c4.144531 0 7.5-3.359375 7.5-7.5 0-4.144531-3.355469-7.503906-7.5-7.503906h-17.910157c-4.140625 0-7.5 3.359375-7.5 7.503906 0 4.140625 3.359375 7.5 7.5 7.5zm0 0" fill="#ff8997"/><path d="m9.3125 360.953125 91.894531-131.078125c18.210938-25.976562 52.902344-34.335938 80.949219-19.511719 34.644531 18.316407 44.421875 63.585938 20.1875 94.382813-33.339844 42.367187-92.046875 87.40625-186.285156 72.125-7.433594-1.203125-11.070313-9.75-6.746094-15.917969zm0 0" fill="#4a5660"/><path d="m46.0625 376.871094c-7.433594-1.203125-11.070312-9.75-6.746094-15.917969l91.894532-131.078125c9.050781-12.910156 22.175781-21.464844 36.535156-24.988281-24.699219-6.074219-51.351563 3.324219-66.539063 24.988281l-91.894531 131.078125c-4.324219 6.167969-.6875 14.714844 6.746094 15.917969 18.460937 2.996094 35.550781 3.664062 51.363281 2.5-6.910156-.488282-14.027344-1.308594-21.359375-2.5zm0 0" fill="#3d4851"/><path d="m282.199219 105.976562v14.160157c0 4.144531-3.359375 7.5-7.503907 7.5-4.140624 0-7.5-3.355469-7.5-7.5v-14.160157c0-4.144531 3.359376-7.5 7.5-7.5 4.144532 0 7.503907 3.355469 7.503907 7.5zm0 0"/><path d="m497.449219 240.742188c7.132812 2.453124 14.820312-3.183594 14.542969-10.738282-1.566407-42.707031-21.042969-83.3125-54.839844-114.363281-33.011719-30.339844-77.007813-48.175781-121.375-49.359375-5.789063-11.3125-13.269532-21.597656-22.304688-30.621094-22.992187-22.996094-53.566406-35.660156-86.082031-35.660156-67.132813 0-121.75 54.617188-121.75 121.75v91.859375c-3.917969 3.515625-7.492187 7.511719-10.621094 11.976563l-48.675781 69.429687c-2.378906 3.390625-1.554688 8.066406 1.835938 10.445313 3.394531 2.378906 8.070312 1.558593 10.449218-1.835938l48.675782-69.425781c21.148437-30.171875 67.5-30.949219 89.679687-1.558594 14.929687 19.78125 14.753906 48-.582031 67.480469-23.917969 30.398437-56.25 54.636718-93.667969 65.429687-26.304687 7.554688-54.957031 8.890625-85.519531 3.933594-1.929688-.3125-2.953125-2.574219-1.804688-4.207031 0 0 26.183594-37.351563 26.183594-37.351563 2.378906-3.390625 1.554688-8.070312-1.835938-10.445312-3.394531-2.378907-8.070312-1.558594-10.449218 1.835937l-26.183594 37.347656c-7.378906 10.523438-.96875 25.578126 11.6875 27.628907 13.285156 2.152343 25.90625 3.144531 37.851562 3.148437 13.265626 0 25.714844-1.226562 37.394532-3.4375l-69.925782 91.914063c-7.085937 9.320312-1.8125 23.328125 9.703126 25.5625 28.78125 5.585937 59.144531-3.804688 79.882812-24.503907 16.390625-16.363281 25.703125-38.019531 26.210938-60.976562.039062-1.839844.019531-3.683594-.054688-5.527344 12.789062 5.292969 26.566406 8.25 40.714844 8.574219v15.699219h-2.605469c-22.535156 0-40.867187 18.332031-40.867187 40.867187 0 12.496094 10.167968 22.664063 22.667968 22.664063 10.96875 0 20.144532-7.832032 22.222656-18.195313h65.75c2.082032 10.367188 11.257813 18.195313 22.226563 18.195313 12.496094 0 22.667969-10.167969 22.667969-22.664063 0-22.535156-18.332032-40.867187-40.867188-40.867187h-25.859375v-18.160156c24.8125-4.484376 48.03125-14.960938 68.242188-30.957032 3.25-2.570312 3.796875-7.289062 1.226562-10.539062-2.570312-3.25-7.289062-3.796875-10.535156-1.226563-19.675781 15.570313-42.503906 25.355469-66.890625 28.808594-11.523438 1.648437-23.261719 1.410156-34.761719 1.410156-18.582031 0-36.523437-5.234375-51.941406-14.839843-5.175781-3.210938-10.011719-6.933594-14.503906-11.046876 3.457031-1.121093 13.730469-5.058593 15.34375-5.75 32.667969-14.011718 65.5625-38.878906 84.546875-69.398437 23.257812-37.378906 5.117187-88.484375-36.175782-103.328125-18.367187-6.605469-38.578124-5.265625-55.828124 3.558594v-81.527344c0-58.863281 47.886718-106.75 106.746093-106.75 28.507813 0 55.3125 11.105469 75.476563 31.269531 2.527344 2.523438 4.914062 5.15625 7.160156 7.898438-9.636719-3.304688-19.878906-4.960938-30.0625-4.960938-53.277344 0-97.503906 48.515625-92.332031 101.609375 4.035156 41.449219 37.261719 66.023438 68.503906 88.640625 19.644531 14.222657 40.714844 28.621094 53.613281 49.714844 6.335938 10.367187 10.28125 22.140625 11.144532 34.273437-5.167969 10.984376-11.78125 21.300782-19.6875 30.683594-2.667969 3.167969-2.261719 7.902344.90625 10.570313 3.167968 2.667969 7.902343 2.261719 10.570312-.90625 9.195312-10.917969 16.820312-22.980469 22.664062-35.855469 9.152344-20.171875 13.792969-41.726562 13.792969-64.066406v-34.6875c12.769531-.511719 25.179688-.773438 36.917969-.773438 68.292969 0 100.644531 8.621094 111.386719 12.332032zm-313.359375 209.007812c4.140625 0 7.5-3.359375 7.5-7.503906v-23.160156s11.035156-.179688 15.328125-.53125v23.691406c0 4.144531 3.359375 7.503906 7.503906 7.503906h33.359375c14.261719 0 25.863281 11.601562 25.863281 25.863281 0 4.222657-3.4375 7.664063-7.664062 7.664063-4.226563 0-7.664063-3.441406-7.664063-7.664063 0-5.808593-4.726562-10.535156-10.535156-10.535156h-73.800781c-5.808594 0-10.535157 4.726563-10.535157 10.535156 0 4.222657-3.4375 7.664063-7.664062 7.664063-4.222656 0-7.664062-3.441406-7.664062-7.664063 0-14.261719 11.601562-25.863281 25.863281-25.863281zm-152.015625 35.253906c.074219-.097656 71.894531-94.503906 71.894531-94.503906 4.820312 4.28125 15.878906 11.804688 16.070312 11.925781.691407 4.382813.988282 8.824219.890626 13.242188-.421876 19.070312-8.167969 37.074219-21.8125 50.691406-17.296876 17.265625-42.414063 25.050781-66.4375 20.390625-.371094-.070312-.632813-.332031-.753907-.652344-.132812-.351562-.09375-.773437.148438-1.09375zm353.984375-271.597656c-12.5625 0-25.875.292969-39.558594.871094-19.976562.839844-37.90625-15.480469-37.710938-35.628906.011719-1.230469.101563-2.457032.242188-3.679688 3.597656-.226562 8.84375-.453125 15.363281-.453125 26.121094 0 52.382813 3.351563 77.539063 10.453125 24.230468 6.835938 47.546875 17.363281 67.925781 32.246094 1.042969.765625 2.066406 1.546875 3.09375 2.328125-19.121094-3.238281-47.289063-6.136719-86.894531-6.136719zm-62.117188-135.578125c.050782.613281.09375 1.21875.136719 1.820313.722656 10.058593.21875 20.261718-2.265625 30.058593-6.929688 27.339844-33.710938 49.382813-26.914062 79.710938.007812.027343.011718.054687.019531.082031 4.316406 19.253906 19.9375 34.558594 39.21875 38.664062v35.707032c0 10.777344-.78125 22.355468-3.851563 32.738281-3.257812-6.828125-6.355468-13.644531-10.652344-19.851563-12.789062-18.46875-30.988281-32.175781-48.9375-45.269531-13.199218-9.628906-26.671874-18.972656-38.824218-29.933593-16.421875-14.816407-28.347656-32.816407-29.550782-55.429688-2.128906-40.035156 29.835938-77.15625 69.609376-81.476562 18.207031-1.980469 36.933593 2.808593 52.011718 13.179687zm112.070313 39.59375c-8.472657 3.183594-16.277344 8.1875-22.761719 14.492187-6.417969 6.238282-11.519531 13.832032-14.90625 22.117188-1.773438 4.339844-3.085938 8.882812-3.894531 13.5-27.691407-6.53125-52.847657-8.023438-70.011719-8.023438-3.929688 0-7.410156.078126-10.410156.191407.03125-.054688.054687-.109375.082031-.164063 7.714844-15.160156 17.847656-29.191406 22.136719-45.886718 2.613281-10.171876 3.449218-20.773438 3.011718-31.253907-.015624-.324219-.023437-.644531-.039062-.972656 34.742188 1.738281 69.019531 14.53125 96.792969 36zm60.125 101.980469c-12.121094-11.1875-25.8125-20.867188-40.195313-28.730469-14.855468-8.121094-30.671875-14.488281-46.902344-19.273437.992188-6.617188 3.339844-13.027344 6.832032-18.730469 5.613281-9.175781 14.128906-16.558594 24.085937-20.65625 3.128907-1.289063 6.332031-2.238281 9.660157-2.867188 26.3125 25.195313 42.546874 56.796875 46.519531 90.257813zm0 0"/></svg>