<svg height="511pt" viewBox="-22 0 511 511.997" width="511pt" xmlns="http://www.w3.org/2000/svg"><path d="M183.168 25.574C126.273-9.703 50.801 8.31 16.028 65.516a121.653 121.653 0 0 0-7.09 13.488c-3.93 8.762 4.32 17.926 13.46 14.976 31.97-10.312 68.051-7.335 99.165 11.23 15.925 9.505 28.874 22.095 38.542 36.552l78.618-33.223c-5.532-33.207-24.82-63.91-55.555-82.965zm0 0" fill="#00c756"/><path d="M38.934 89.004a121.687 121.687 0 0 1 7.093-13.488c26.926-44.301 78.254-65.086 126.47-55.836C117.16-7.34 48.663 11.82 16.026 65.516a121.653 121.653 0 0 0-7.09 13.488c-3.93 8.762 4.32 17.926 13.458 14.976a122.213 122.213 0 0 1 16.16-4.007c.113-.32.234-.649.379-.97zm0 0" fill="#00a52c"/><path d="M284.266 25.574C341.16-9.703 416.633 8.31 451.406 65.516a122.316 122.316 0 0 1 7.09 13.488c3.93 8.762-4.32 17.926-13.46 14.976-31.97-10.312-68.052-7.335-99.165 11.23-15.926 9.505-28.875 22.095-38.543 36.552l-78.621-33.223c5.535-33.207 24.824-63.91 55.559-82.965zm0 0" fill="#00c756"/><path d="M148.504 111.938C81.566 110.8 25.984 164.94 25.44 231.887c-.043 5.152.239 10.23.825 15.215 1.117 9.539 12.894 13.18 19.234 5.964 22.168-25.238 54.676-41.171 90.906-41.171 18.547 0 36.121 4.175 51.828 11.632l50.493-68.812c-21.77-25.684-54.067-42.164-90.223-42.778zm0 0" fill="#73d98b"/><path d="M55.441 231.887c.496-61.18 46.961-111.657 106.051-119.032a121.693 121.693 0 0 0-12.988-.918c-66.938-1.136-122.52 53.004-123.063 119.95-.043 5.152.239 10.23.825 15.215 1.117 9.539 12.894 13.18 19.234 5.964a122.033 122.033 0 0 1 10.332-10.414 121.257 121.257 0 0 1-.39-10.765zm0 0" fill="#00c756"/><path d="M318.93 111.938c66.937-1.137 122.52 53.003 123.062 119.949.043 5.152-.238 10.23-.824 15.215-1.117 9.539-12.898 13.18-19.234 5.964-22.168-25.238-54.676-41.171-90.91-41.171-18.547 0-36.118 4.175-51.825 11.632l-50.492-68.812c21.77-25.684 54.066-42.164 90.223-42.778zm0 0" fill="#73d98b"/><path d="M334.441 426.172 233.715 448.5l-100.723-22.328c3.57-37.04 8.899-73.3 13.817-102.64l86.906-20.329 86.91 20.328c4.918 29.34 10.246 65.602 13.816 102.64zm0 0" fill="#ffb25a"/><path d="M162.992 426.172c3.567-37.04 8.895-73.3 13.817-102.64l71.906-16.821-15-3.508-86.906 20.328c-4.918 29.34-10.246 65.602-13.817 102.64L233.715 448.5l15-3.324zm0 0" fill="#ff8f00"/><path d="M320.625 323.531H146.809c6.539-39.07 12.355-65.863 12.355-65.863l74.55-115.25 74.552 115.25s5.82 26.793 12.359 65.863zm0 0" fill="#f8d070"/><path d="m248.715 165.605-15-23.187-74.55 115.25s-5.817 26.793-12.356 65.863h30c6.535-39.07 12.355-65.863 12.355-65.863zm0 0" fill="#ffb25a"/><path d="M338.508 490.055c.191 7.918-6.207 14.43-14.133 14.43H143.059c-7.926 0-14.325-6.512-14.137-14.43.492-20.762 1.992-42.446 4.07-63.883h201.45c2.078 21.437 3.578 43.121 4.066 63.883zm0 0" fill="#f8d070"/><path d="M158.922 490.055c.488-20.762 1.988-42.446 4.07-63.883h-30c-2.078 21.437-3.578 43.121-4.07 63.883-.188 7.918 6.21 14.43 14.137 14.43h30c-7.93 0-14.329-6.508-14.137-14.43zm0 0" fill="#ffb25a"/><path d="M329.691 216.395c0 27.882-22.601 50.488-50.488 50.488-27.883 0-50.484-22.606-50.484-50.488 0-27.883 22.601-50.489 50.484-50.489 27.887 0 50.488 22.606 50.488 50.489zm0 0" fill="#af602d"/><path d="M238.715 216.395c0 27.882-22.606 50.488-50.488 50.488-27.883 0-50.485-22.606-50.485-50.488 0-27.883 22.602-50.489 50.485-50.489 27.882 0 50.488 22.606 50.488 50.489zm0 0" fill="#c76d33"/><path d="M284.203 142.414c0 27.883-22.601 50.484-50.488 50.484-27.883 0-50.485-22.601-50.485-50.484 0-27.883 22.602-50.488 50.485-50.488 27.887 0 50.488 22.605 50.488 50.488zm0 0" fill="#de8957"/><path d="M180.277 357.871a7.497 7.497 0 0 0-7.5 7.5v9.668a7.499 7.499 0 1 0 14.996 0v-9.668c0-4.144-3.355-7.5-7.496-7.5zM287.125 357.871a7.5 7.5 0 0 0-7.5 7.5v9.668c0 4.14 3.36 7.5 7.5 7.5s7.5-3.36 7.5-7.5v-9.668a7.5 7.5 0 0 0-7.5-7.5zM251.824 368.719a7.505 7.505 0 0 0-10.586.71c-1.816 2.079-4.562 3.27-7.539 3.27-2.976 0-5.722-1.191-7.539-3.27-2.726-3.116-7.46-3.437-10.582-.71s-3.437 7.465-.71 10.582c4.663 5.34 11.527 8.398 18.831 8.398 7.305 0 14.168-3.058 18.832-8.398a7.5 7.5 0 0 0-.707-10.582zm0 0"/><path d="M18.875 102.059c1.953 0 3.906-.313 5.809-.926 29.082-9.383 61.218-6.54 88.187 7.824a129.204 129.204 0 0 0-61.125 37.313 7.502 7.502 0 0 0 .461 10.597 7.497 7.497 0 0 0 10.594-.457c19.12-20.847 45.12-33.738 72.77-36.437 13.105-1.278 26.468-.262 39.21 3.066 1.301.34 2.598.703 3.887 1.086-3.766 11.254-3.902 23.8-.445 35.156a58.151 58.151 0 0 0-29.27 14.461c-8.824 8.137-15.027 19.012-17.492 30.762-35.133 1.351-68.293 17.082-91.613 43.629-2.024 2.304-5.797 1.133-6.149-1.887-.55-4.707-.812-9.512-.773-14.285a112.986 112.986 0 0 1 13.61-52.754 7.502 7.502 0 0 0-3.02-10.168 7.502 7.502 0 0 0-10.168 3.02c-9.918 18.296-15.254 38.968-15.422 59.78-.043 5.391.25 10.825.875 16.15 1.832 15.64 21.914 21.886 32.316 10.042 20.215-23.015 48.809-36.828 79.2-38.457.89 16.465 8.687 31.121 20.535 41.13-1.934 9.323-6.512 32.073-11.454 61.6-9.277 55.344-16.66 111.426-17.988 167.587-.281 12.004 9.656 22.105 21.637 22.105h181.312c11.973 0 21.922-10.133 21.633-22.101-1.324-56.168-8.722-112.247-17.988-167.598-3.664-21.883-8.8-49.297-11.457-61.586 11.851-10.012 19.648-24.668 20.539-41.137a113.531 113.531 0 0 1 79.2 38.457c10.417 11.86 30.484 5.606 32.316-10.039.625-5.324.918-10.758.875-16.152-.477-58.64-40.754-108.156-94.899-122.918a113.553 113.553 0 0 1 88.14-7.79c15.009 4.84 29.063-10.777 22.606-25.183a130.236 130.236 0 0 0-7.527-14.316 127.661 127.661 0 0 0-50.695-47.215 7.497 7.497 0 0 0-10.098 3.238 7.492 7.492 0 0 0 3.234 10.098 112.71 112.71 0 0 1 44.742 41.672 114.702 114.702 0 0 1 6.657 12.66c1.207 2.691-1.328 5.738-4.313 4.773-35.199-11.355-73.582-7.004-105.312 11.93a131.687 131.687 0 0 0-9.41 6.18 129.169 129.169 0 0 0-10.266-.524h-.102c-13.488 0-26.859 1.825-39.738 5.887-.14.043-.281.078-.418.125-7.98-12.113-20.062-20.644-33.89-24.184l-.055-.011c-.88-.223-4.414-.965-5.031-1.063a113.416 113.416 0 0 1 45.097-53.234c25.59-15.867 55.961-20.817 85.516-13.938a7.497 7.497 0 0 0 9.004-5.605 7.496 7.496 0 0 0-5.602-9.004c-33.449-7.785-67.836-2.172-96.82 15.8a128.373 128.373 0 0 0-46.598 50.594 128.391 128.391 0 0 0-46.594-50.593A127.803 127.803 0 0 0 119.703.027c-21.715 0-43.246 5.504-62.273 15.91-24.348 13.32-44.008 34.7-55.352 60.016-5.371 11.977 3.633 26.106 16.797 26.106zm202.3-.645c22.731-7.281 47.665 7.102 53.981 29.867 5.688 20.508-5.824 43.188-25.5 51.043-27.445 10.957-58.945-10.375-58.945-39.898 0-18.848 13.117-35.453 30.465-41.012zm-75.929 114.992c-.129-21.02 16.152-39.511 36.86-42.543.734-.113 2.527-.281 2.687-.293.2.313.418.614.625.922 7.68 11.567 19.492 20.078 32.848 23.82a57.294 57.294 0 0 0 9.738 1.817c2.492 6.055 3.625 12.828 3.074 19.363-2.621 31.2-38.039 50.137-65.133 33.676-.007-.008-.02-.012-.027-.02-12.629-7.578-20.582-22.066-20.672-36.742zm7.906 114.637H314.25c5.074 30.934 9.063 60.352 11.887 87.644H141.262c2.828-27.296 6.816-56.714 11.89-87.644zm175.934 163.906c-1.203 1.242-2.883 2.047-4.73 2.047H143.042c-3.531 0-6.73-3.004-6.637-6.746.403-17.168 1.547-36.164 3.399-56.563h187.793c1.851 20.391 2.992 39.391 3.398 56.563.04 1.762-.695 3.453-1.91 4.7zM303 269.29c1.984 9.82 5.191 26.277 8.727 46.754H155.676c3.543-20.555 6.742-36.969 8.722-46.758a57.558 57.558 0 0 0 9.118 3.219c20.855 5.465 43.5-1.406 57.867-17.438a59.15 59.15 0 0 0 2.316-2.722c.067.086 2.102 2.492 2.203 2.605 8.442 9.434 20.012 15.977 32.434 18.403 11.516 2.242 23.902.796 34.664-4.063zm.328-17.332c-10.066 6.86-22.871 9.137-34.676 6.102-10.476-2.692-19.765-9.41-25.652-18.477-.145-.227-1.05-1.348-.965-1.559 3.211-7.96 4.567-16.699 4.043-25.261a57.134 57.134 0 0 0-2.371-13.227c.023-.004.043-.012.063-.015 15.75-2.965 30.195-12.391 38.84-25.95 19.523 1.559 36.117 16.996 39.066 36.36 2.476 16.242-4.778 32.785-18.348 42.027zm131.149-19.996c.039 4.773-.223 9.578-.774 14.285-.355 3.035-4.168 4.145-6.148 1.887-23.32-26.547-56.477-42.278-91.614-43.63a58.312 58.312 0 0 0-2.382-8.245c-7.075-19.121-24.282-33.485-44.38-36.977.368-1.195.684-2.41.97-3.64 2.425-10.348 1.956-21.43-1.415-31.516 14.508-4.32 30.121-5.832 45.168-3.95 56.04 6.427 100.106 54.102 100.575 111.786zM15.766 82.086C25.8 59.69 43.094 40.875 64.629 29.094c16.824-9.203 35.871-14.07 55.074-14.07 21.05 0 41.625 5.859 59.5 16.937a113.416 113.416 0 0 1 45.098 53.234c-.617.102-4.168.844-5.078 1.075a57.628 57.628 0 0 0-33.895 24.183c-8.902-2.836-18.398-4.723-27.71-5.527a129.479 129.479 0 0 0-22.825.039 131.578 131.578 0 0 0-9.402-6.18C93.855 79.97 55.027 75.585 20.082 86.86c-2.91.938-5.566-1.992-4.316-4.773zm0 0"/></svg>