<svg height="511pt" viewBox="-22 0 511 511.9971" width="511pt" xmlns="http://www.w3.org/2000/svg"><path d="m183.167969 25.574219c-56.894531-35.277344-132.367188-17.265625-167.140625 39.941406-2.675782 4.402344-5.039063 8.90625-7.089844 13.488281-3.929688 8.761719 4.320312 17.925782 13.460938 14.976563 31.96875-10.3125 68.050781-7.335938 99.164062 11.230469 15.925781 9.503906 28.875 22.09375 38.542969 36.550781l78.617187-33.222657c-5.53125-33.207031-24.820312-63.910156-55.554687-82.964843zm0 0" fill="#00c756"/><path d="m38.933594 89.003906c2.054687-4.582031 4.414062-9.085937 7.09375-13.488281 26.925781-44.300781 78.253906-65.085937 126.46875-55.835937-55.335938-27.019532-123.832032-7.859376-156.46875 45.835937-2.675782 4.402344-5.039063 8.90625-7.089844 13.488281-3.929688 8.761719 4.320312 17.925782 13.457031 14.976563 5.289063-1.703125 10.6875-3.039063 16.160157-4.007813.113281-.320312.234374-.648437.378906-.96875zm0 0" fill="#00a52c"/><path d="m284.265625 25.574219c56.894531-35.277344 132.367187-17.265625 167.140625 39.941406 2.675781 4.402344 5.035156 8.90625 7.089844 13.488281 3.929687 8.761719-4.320313 17.925782-13.460938 14.976563-31.96875-10.3125-68.050781-7.335938-99.164062 11.230469-15.925782 9.503906-28.875 22.09375-38.542969 36.550781l-78.621094-33.222657c5.535157-33.207031 24.824219-63.910156 55.558594-82.964843zm0 0" fill="#00c756"/><path d="m148.503906 111.9375c-66.9375-1.136719-122.519531 53.003906-123.0625 119.949219-.042968 5.152343.238282 10.230469.824219 15.214843 1.117187 9.539063 12.894531 13.179688 19.234375 5.964844 22.167969-25.238281 54.675781-41.171875 90.90625-41.171875 18.546875 0 36.121094 4.175781 51.828125 11.632813l50.492187-68.8125c-21.769531-25.683594-54.066406-42.164063-90.222656-42.777344zm0 0" fill="#73d98b"/><path d="m55.441406 231.886719c.496094-61.179688 46.960938-111.65625 106.050782-119.03125-4.265626-.53125-8.597657-.84375-12.988282-.917969-66.9375-1.136719-122.519531 53.003906-123.0625 119.949219-.042968 5.152343.238282 10.230469.824219 15.214843 1.117187 9.539063 12.894531 13.179688 19.234375 5.964844 3.226562-3.675781 6.683594-7.148437 10.332031-10.414062-.285156-3.546875-.421875-7.136719-.390625-10.765625zm0 0" fill="#00c756"/><path d="m318.929688 111.9375c66.9375-1.136719 122.519531 53.003906 123.0625 119.949219.042968 5.152343-.238282 10.230469-.824219 15.214843-1.117188 9.539063-12.898438 13.179688-19.234375 5.964844-22.167969-25.238281-54.675782-41.171875-90.910156-41.171875-18.546876 0-36.117188 4.175781-51.824219 11.632813l-50.492188-68.8125c21.769531-25.683594 54.066407-42.164063 90.222657-42.777344zm0 0" fill="#73d98b"/><path d="m334.441406 426.171875-100.726562 22.328125-100.722656-22.328125c3.570312-37.039063 8.898437-73.300781 13.816406-102.640625l86.90625-20.328125 86.910156 20.328125c4.917969 29.339844 10.246094 65.601562 13.816406 102.640625zm0 0" fill="#ffb25a"/><path d="m162.992188 426.171875c3.566406-37.039063 8.894531-73.300781 13.816406-102.640625l71.90625-16.820312-15-3.507813-86.90625 20.328125c-4.917969 29.339844-10.246094 65.601562-13.816406 102.640625l100.722656 22.328125 15-3.324219zm0 0" fill="#ff8f00"/><path d="m320.625 323.53125h-173.816406c6.539062-39.070312 12.355468-65.863281 12.355468-65.863281l74.550782-115.25 74.550781 115.25s5.820313 26.792969 12.359375 65.863281zm0 0" fill="#f8d070"/><path d="m248.714844 165.605469-15-23.1875-74.550782 115.25s-5.816406 26.792969-12.355468 65.863281h30c6.535156-39.070312 12.355468-65.863281 12.355468-65.863281zm0 0" fill="#ffb25a"/><path d="m338.507812 490.054688c.191407 7.917968-6.207031 14.429687-14.132812 14.429687h-181.316406c-7.925782 0-14.324219-6.511719-14.136719-14.429687.492187-20.761719 1.992187-42.445313 4.070313-63.882813h201.449218c2.078125 21.4375 3.578125 43.121094 4.066406 63.882813zm0 0" fill="#f8d070"/><path d="m158.921875 490.054688c.488281-20.761719 1.988281-42.445313 4.070313-63.882813h-30c-2.078126 21.4375-3.578126 43.121094-4.070313 63.882813-.1875 7.917968 6.210937 14.429687 14.136719 14.429687h30c-7.929688 0-14.328125-6.507813-14.136719-14.429687zm0 0" fill="#ffb25a"/><path d="m329.691406 216.394531c0 27.882813-22.601562 50.488281-50.488281 50.488281-27.882813 0-50.484375-22.605468-50.484375-50.488281 0-27.882812 22.601562-50.488281 50.484375-50.488281 27.886719 0 50.488281 22.605469 50.488281 50.488281zm0 0" fill="#af602d"/><path d="m238.714844 216.394531c0 27.882813-22.605469 50.488281-50.488282 50.488281-27.882812 0-50.484374-22.605468-50.484374-50.488281 0-27.882812 22.601562-50.488281 50.484374-50.488281 27.882813 0 50.488282 22.605469 50.488282 50.488281zm0 0" fill="#c76d33"/><path d="m284.203125 142.414062c0 27.882813-22.601563 50.484376-50.488281 50.484376-27.882813 0-50.484375-22.601563-50.484375-50.484376 0-27.882812 22.601562-50.488281 50.484375-50.488281 27.886718 0 50.488281 22.605469 50.488281 50.488281zm0 0" fill="#de8957"/><path d="m180.277344 357.871094c-4.144532 0-7.5 3.355468-7.5 7.5v9.667968c0 4.140626 3.355468 7.5 7.5 7.5 4.140625 0 7.496094-3.359374 7.496094-7.5v-9.667968c0-4.144532-3.355469-7.5-7.496094-7.5zm0 0"/><path d="m287.125 357.871094c-4.140625 0-7.5 3.355468-7.5 7.5v9.667968c0 4.140626 3.359375 7.5 7.5 7.5s7.5-3.359374 7.5-7.5v-9.667968c0-4.144532-3.359375-7.5-7.5-7.5zm0 0"/><path d="m251.824219 368.71875c-3.121094-2.726562-7.859375-2.40625-10.585938.710938-1.816406 2.078124-4.5625 3.269531-7.539062 3.269531-2.976563 0-5.722657-1.191407-7.539063-3.269531-2.726562-3.117188-7.460937-3.4375-10.582031-.710938s-3.4375 7.464844-.710937 10.582031c4.664062 5.339844 11.527343 8.398438 18.832031 8.398438 7.304687 0 14.167969-3.058594 18.832031-8.398438 2.726562-3.117187 2.410156-7.855469-.707031-10.582031zm0 0"/><path d="m18.875 102.058594c1.953125 0 3.90625-.3125 5.808594-.925782 29.082031-9.382812 61.21875-6.539062 88.1875 7.824219-23.195313 6.339844-44.472656 19.15625-61.125 37.3125-2.796875 3.050781-2.59375 7.796875.460937 10.597657 3.050781 2.800781 7.796875 2.59375 10.59375-.457032 19.121094-20.847656 45.121094-33.738281 72.769531-36.4375 13.105469-1.277344 26.46875-.261718 39.210938 3.066406 1.300781.339844 2.597656.703126 3.886719 1.085938-3.765625 11.253906-3.902344 23.800781-.445313 35.15625-10.886718 1.902344-21.144531 6.96875-29.269531 14.460938-8.824219 8.136718-15.027344 19.011718-17.492187 30.761718-35.132813 1.351563-68.292969 17.082032-91.613282 43.628906-2.023437 2.304688-5.796875 1.132813-6.148437-1.886718-.550781-4.707032-.8125-9.511719-.773438-14.285156.148438-18.367188 4.855469-36.609376 13.609375-52.753907 1.972656-3.640625.621094-8.195312-3.019531-10.167969-3.640625-1.972656-8.195313-.621093-10.167969 3.019532-9.917968 18.296875-15.253906 38.96875-15.421875 59.78125-.042969 5.390625.25 10.824218.875 16.148437 1.832031 15.640625 21.914063 21.886719 32.316407 10.042969 20.214843-23.015625 48.808593-36.828125 79.199218-38.457031.890625 16.464843 8.6875 31.121093 20.535156 41.128906-1.933593 9.324219-6.511718 32.074219-11.453124 61.601563-9.277344 55.34375-16.660157 111.425781-17.988282 167.585937-.28125 12.003906 9.65625 22.105469 21.636719 22.105469h181.3125c11.972656 0 21.921875-10.132813 21.632813-22.101563-1.324219-56.167969-8.722657-112.246093-17.988282-167.597656-3.664062-21.882813-8.800781-49.296875-11.457031-61.585937 11.851563-10.011719 19.648437-24.667969 20.539063-41.136719 30.394531 1.628906 58.984374 15.441406 79.199218 38.457031 10.417969 11.859375 30.484375 5.605469 32.316406-10.039062.625-5.324219.917969-10.757813.875-16.152344-.476562-58.640625-40.753906-108.15625-94.898437-122.917969 27.027344-14.367187 58.832031-17.242187 88.140625-7.789063 15.007812 4.839844 29.0625-10.777343 22.605469-25.183593-2.191407-4.890625-4.726563-9.707031-7.527344-14.316407-12.21875-20.105468-29.75-36.433593-50.695313-47.214843-3.683593-1.894531-8.203124-.445313-10.097656 3.238281-1.898437 3.683594-.449218 8.203125 3.234375 10.097656 18.484375 9.519532 33.957031 23.925782 44.742188 41.671875 2.480469 4.078125 4.71875 8.335938 6.65625 12.660157 1.207031 2.691406-1.328125 5.738281-4.3125 4.773437-35.199219-11.355469-73.582031-7.003906-105.3125 11.929687-3.203125 1.910157-6.351563 3.980469-9.410157 6.179688-3.386718-.308594-6.808593-.484375-10.265624-.523438-.035157 0-.070313 0-.101563 0-13.488281 0-26.859375 1.824219-39.738281 5.886719-.140625.042969-.28125.078125-.417969.125-7.980469-12.113281-20.0625-20.644531-33.890625-24.183593-.019531-.003907-.035156-.007813-.054688-.011719-.878906-.222657-4.414062-.964844-5.03125-1.0625 9.035157-21.96875 24.789063-40.640625 45.097657-53.234375 25.589843-15.867188 55.960937-20.816406 85.515625-13.9375 4.039062.9375 8.066406-1.570313 9.003906-5.605469.941406-4.035156-1.570312-8.066406-5.601562-9.003906-33.449219-7.785157-67.835938-2.171875-96.820313 15.800781-19.949219 12.367188-36.011719 29.921875-46.597656 50.59375-10.585938-20.671875-26.648438-38.226562-46.59375-50.59375-20.25-12.554688-43.554688-19.1914062-67.402344-19.1914062-21.714844 0-43.246094 5.5039062-62.273437 15.9101562-24.347657 13.320312-44.007813 34.699219-55.351563 60.015625-5.371094 11.976563 3.632813 26.105469 16.796875 26.105469zm202.300781-.644532c22.730469-7.28125 47.664063 7.101563 53.980469 29.867188 5.6875 20.507812-5.824219 43.1875-25.5 51.042969-27.445312 10.957031-58.945312-10.375-58.945312-39.898438 0-18.847656 13.117187-35.453125 30.464843-41.011719zm-75.929687 114.992188c-.128906-21.019531 16.152344-39.511719 36.859375-42.542969.734375-.113281 2.527343-.28125 2.6875-.292969.199219.3125.417969.613282.625.921876 7.679687 11.566406 19.492187 20.078124 32.847656 23.820312 3.148437.871094 6.402344 1.492188 9.738281 1.816406 2.492188 6.054688 3.625 12.828125 3.074219 19.363282-2.621094 31.199218-38.039063 50.136718-65.132813 33.675781-.007812-.007813-.019531-.011719-.027343-.019531-12.628907-7.578126-20.582031-22.066407-20.671875-36.742188zm7.90625 114.636719h161.097656c5.074219 30.933593 9.0625 60.351562 11.886719 87.644531h-184.875c2.828125-27.296875 6.816406-56.714844 11.890625-87.644531zm175.933594 163.90625c-1.203126 1.242187-2.882813 2.046875-4.730469 2.046875 0 0-181.269531 0-181.3125 0-3.53125 0-6.730469-3.003906-6.636719-6.746094.402344-17.167969 1.546875-36.164062 3.398438-56.5625h187.792968c1.851563 20.390625 2.992188 39.390625 3.398438 56.5625.039062 1.761719-.695313 3.453125-1.910156 4.699219zm-26.085938-225.660157c1.984375 9.820313 5.191406 26.277344 8.726562 46.753907h-156.050781c3.542969-20.554688 6.742188-36.96875 8.722657-46.757813 2.941406 1.328125 5.996093 2.402344 9.117187 3.21875 20.855469 5.464844 43.5-1.40625 57.867187-17.4375.792969-.882812 1.578126-1.792968 2.316407-2.722656.066406.085938 2.101562 2.492188 2.203125 2.605469 8.441406 9.433593 20.011718 15.976562 32.433594 18.402343 11.515624 2.242188 23.902343.796876 34.664062-4.0625zm.328125-17.332031c-10.066406 6.859375-22.871094 9.136719-34.675781 6.101563-10.476563-2.691406-19.765625-9.410156-25.652344-18.476563-.144531-.226562-1.050781-1.347656-.964844-1.558593 3.210938-7.960938 4.566406-16.699219 4.042969-25.261719-.277344-4.523438-1.0625-8.941407-2.371094-13.226563.023438-.003906.042969-.011718.0625-.015625 15.75-2.964843 30.195313-12.390625 38.839844-25.949219 19.523437 1.558594 36.117187 16.996094 39.066406 36.359376 2.476563 16.242187-4.777343 32.785156-18.347656 42.027343zm131.148437-19.996093c.039063 4.773437-.222656 9.578124-.773437 14.285156-.355469 3.035156-4.167969 4.144531-6.148437 1.886718-23.320313-26.546874-56.476563-42.277343-91.613282-43.628906-.585937-2.796875-1.390625-5.5625-2.382812-8.246094-7.074219-19.121093-24.28125-33.484374-44.378906-36.976562.367187-1.195312.683593-2.410156.96875-3.640625 2.425781-10.347656 1.957031-21.429687-1.414063-31.515625 14.507813-4.320312 30.121094-5.832031 45.167969-3.949219 56.039062 6.425781 100.105468 54.101563 100.574218 111.785157zm-418.710937-149.875c10.035156-22.394532 27.328125-41.210938 48.863281-52.992188 16.824219-9.203125 35.871094-14.070312 55.074219-14.070312 21.050781 0 41.625 5.859374 59.5 16.9375 20.308594 12.59375 36.0625 31.265624 45.097656 53.234374-.617187.101563-4.167969.84375-5.078125 1.074219-13.832031 3.539063-25.914062 12.070313-33.894531 24.183594-8.902344-2.835937-18.398437-4.722656-27.710937-5.527344-7.589844-.65625-15.238282-.648437-22.824219.039063-3.046875-2.195313-6.199219-4.265625-9.402344-6.179688-31.535156-18.816406-70.363281-23.199218-105.308594-11.925781-2.910156.9375-5.566406-1.992187-4.316406-4.773437zm0 0"/></svg>