<svg height="511pt" viewBox="0 -22 511.99972 511" width="511pt" xmlns="http://www.w3.org/2000/svg"><path d="m149.015625 364.945312c10.039063-3.871093 18.144531-14.445312 18.261719-25.222656.136718-12.691406 10.535156-22.867187 23.226562-22.726562 12.691406.136718 22.867188 10.535156 22.730469 23.226562-.132813 11.933594-9.441406 26.011719-17.769531 34.140625-10.003906 9.765625-23.421875 15.835938-37.117188 18.160157-8.941406 1.519531-18.046875-3.152344-18.675781-13.082032-.410156-6.488281 3.503906-12.25 9.265625-14.46875 0 0 .074219-.023437.078125-.027344zm0 0" fill="#e8e8e8"/><path d="m362.984375 364.945312c-10.039063-3.871093-18.144531-14.445312-18.261719-25.222656-.136718-12.691406-10.539062-22.867187-23.226562-22.726562-12.691406.136718-22.867188 10.535156-22.730469 23.226562.128906 11.933594 9.441406 26.011719 17.769531 34.140625 10.003906 9.765625 23.421875 15.835938 37.117188 18.160157 8.941406 1.519531 18.046875-3.152344 18.675781-13.082032.410156-6.488281-3.503906-12.25-9.265625-14.46875 0 0-.074219-.023437-.078125-.027344zm0 0" fill="#e8e8e8"/><path d="m169.90625 37.1875c-101.199219-60.273438-206.347656-16.066406-143.320312 114.773438 23.003906 51.976562-32.371094 174.972656 91.800781 128.109374zm0 0" fill="#77889a"/><path d="m169.90625 37.1875c-8.066406-4.804688-16.15625-8.941406-24.1875-12.429688-30.097656 26.582032-49.378906 62.613282-54.664062 102.632813-1.335938 10.066406-3.484376 19.890625-6.394532 29.210937-5.3125 17.019532-8.042968 34.746094-8.125 52.691407-.121094 27.144531 6.0625 53.996093 17.761719 78.335937 7.167969-1.703125 15.160156-4.1875 24.085937-7.558594zm0 0" fill="#5f7080"/><path d="m342.09375 37.1875c101.199219-60.273438 206.347656-16.066406 143.316406 114.773438-23 51.976562 32.375 174.972656-91.796875 128.109374zm0 0" fill="#77889a"/><path d="m420.945312 127.394531c-5.285156-40.023437-24.5625-76.050781-54.664062-102.636719-8.03125 3.484376-16.121094 7.625-24.1875 12.429688l51.519531 242.886719c9.019531 3.402343 17.085938 5.902343 24.308594 7.605469 11.546875-23.96875 17.542969-50.242188 17.542969-77.574219 0-18.71875-2.878906-37.179688-8.558594-54.882813-2.605469-8.09375-4.554688-17.199218-5.960938-27.828125zm0 0" fill="#5f7080"/><path d="m151.566406 67.984375c-21.136718-12.589844-47.597656-21.59375-69.203125-21.59375-12.152343 0-22.765625 2.847656-30.042969 9.507813-14 12.816406-11.546874 42.910156 6.5625 80.503906l.25.523437.234376.527344c10.140624 22.921875 9.84375 49.511719 9.558593 75.226563-.0625 5.570312.398438 15.230468.953125 23.890624.679688 10.539063 8.917969 19.015626 19.433594 19.972657 19.375 1.769531 49.160156 3.507812 61.222656-1.046875zm0 0" fill="#ffbfc5"/><path d="m360.433594 67.984375c21.136718-12.589844 47.597656-21.59375 69.203125-21.59375 12.152343 0 22.765625 2.847656 30.039062 9.507813 14.003907 12.816406 11.550781 42.910156-6.558593 80.503906l-.25.523437-.234376.527344c-10.144531 22.921875-9.84375 49.511719-9.558593 75.226563.0625 5.570312-.398438 15.230468-.957031 23.890624-.675782 10.539063-8.914063 19.015626-19.429688 19.972657-19.375 1.769531-49.160156 3.507812-61.222656-1.046875zm0 0" fill="#ffbfc5"/><path d="m150.535156 255.496094 1.03125-187.511719c-9.738281-5.800781-20.605468-10.820313-31.605468-14.570313-15.367188 21.714844-25.335938 46.933594-28.90625 73.976563-1.335938 10.066406-3.484376 19.890625-6.394532 29.210937-5.3125 17.019532-8.042968 34.746094-8.125 52.691407-.070312 15.335937 1.878906 30.582031 5.691406 45.332031 2.183594 1.015625 4.566407 1.6875 7.085938 1.914062 19.375 1.773438 49.160156 3.507813 61.222656-1.042968zm0 0" fill="#ff8997"/><path d="m420.945312 127.394531c-3.570312-27.042969-13.539062-52.261719-28.90625-73.980469-11 3.75-21.867187 8.769532-31.601562 14.570313l1.027344 187.511719c12.0625 4.550781 41.847656 2.8125 61.222656 1.046875 2.59375-.238281 5.046875-.9375 7.285156-2.003907 3.636719-14.34375 5.492188-29.222656 5.492188-44.433593 0-18.71875-2.875-37.179688-8.554688-54.882813-2.609375-8.09375-4.558594-17.199218-5.964844-27.828125zm0 0" fill="#ff8997"/><path d="m344.722656 339.722656c-.136718-12.691406-10.539062-22.867187-23.226562-22.726562-12.691406.136718-22.867188 10.535156-22.730469 23.226562.128906 11.933594 9.441406 26.011719 17.769531 34.140625 1.183594 1.15625 2.421875 2.257813 3.699219 3.3125 12.101563-4.660156 23.679687-10.632812 34.503906-17.777343-5.886719-5.117188-9.929687-12.589844-10.015625-20.175782zm0 0" fill="#d2d1d7"/><path d="m213.234375 340.222656c.136719-12.691406-10.039063-23.089844-22.730469-23.226562-12.691406-.140625-23.089844 10.035156-23.226562 22.726562-.082032 7.535156-4.074219 14.960938-9.898438 20.078125 10.816406 7.152344 22.378906 13.136719 34.464844 17.8125 1.25-1.035156 2.460938-2.113281 3.625-3.25 8.324219-8.128906 17.636719-22.207031 17.765625-34.140625zm0 0" fill="#d2d1d7"/><path d="m410.46875 210.105469c0-16.472657-2.582031-32.34375-7.355469-47.226563-3.371093-10.476562-5.503906-21.304687-6.945312-32.207031-5.019531-37.988281-25.109375-71.21875-54.074219-93.488281-8.863281-6.808594-18.550781-12.597656-28.890625-17.179688-17.496094-7.742187-36.84375-12.042968-57.203125-12.042968s-39.707031 4.300781-57.199219 12.042968c-10.34375 4.582032-20.03125 10.371094-28.894531 17.179688-28.960938 22.269531-49.054688 55.5-54.070312 93.488281-1.5 11.308594-3.910157 22.472656-7.316407 33.371094-4.46875 14.335937-6.917969 29.574219-6.988281 45.363281-.320312 72.441406 49.867188 133.796875 117.269531 150.605469 0 0 4 43.179687-15.320312 68.914062-6.480469 8.628907-4.324219 20.910157 4.890625 26.523438l3.460937 2.109375c9.214844 5.617187 21.105469 4.441406 28.90625-3.015625 36.910157-35.277344 52.632813-94.53125 52.632813-94.53125 67.253906-16.714844 117.097656-77.488281 117.097656-149.90625zm0 0" fill="#a5b0bc"/><path d="m183.8125 269.792969c-4.140625 0-7.5 3.355469-7.5 7.496093v15.761719c0 4.144531 3.359375 7.5 7.5 7.5s7.5-3.355469 7.5-7.5v-15.761719c0-4.140624-3.359375-7.496093-7.5-7.496093zm0 0"/><path d="m328.269531 269.792969c-4.140625 0-7.5 3.355469-7.5 7.496093v15.761719c0 4.144531 3.359375 7.5 7.5 7.5s7.5-3.355469 7.5-7.5v-15.761719c0-4.140624-3.359375-7.496093-7.5-7.496093zm0 0"/><path d="m357.898438 40.769531c-.851563-.792969-1.710938-1.582031-2.585938-2.359375 21.28125-11.273437 43.007812-18.074218 63.371094-19.789062 22.121094-1.859375 41.121094 2.359375 54.957031 12.195312 3.375 2.398438 8.058594 1.609375 10.457031-1.765625 2.398438-3.375 1.609375-8.058593-1.765625-10.457031-33.292969-23.667969-87.707031-19.773438-139.695312 9.675781-8.269531-5.921875-17.113281-10.988281-26.359375-15.085937-19.019532-8.417969-39.285156-12.683594-60.238282-12.683594-20.949218 0-41.21875 4.269531-60.234374 12.6875-9.246094 4.09375-18.089844 9.160156-26.359376 15.082031-28.609374-16.1875-58.941406-25.066406-85.917968-25.066406-32.394532 0-57.953125 12.277344-71.957032 34.570313-12.460937 19.835937-21.140624 56.292968 8.246094 117.363281 6.285156 14.3125 6.042969 36.058593 5.8125 57.089843-.316406 28.542969-.644531 58.058594 15.285156 74.171876 7.644532 7.730468 18.328126 11.652343 31.773438 11.65625 11.667969 0 25.542969-2.859376 42.242188-8.699219 4.105468 7.292969 8.773437 14.289062 13.996093 20.902343 8.953125 11.332032 19.371094 21.378907 30.863281 29.90625-.320312 7.183594-6.027343 14.867188-13.308593 17.773438-.066407.023438-.132813.050781-.203125.074219-9.011719 3.476562-14.65625 12.292969-14.046875 21.941406.867187 13.714844 14.453125 22.195313 27.414062 20.003906 15.9375-2.707031 30.535157-9.875 41.101563-20.191406 3.953125-3.859375 7.742187-8.574219 10.898437-13.46875.289063 11.878906-.601562 40.160156-14.121093 58.164063-8.960938 11.933593-5.8125 29.632812 6.988281 37.429687 0 0 3.460937 2.109375 3.460937 2.109375 11.96875 7.289062 27.84375 5.699219 37.988282-4 32.625-31.179688 49.0625-79.230469 53.480468-93.785156.265625-.074219.527344-.15625.792969-.230469 3.191406 5.007813 7.066406 9.839844 11.101563 13.78125 11.402343 11.132813 29.382812 20.578125 45.667968 20.578125 12.492188 0 22.101563-8.578125 22.847656-20.390625.609376-9.648437-5.035156-18.464844-14.050781-21.941406-.050781-.019531-.117187-.042969-.1875-.066407-7.191406-2.832031-12.898437-10.441406-13.308593-17.601562 11.457031-8.46875 21.835937-18.449219 30.753906-29.703125 5.359375-6.765625 10.121094-13.859375 14.28125-21.222656 16.433594 5.714843 30.417968 8.574219 42.101562 8.574219 10.84375 0 19.71875-2.460938 26.738282-7.375 20.988281-14.695313 20.628906-47.074219 20.277343-78.386719-.234375-21.035157-.476562-42.785157 5.808594-57.09375 27.09375-56.308594 21.355469-91.449219 11.765625-111.023438-1.820312-3.71875-6.3125-5.253906-10.03125-3.433593-3.71875 1.820312-5.257812 6.3125-3.4375 10.03125 11.664062 23.804687 7.5625 57.703124-11.867188 98.03125-.035156.070312-.066406.144531-.101562.21875-7.648438 17.289062-7.386719 40.75-7.132812 63.4375.304687 27.421874.621093 55.777343-13.882813 65.933593-10.015625 7.011719-27.964844 6.1875-53.421875-2.425781 1.566406-3.515625 2.996094-7.089844 4.300781-10.703125 4.777344-.300781 9.78125-.683594 14.949219-1.15625 14.28125-1.304687 25.3125-12.640625 26.234375-26.957031.320313-4.953125 1.054687-17.25.972656-24.457032-.273437-24.21875-1.167969-50.292968 9.300781-72.9375 19.917969-41.347656 21.691407-73.890624 4.867188-89.292968-8.316406-7.613282-20.128906-11.476563-35.105469-11.476563-17.578125 0-38.828125 5.515625-59.117187 15.226563-3.925782-4.707032-8.183594-9.195313-12.660156-13.382813zm2.425781 331.210938c.050781.019531.113281.042969.179687.066406 2.816406 1.132813 4.574219 3.914063 4.378906 6.957031-.316406 5.039063-5.566406 6.90625-9.933593 6.164063-12.964844-2.199219-24.730469-7.929688-33.136719-16.132813-2.40625-2.351562-4.742188-5.097656-6.839844-8.003906 8.277344-3.234375 16.277344-7.148438 23.921875-11.710938 3.300781 9.964844 11.339844 18.765626 21.429688 22.660157zm-287.648438-88.925781c-9.40625 0-16.304687-2.355469-21.097656-7.203126-11.527344-11.660156-11.234375-37.992187-10.953125-63.457031.25-22.6875.511719-46.144531-7.140625-63.433593-.03125-.074219-.066406-.148438-.101563-.21875-20.65625-42.886719-23.894531-79.460938-9.113281-102.992188 11.164063-17.765625 32.207031-27.550781 59.261719-27.550781 22.792969 0 48.464844 7.125 73.230469 20.214843-5.214844 4.65625-10.101563 9.675782-14.617188 15.011719-.207031.242188-.417969.484375-.625.726563-20.285156-9.710938-41.535156-15.226563-59.113281-15.226563-14.976562 0-26.789062 3.859375-35.109375 11.476563-16.824219 15.402344-15.050781 47.945312 4.867187 89.289062 2.519532 5.230469 4.242188 10.90625 5.570313 16.546875.949219 4.03125 4.980469 6.53125 9.015625 5.582031 4.03125-.949218 6.53125-4.984374 5.582031-9.015624-1.574219-6.699219-3.664062-13.410157-6.65625-19.621094-16.097656-33.417969-19.339843-61.570313-8.25-71.71875 5.386719-4.933594 14.027344-7.539063 24.976563-7.539063 14.421875 0 32.589844 4.589844 49.925781 12.480469-.015625.023438-.035156.046875-.050781.074219-8.382813 12.578125-14.953125 26.484375-19.191406 41.101562-5.167969 17.820313-6.128907 36.484375-11.683594 54.265625-6.539063 20.921875-8.789063 43.292969-6.4375 65.09375.808594 7.730469 2.152344 15.386719 4.070312 22.917969-2.929687-.21875-5.933594-.46875-9-.75-6.875-.625-12.1875-6.085937-12.632812-12.984375-.640625-9.960938-.992188-18.679688-.941406-23.324219.109374-9.460937.214843-19.238281-.207032-28.960937-.179687-4.136719-3.671875-7.355469-7.820312-7.164063-4.136719.179688-7.34375 3.679688-7.164063 7.816407.40625 9.3125.300781 18.882812.195313 28.140624-.082032 7.207032.652344 19.503907.972656 24.453126.917969 14.320312 11.953125 25.65625 26.234375 26.960937 5.234375.476563 10.300781.867187 15.125 1.167969 1.304687 3.59375 2.726563 7.144531 4.285156 10.636718-14.101562 4.785157-25.984375 7.203126-35.40625 7.203126zm117.59375 85.980468c-8.40625 8.203125-20.171875 13.933594-33.136719 16.132813-4.46875.757812-9.609374-1.019531-9.9375-6.164063-.191406-3.042968 1.5625-5.824218 4.378907-6.957031.066406-.023437.132812-.046875.179687-.066406 10.132813-3.910157 18.199219-12.769531 21.476563-22.789063 7.648437 4.582032 15.648437 8.519532 23.925781 11.769532-2.105469 2.933593-4.460938 5.703124-6.886719 8.074218zm181.035157-67.707031c-14.972657 18.894531-34.46875 33.835937-56.339844 43.453125-7.542969 3.308594-15.363282 6-23.359375 7.988281-2.71875.675781-4.800781 2.796875-5.464844 5.460938-.761719 2.78125-16.269531 58.175781-50.539063 90.925781-5.300781 5.070312-13.597656 5.828125-19.824218 2.035156 0 0-3.457032-2.105468-3.460938-2.109375-5.386718-3.28125-6.53125-10.644531-2.796875-15.617187 20.324219-27.070313 17.136719-70.125 16.808594-73.90625-.007813-.128906-.019531-.261719-.035156-.390625-.367188-3.097657-2.605469-5.644531-5.632813-6.398438-9.832031-2.449219-19.410156-5.957031-28.519531-10.402343-19.867187-9.691407-37.578125-23.859376-51.441406-41.410157-28.523438-36.097656-38.558594-84.957031-26.507813-129.390625 1.242188-4.574218 2.742188-9.074218 3.957032-13.660156 3.027343-11.441406 4.292968-23.085938 6.558593-34.660156.015625-.074219.03125-.152344.046875-.226563 4.238282-21.273437 14.398438-37.386719 25.328125-55.5625 20.519531-34.113281 67.855469-51.960937 105.960938-51.960937 40.90625 0 80.671875 19.398437 105.960937 51.960937 10.945313 18.164063 21.101563 34.28125 25.332032 55.570313.011718.070312.027343.136718.039062.207031 2.738281 13.871094 4.222656 28.246094 8.636719 41.96875 14.707031 45.726563 5.300781 98.253906-24.707031 136.125zm83.351562-239.863281c11.085938 10.148437 7.847656 38.300781-8.253906 71.722656-11.699219 24.285156-11.078125 53.179688-10.785156 79.613281.054687 4.644531-.300782 13.363281-.941407 23.324219-.441406 6.898438-5.753906 12.359375-12.628906 12.984375-3.03125.277344-6.003906.523437-8.898437.738281 1.15625-4.613281 2.109374-9.292968 2.851562-14.023437 3.953125-25.042969 2.039062-51.058594-5.710938-75.207031-2.925781-9.105469-5.101562-19.210938-6.648437-30.890626-2.652344-20.082031-9.433594-39.675781-19.886719-57.03125-1.28125-2.132812-2.613281-4.230468-4-6.292968 17.332032-7.886719 35.503906-12.476563 49.921875-12.476563 10.953125 0 19.589844 2.605469 24.980469 7.539063zm0 0"/></svg>