<svg height="512pt" viewBox="-25 0 512 512.002" width="512pt" xmlns="http://www.w3.org/2000/svg"><path d="M410.52 302.242s-35.766 60.313-141.598 6.461l-19.652-28.195 28.289-17.762h105.91zm0 0" fill="#ff8997"/><path d="M356.504 291.707c2.336-.105 4.746-.215 7.23-.344 44.13-2.21 68.524 26.278 78.086 40.942 1.864 2.863 6.274 2.011 6.965-1.34 19.352-94.356-18.37-141.84-54.164-165.2zm0 0" fill="#3d4851"/><path d="M249.27 280.508c38.761 11.347 53.964 13.629 107.234 11.199 60.516-48.656 38.117-125.941 38.117-125.941-26.71-17.434-52.336-21.43-52.336-21.43-4.668-52.3-50.258-43.922-50.258-43.922zm0 0" fill="#e8e8e8"/><path d="M173.371 504.508c5.594-41.14 1.785-81.703-11.351-120.684-10.575-31.379-23.567-49.937-23.696-50.12l.09.132 51.98-37.578c2.61 3.61 60.989 86.066 47.59 208.25zm0 0" fill="#ffbfc5"/><path d="m138.418 333.836 51.98-37.578c1.45 2.008 20.118 28.37 34.125 72.363-18.894 6.457-39.125 9.973-60.14 9.973h-.016c-.844 0-1.672-.004-2.52-.016-.558-.008-1.117-.031-1.675-.043-10.184-28.164-21.727-44.66-21.852-44.832zm0 0" fill="#ff8997"/><path d="M157.457 34.953c5.14-.223 9.84-3.062 12.398-7.523 2.735-4.774 5.407-11.64 5.079-19.926 0 0 28.73 4.273 30.484 32.726 67.062 18.114 116.332 79.563 115.883 152.458-.535 86.726-72.324 157.062-159.047 155.894-85.66-1.152-154.742-70.95-154.742-156.883 0-84.324 66.52-153.11 149.945-156.746zm0 0" fill="#ffbfc5"/><path d="M37.512 191.7c0-84.325 66.52-153.11 149.945-156.747 5.14-.223 9.84-3.062 12.398-7.523.422-.739.84-1.532 1.25-2.368-8.453-14.917-26.171-17.558-26.171-17.558.328 8.285-2.344 15.152-5.082 19.926-2.555 4.46-7.258 7.3-12.395 7.523C74.031 38.59 7.512 107.375 7.512 191.7c0 85.934 69.082 155.73 154.742 156.883 5.766.078 11.465-.168 17.086-.707-79.582-7.586-141.828-74.61-141.828-156.176zM251.219 232.277h-17.477a7.497 7.497 0 0 1-7.5-7.5 7.5 7.5 0 0 1 7.5-7.5h17.477a7.5 7.5 0 0 1 7.5 7.5c0 4.145-3.356 7.5-7.5 7.5zm0 0" fill="#ff8997"/><path d="M248.785 203.938v-15.793c0-4.141 3.36-7.5 7.5-7.5s7.5 3.359 7.5 7.5v15.792a7.5 7.5 0 1 1-15 0zm0 0"/><path d="M167.43 7.8c.25 6.29-2.016 19.298-10.309 19.657-36.379 1.586-70.371 14.805-98.3 38.23-3.173 2.66-3.587 7.391-.926 10.567 2.66 3.172 7.394 3.59 10.566.926 25.379-21.285 56.262-33.297 89.316-34.739 7.774-.336 14.72-4.558 18.575-11.285 2.507-4.375 4.265-9.015 5.23-13.75 6.727 3.074 15.5 9.668 16.34 23.282a7.5 7.5 0 0 0 5.531 6.777c63.277 17.094 107.813 73.558 110.234 138.652 1.633 43.871-17.238 87.578-49.886 116.832-31.508 28.23-74.383 41.95-116.434 37.184-33.804-3.824-65.07-18.953-89.281-43.473C30.3 268.52 15 231.246 15 191.695c0-34.332 11.941-67.863 33.625-94.418a7.497 7.497 0 0 0-1.062-10.55 7.502 7.502 0 0 0-10.555 1.062C13.145 117.016 0 153.918 0 191.695c0 43.52 16.84 84.54 47.414 115.504 25.691 26.02 58.602 42.434 94.262 47.34 5.031 9.91 9.48 20.547 13.23 31.676 12.75 37.84 16.457 77.297 11.024 117.277-.602 4.445 2.949 8.508 7.433 8.508h64.614a7.5 7.5 0 0 0 7.457-6.68 342.764 342.764 0 0 0 2.03-37.722 7.502 7.502 0 0 0-7.5-7.489c-4.155.008-7.507 3.371-7.5 7.512A328.25 328.25 0 0 1 231.189 497H181.82c4.153-39.375-.113-78.219-12.699-115.578a258.517 258.517 0 0 0-10.07-25.418c1.031.035 11.387.016 15.527-.238a162.83 162.83 0 0 0 35.211-6.063c11.344 28.387 18.516 58.34 21.34 89.152.375 4.125 4.027 7.16 8.152 6.786a7.497 7.497 0 0 0 6.782-8.153c-2.93-31.984-10.352-63.097-22.06-92.605 16.517-6.469 31.99-15.653 45.868-27.34 28.535 13.941 54.77 21.023 78.02 21.023 36.277-.003 56.152-16.921 64.421-26.359 11.055 7.672 18.614 17.129 23.215 24.188 5.418 8.316 18.606 5.773 20.598-3.926 20.258-98.79-20.04-148.598-57.414-172.989-20.48-13.37-40.246-19.203-49.637-21.41-2.531-16.691-9.488-29.105-20.715-36.953-10.296-7.191-21.742-8.703-29.527-8.703-1.227 0-2.348.04-3.344.098-20.457-27.063-49.238-47.813-83.23-58.13-4.164-23.331-25.035-32.64-36.23-34.304-2.258-.336-4.454.453-6.063 1.895-1.606 1.441-2.63 3.547-2.535 5.828zm220.625 162.68c.5 2.208 1.207 5.735 1.82 10.247 2.223 16.308 1.672 33.128-2.27 49.14-4.898 19.887-15.628 37.98-30.824 51.73-.98.88-3.074 2.684-3.125 2.727-.789.035-1.582.07-2.37.102-8.849.37-17.704.652-26.56.652-8.12 0-16.246-.262-24.328-1.039a1.136 1.136 0 0 1-.12-.016c5.64-8.23 10.48-16.91 14.495-25.945 11.926-26.816 16.286-56.703 12.868-85.832-2.672-22.773-10.02-44.562-21.75-64.3 13.101 2.062 26.566 10.777 28.914 37.05a7.495 7.495 0 0 0 6.312 6.742c.223.04 22.91 3.782 46.938 18.742zm26.199 125.262c-9.047-5.215-18.781-8.734-29.055-10.55-2.98-.528-9.445-1.188-9.668-1.204.117-.133.227-.273.344-.406a114.754 114.754 0 0 0 12.688-17.23c12.628-21.047 18.039-45.805 17.558-70.211v-.075a155.8 155.8 0 0 0-.816-12.804c13.152 11.574 23.27 25.457 30.18 41.449 11.492 26.601 14.015 59 7.523 96.402-7.871-10.054-17.668-18.972-28.754-25.37zm-132.555 10.836.047-.047c2.762-2.82 5.41-5.719 7.945-8.695a.846.846 0 0 1 .098.016c11.555 1.695 23.242 2.23 34.91 2.23 8.73 0 18.934-.281 32.137-.883 7.922-.36 15.906-.75 23.785.438 6.324.953 12.399 2.66 18.184 5.129-7.45 7.472-23.297 18.804-50.914 18.804-19.563 0-41.79-5.71-66.192-16.992zm0 0"/></svg>