<svg height="512pt" viewBox="0 -19 512.001 512" width="512pt" xmlns="http://www.w3.org/2000/svg"><path d="m441.91 312.797 52.035 39.996c11.903 9.148 14.133 26.215 4.985 38.117-5.352 6.965-13.418 10.617-21.57 10.617a27.058 27.058 0 0 1-16.548-5.632l-52.035-39.997zm0 0" fill="#ffb25a"/><path d="M322.93 308.348c0 87.12-70.625 157.746-157.746 157.746S7.438 395.469 7.438 308.348s70.624-157.746 157.746-157.746S322.93 221.227 322.93 308.348zm0 0" fill="#de8957"/><path d="M165.184 404.367c-52.946 0-96.02-43.074-96.02-96.02 0-52.945 43.074-96.019 96.02-96.019 52.941 0 96.02 43.074 96.02 96.02 0 52.945-43.075 96.02-96.02 96.02zm0 0" fill="#c76d33"/><path d="M165.184 342.64c-18.91 0-34.293-15.382-34.293-34.292s15.382-34.293 34.293-34.293c18.906 0 34.293 15.383 34.293 34.293s-15.387 34.293-34.293 34.293zm0 0" fill="#de8957"/><path d="M310.25 161.824c-5.79 0-11.336-3.273-13.969-8.855-20.707-43.93-7.304-78.258 7.59-99.32 15.492-21.915 35.703-33.77 36.559-34.266 7.375-4.274 16.812-1.758 21.086 5.617 4.265 7.36 1.77 16.781-5.575 21.063-.39.234-15.976 9.609-27.402 26.167-14.27 20.68-15.73 43.415-4.34 67.579 3.637 7.707.332 16.902-7.375 20.539a15.38 15.38 0 0 1-6.574 1.476zM397.254 157.188c-7.383 0-13.91-5.313-15.195-12.836-8.18-47.872 13.933-77.352 33.925-93.657 20.797-16.96 43.446-22.968 44.403-23.215 8.246-2.136 16.672 2.813 18.812 11.063 2.137 8.234-2.797 16.64-11.02 18.8-.511.141-17.995 5-33.41 17.864-19.289 16.102-26.789 37.617-22.289 63.945 1.438 8.403-4.21 16.375-12.609 17.813-.879.148-1.754.222-2.617.222zm0 0" fill="#ffb25a"/><path d="M351.047 108.84c-58.332 0-105.621 47.285-105.621 105.62 0 210.556-80.242 251.634-80.242 251.634h144.933c80.942 0 146.551-65.614 146.551-146.551V214.461c0-58.336-47.285-105.621-105.621-105.621zm0 0" fill="#f8d070"/><path d="M275.434 214.46c0-53.237 39.394-97.269 90.617-104.558a106.74 106.74 0 0 0-15.004-1.062c-58.332 0-105.621 47.285-105.621 105.62 0 210.556-80.242 251.634-80.242 251.634h30.007s80.243-41.078 80.243-251.633zm0 0" fill="#ffb25a"/><path d="M373.395 32.734c0 13.938-11.297 25.235-25.23 25.235-13.938 0-25.235-11.297-25.235-25.235 0-13.933 11.297-25.23 25.234-25.23 13.934 0 25.23 11.297 25.23 25.23zM470.996 18.121c-13.426-3.734-27.336 4.125-31.07 17.547-3.73 13.426 4.125 27.336 17.55 31.07 13.426 3.735 27.337-4.125 31.067-17.55 3.734-13.422-4.121-27.333-17.547-31.067zm0 0" fill="#f8d070"/><path d="M165.25 350.14c23.043 0 41.793-18.75 41.793-41.792 0-23.047-18.75-41.797-41.793-41.797-23.047 0-41.797 18.75-41.797 41.797 0 23.043 18.75 41.793 41.797 41.793zm0-68.585c14.77 0 26.79 12.02 26.79 26.793s-12.02 26.793-26.79 26.793c-14.773 0-26.793-12.02-26.793-26.793 0-14.774 12.02-26.793 26.793-26.793zM317.809 208.965v-9.594a7.5 7.5 0 0 0-7.504-7.5 7.5 7.5 0 0 0-7.5 7.5v9.594a7.503 7.503 0 1 0 15.004 0zM423.836 208.965v-9.594a7.5 7.5 0 0 0-7.504-7.5 7.5 7.5 0 0 0-7.5 7.5v9.594a7.503 7.503 0 1 0 15.004 0zM382.05 213.234c2.731-3.117 2.41-7.855-.71-10.586a7.497 7.497 0 0 0-10.582.711c-1.793 2.051-4.504 3.227-7.438 3.227-2.937 0-5.648-1.176-7.437-3.227a7.501 7.501 0 0 0-10.586-.71 7.501 7.501 0 0 0-.711 10.585c4.64 5.309 11.469 8.356 18.734 8.356 7.262 0 14.09-3.047 18.73-8.356zM343.688 393.871c-4.227.031-8.473-1.23-11.977-3.922l-52.035-40a7.506 7.506 0 0 0-10.52 1.375c-2.523 3.285-1.91 7.996 1.375 10.52 0 0 52.012 39.98 52.035 40 15.008 11.535 37.125 8.617 48.637-6.364 11.524-14.992 8.606-37.132-6.36-48.636l-52.034-39.996c-3.286-2.524-7.997-1.91-10.52 1.375-2.523 3.285-1.91 7.996 1.375 10.52 0 0 51.996 39.968 52.035 40 8.508 6.538 10.14 19.093 3.61 27.593-3.727 4.852-9.653 7.484-15.622 7.535zm0 0"/><path d="M248.965 165.887c-25.328-14.918-54.078-22.79-83.715-22.79C74.129 143.098 0 217.23 0 308.348c0 91.118 74.129 165.247 165.25 165.247h144.934c26.773 0 53.152-6.98 76.28-20.184a7.501 7.501 0 0 0 2.794-10.234 7.5 7.5 0 0 0-10.235-2.797c-20.867 11.914-44.668 18.215-68.84 18.215H186.317c.008-.012.02-.024.032-.035 7.336-7.504 13.644-15.942 19.265-24.782 23.114-36.351 34.422-79.754 40.723-121.968 2.96-19.852 4.3-39.899 5.184-59.938 1.054-23.933-.918-48.465 7.535-71.367 13.847-37.418 49.886-64.164 92.058-64.164 53.309 0 98.121 44.832 98.121 98.12v105.083c0 3.742-.16 7.5-.457 11.23-2.902 35.797-19.601 69.29-46.816 93.22a7.5 7.5 0 0 0-.68 10.585 7.5 7.5 0 0 0 10.586.684 154.23 154.23 0 0 0 33.48-41.844l10.962 8.426c15.007 11.535 37.125 8.613 48.636-6.36 11.524-14.996 8.606-37.136-6.36-48.64l-34.358-26.406c.003-.301.011-.598.011-.895V214.461c0-37.02-17.87-69.941-45.441-90.59.226-17.34 7.07-31.406 20.848-42.902 3.62-3.024 7.687-5.813 12.113-8.336 1.226.508 2.488.957 3.797 1.32 17.168 4.777 35.535-5.598 40.308-22.765 2.344-8.422 1.266-17.254-3.031-24.868-4.3-7.613-11.309-13.097-19.734-15.441a32.842 32.842 0 0 0-8.785-1.203c-13.372 0-25.344 8.23-30.305 20.418-8.274 4.285-15.903 9.246-22.7 14.789-13.824 11.273-30.722 30.363-36.421 58.972a113.235 113.235 0 0 0-23.77-2.52 112.9 112.9 0 0 0-26.746 3.204c.766-9.715 4.242-19.117 10.41-28.05 2.676-3.88 5.844-7.657 9.434-11.274 1.316.16 2.656.254 4.015.254 18.051 0 32.735-14.684 32.735-32.735S366.28 0 348.23 0c-16.78 0-30.648 12.695-32.515 28.988-6.82 6.34-12.84 13.164-17.902 20.328-11.782 16.66-24.114 43.336-17.91 77.317-13.012 10.574-23.641 23.969-30.938 39.254zM15.004 308.347c0-82.843 67.398-150.245 150.246-150.245 27.723 0 54.602 7.546 78.102 21.882-.082.246-.145.496-.223.743-2.473 7.914-4.207 16.234-4.762 24.515-.453 6.793-.355 13.61-.457 20.414v.078c-.043 2.875-.11 5.809-.187 8.774-19.196-18.844-45.133-29.684-72.473-29.684-19.96 0-39.352 5.723-56.086 16.547a7.501 7.501 0 0 0-2.223 10.371 7.499 7.499 0 0 0 10.371 2.227c14.301-9.25 30.876-14.137 47.938-14.137 28.309 0 54.867 13.59 71.559 36.484-1.309 22.649-3.856 46.825-8.368 70.707-3.574 18.809-8.332 37.43-14.859 55.438-14.398 9.434-31.055 14.406-48.332 14.406-48.809 0-88.52-39.71-88.52-88.52 0-20.425 7.157-40.37 20.153-56.16a7.5 7.5 0 0 0-1.024-10.558 7.502 7.502 0 0 0-10.562 1.023c-15.2 18.465-23.57 41.797-23.57 65.696 0 57.082 46.441 103.523 103.523 103.523 13.664 0 26.996-2.676 39.406-7.808-6.039 12.808-13.226 25.125-22.191 36.125-7.899 9.75-14.914 15.687-19.207 18.39-81.934-1.066-148.254-68.047-148.254-150.23zm448.078 30.133 26.36 20.262c8.503 6.535 10.14 19.098 3.609 27.598-6.54 8.504-19.098 10.144-27.598 3.61l-13.394-10.294a152.259 152.259 0 0 0 10.761-39.285c.086-.629.184-1.258.262-1.89zm1.23-313.8c11.536 0 20.188 11.37 17.098 22.488-2.129 7.645-9.144 12.984-17.07 12.984-7.992 0-15.469-5.886-17.293-13.77l-.012-.081c-2.457-10.906 6.125-21.621 17.277-21.621zM420.79 56.512a111.705 111.705 0 0 1 11.356-8.114c.03.165.074.325.105.485 1.035 5.113 3.309 10 6.578 14.066a95.026 95.026 0 0 0-8.797 6.5c-14.707 12.274-23.285 27.446-25.605 45.223a112.253 112.253 0 0 0-15.063-6.695c3.68-20.157 14.235-37.446 31.426-51.465zM348.23 15.004c9.778 0 17.73 7.957 17.73 17.73 0 9.778-7.952 17.73-17.73 17.73-9.488 0-17.718-8.226-17.73-17.706l.004-.09c.035-9.746 7.973-17.664 17.726-17.664zM310.063 57.98a112.276 112.276 0 0 1 8.765-10.859 32.522 32.522 0 0 0 2.531 4.281c2.133 3.055 4.778 5.774 7.805 7.946a94.423 94.423 0 0 0-6.734 8.62c-8.965 12.993-13.403 26.891-13.23 41.391a112.366 112.366 0 0 0-15.528 7.63c-2.555-25.614 7.129-45.91 16.39-59.009zm0 0"/></svg>