<svg xmlns="http://www.w3.org/2000/svg" viewBox="0 0 512 512" style="enable-background:new 0 0 512 512" xml:space="preserve"><path style="fill:#463246" d="m256 344.428 48.833 83.714c8.18 14.022 24.799 20.567 40.409 16.113 38.787-11.066 104.964-40.008 104.964-108.654 0-52.966-79.448-79.448-79.448-79.448H256v88.275z"/><path style="fill:#594759" d="M449.385 326.735C428.26 309.653 370.334 273.807 256 273.807v-17.655h114.759s70.498 23.543 78.626 70.583z"/><path style="fill:#594759" d="M320.568 442.294c-6.4-2.944-11.978-7.713-15.734-14.152L256 344.428V264.98c97.783 45.131 73.805 147.885 64.568 177.314z"/><path style="fill:#463246" d="M493.977 87.893c9.912-.217 18.023 7.748 18.023 17.662v27.011c0 44.138-8.828 44.138-8.828 88.276 0 24.953-8.465 38.621-15.822 45.788-4.962 4.832-11.722 7.243-18.646 7.066-58.599-1.491-203.876-17.544-203.876-17.544v-17.655c69.666-125.4 186.647-149.667 229.149-150.604z"/><path style="fill:#ff413c" d="M421.613 154.707c32.679 19.67 59.939 53.375 54.344 86.52-1.432 8.483-9.77 14.067-18.286 12.852-30.749-4.384-110.084-13.651-192.843-6.754v-8.828c15.743-28.337 33.902-51.49 53.073-70.383 27.594-27.198 70.517-33.388 103.712-13.407z"/><path style="fill:#c53c3c" d="M421.613 154.707c1.501.903 2.975 1.867 4.45 2.828-48.897 12.297-89.63 35.99-118.193 56.759 65.863-20.182 129.217-9.767 165.875.156 2.002 6.353 3.033 12.828 2.871 19.331-38.946-11.367-122.854-27.425-201.138 12.78-3.545.238-7.089.467-10.65.764v-8.828c5.251-9.452 10.851-18.126 16.588-26.46 26.317-21.332 67.732-49.22 120.089-65.983a81.56 81.56 0 0 1 20.108 8.653z"/><path style="fill:#594759" d="M461.621 126.325a8.825 8.825 0 0 1 12.483 0c15.772 15.774 26.253 33.958 33.231 51.648-2.121 10.628-4.163 21.641-4.163 42.869 0 4.533-.358 8.574-.859 12.391-2.466-24.705-11.133-64.865-40.693-94.425a8.826 8.826 0 0 1 .001-12.483z"/><ellipse transform="rotate(96.379 359.087 381.007)" style="fill:#4c4e70" cx="359.083" cy="381.007" rx="25.489" ry="12.488"/><path style="fill:#463246" d="m256 344.428-48.833 83.714c-8.18 14.022-24.799 20.567-40.409 16.113-38.788-11.067-104.965-40.008-104.965-108.654 0-52.966 79.448-79.448 79.448-79.448H256v88.275z"/><path style="fill:#594759" d="M62.615 326.735c21.126-17.082 79.051-52.928 193.385-52.928v-17.655H141.241s-70.498 23.543-78.626 70.583z"/><path style="fill:#594759" d="M191.432 442.294c6.4-2.944 11.978-7.713 15.734-14.152L256 344.428V264.98c-97.783 45.131-73.805 147.885-64.568 177.314z"/><path style="fill:#908490" d="M256 216.428a4.41 4.41 0 0 1-4.043-2.646L190.164 72.541a4.416 4.416 0 0 1 2.276-5.811c2.232-.97 4.836.039 5.811 2.275L256 201.001l57.75-131.996a4.42 4.42 0 0 1 5.811-2.275 4.416 4.416 0 0 1 2.276 5.811l-61.793 141.241a4.414 4.414 0 0 1-4.044 2.646z"/><path style="fill:#463246" d="M18.023 87.893C8.111 87.676 0 95.641 0 105.555v27.011c0 44.138 8.828 44.138 8.828 88.276 0 24.953 8.465 38.621 15.822 45.788 4.962 4.832 11.722 7.243 18.646 7.066 58.599-1.491 203.876-17.544 203.876-17.544v-17.655C177.506 113.097 60.525 88.83 18.023 87.893z"/><path style="fill:#ff413c" d="M90.387 154.707c-32.679 19.67-59.939 53.375-54.344 86.52 1.432 8.483 9.77 14.067 18.286 12.852 30.749-4.384 110.084-13.651 192.843-6.754v-8.828c-15.743-28.337-33.902-51.49-53.073-70.383-27.594-27.198-70.517-33.388-103.712-13.407z"/><path style="fill:#c53c3c" d="M90.387 154.707c-1.501.903-2.975 1.867-4.45 2.828 48.897 12.297 89.63 35.99 118.193 56.759-65.862-20.182-129.217-9.767-165.875.156-2.002 6.353-3.033 12.828-2.871 19.331 38.946-11.367 122.854-27.425 201.138 12.78 3.545.238 7.089.467 10.65.764v-8.828c-5.251-9.452-10.851-18.126-16.588-26.46-26.317-21.332-67.732-49.22-120.089-65.983a81.56 81.56 0 0 0-20.108 8.653z"/><path style="fill:#594759" d="M256 247.325c-7.313 0-13.241-5.929-13.241-13.241v-26.483c0-7.313 5.929-13.241 13.241-13.241 7.313 0 13.241 5.929 13.241 13.241v26.483c0 7.312-5.928 13.241-13.241 13.241z"/><path style="fill:#463246" d="M256 212.014c-9.75 0-17.655 7.904-17.655 17.655v97.103c0 6.518 3.573 12.148 8.828 15.207v37.759a8.826 8.826 0 0 0 8.828 8.828 8.826 8.826 0 0 0 8.828-8.828V341.98c5.255-3.058 8.828-8.689 8.828-15.207V229.67c-.002-9.752-7.907-17.656-17.657-17.656z"/><path style="fill:#594759" d="M50.379 126.325a8.824 8.824 0 0 0-12.482 0c-15.772 15.774-26.253 33.958-33.231 51.648 2.119 10.628 4.162 21.641 4.162 42.869 0 4.533.358 8.574.858 12.391 2.466-24.705 11.133-64.865 40.693-94.425a8.825 8.825 0 0 0 0-12.483z"/><ellipse transform="rotate(-96.379 152.933 381.004)" style="fill:#4c4e70" cx="152.934" cy="381.002" rx="25.489" ry="12.488"/></svg>