<svg xmlns="http://www.w3.org/2000/svg" viewBox="0 0 512.001 512.001" style="enable-background:new 0 0 512.001 512.001" xml:space="preserve"><path style="fill:#ff413c" d="M105.932 231.729c-17.655 8.828-61.793 44.138-61.793 88.276s35.31 97.103 132.414 150.069c0 0 61.793-70.621 61.793-105.931V231.729H105.932z"/><path style="fill:#c53c3c" d="M72.409 258.212h165.937v-26.483H105.932c-7.955 3.977-21.275 13.366-33.523 26.483z"/><path style="fill:#ff413c" d="M40.027 46.35C12.99 46.35-.664 62.764.026 81.665c.211 5.783 2.85 11.374 4.691 17.651 12.94 44.138 8.828 79.448 8.828 97.103s17.655 44.138 44.138 44.138h198.319v-8.828C194.208 125.798 75.337 46.35 40.027 46.35z"/><path style="fill:#c53c3c" d="M256.001 231.729C194.208 125.798 75.336 46.35 40.026 46.35 12.989 46.35-.665 62.764.025 81.665c.211 5.783 2.85 11.374 4.691 17.651 6.2 21.15 8.437 40.19 9.135 56.314 32.703-24.374 118.397-51.548 233.322 84.927h8.828v-8.828z"/><path style="fill:#e6c3b4" d="M238.345 267.04c-44.138 97.103-61.793 203.034-61.793 203.034s61.793-70.621 61.793-105.931V267.04z"/><path style="fill:#ff413c" d="M406.07 231.729c17.655 8.828 61.793 44.138 61.793 88.276s-35.31 97.103-132.414 150.069c0 0-61.793-70.621-61.793-105.931V231.729H406.07z"/><path style="fill:#c53c3c" d="M439.592 258.212H273.656v-26.483H406.07c7.954 3.977 21.274 13.366 33.522 26.483z"/><path style="fill:#ff413c" d="M471.975 46.35c27.037 0 40.691 16.414 40.001 35.315-.211 5.783-2.85 11.374-4.691 17.651-12.94 44.138-8.828 79.448-8.828 97.103s-17.655 44.138-44.138 44.138H256v-8.828C317.794 125.798 436.665 46.35 471.975 46.35z"/><path style="fill:#c53c3c" d="M256.001 231.729C317.794 125.798 436.665 46.35 471.975 46.35c27.037 0 40.691 16.414 40.001 35.315-.211 5.783-2.85 11.374-4.691 17.651-6.2 21.15-8.437 40.19-9.135 56.314-32.702-24.374-118.397-51.548-233.322 84.927H256v-8.828z"/><path style="fill:#e6c3b4" d="M273.656 267.04c44.138 97.103 61.793 203.034 61.793 203.034s-61.793-70.621-61.793-105.931V267.04z"/><path style="fill:#908490" d="M264.828 192.005h-17.655a4.417 4.417 0 0 1-4.215-3.1L198.82 47.664a4.412 4.412 0 0 1 2.897-5.526 4.4 4.4 0 0 1 5.535 2.897l43.164 138.142h11.172l43.164-138.142c.733-2.327 3.172-3.647 5.535-2.897a4.413 4.413 0 0 1 2.897 5.526l-44.138 141.241a4.423 4.423 0 0 1-4.218 3.1z"/><path style="fill:#463246" d="M256.001 214.074c-9.751 0-17.655-7.904-17.655-17.655 0-9.751 7.904-17.655 17.655-17.655 9.751 0 17.655 7.904 17.655 17.655 0 9.75-7.904 17.655-17.655 17.655z"/><path style="fill:#5a464b" d="M256.001 302.35c-9.751 0-17.655-7.904-17.655-17.655v-61.793c0-9.751 7.904-17.655 17.655-17.655 9.751 0 17.655 7.904 17.655 17.655v61.793c0 9.75-7.904 17.655-17.655 17.655z"/></svg>