<svg xmlns="http://www.w3.org/2000/svg" viewBox="0 0 512.001 512.001" style="enable-background:new 0 0 512.001 512.001" xml:space="preserve"><path style="fill:#ff9b46" d="M394.023 224.849c.353.043.715.113 1.06.207 51.215 13.224 59.853 60.439 57.275 83.551a8.83 8.83 0 0 1-6.189 7.457c-9.189 2.81-4.086 22.405-4.034 22.577a8.814 8.814 0 0 1-.871 6.922 8.796 8.796 0 0 1-5.612 4.129c-1.034.242-2.146.707-3.224 2.465-4.233 6.922-2.629 24.198-.138 34.258a8.829 8.829 0 0 1-3.431 9.302 8.8 8.8 0 0 1-9.913.25c-10.879-6.991-24-5.827-30.508 2.716-9.06 11.88 12.319 41.818 24.086 54.465a8.828 8.828 0 0 1-12.913 12.042c-2.91-3.122-19.473-21.448-27.073-41.336h-18.815a17.658 17.658 0 0 1-14.69-7.862L256 291.444v-84.797c.324.109.664.214 1.146.28l136.877 17.922z"/><path style="fill:#ffde9b" d="M256 253.971c8.859 4.694 16 9.886 16 9.886s58.874 95.448 32.439 100.244L256 291.443v-37.472z"/><path style="fill:#e17837" d="M399.61 465.191c-2.91-3.122-19.473-21.448-27.073-41.336h-18.815a17.658 17.658 0 0 1-14.69-7.862l-5.355-8.032c15.595-20.153 25.586-44.646 19.424-72.381-15.97-71.862-9.122-104.292 15.838-114.016l25.084 3.285c.353.043.715.113 1.06.207 51.215 13.224 59.853 60.439 57.275 83.551a8.83 8.83 0 0 1-6.189 7.457c-9.189 2.81-4.086 22.405-4.034 22.577a8.814 8.814 0 0 1-.871 6.922 8.796 8.796 0 0 1-5.612 4.129c-1.034.242-2.146.707-3.224 2.465-4.233 6.922-2.629 24.198-.138 34.258a8.829 8.829 0 0 1-3.431 9.302 8.8 8.8 0 0 1-9.913.25c-10.879-6.991-24-5.827-30.508 2.716-9.06 11.88 12.319 41.818 24.086 54.465a8.828 8.828 0 0 1-6.456 14.844 8.802 8.802 0 0 1-6.458-2.801z"/><path style="fill:#ffde9b" d="M353.347 219.523c-27.103 4.097-38.188 35.027-97.347 22.094v-34.971c.324.109.664.214 1.146.28l96.201 12.597z"/><path style="fill:#ffc864" d="M495.012 44.019c9.978-.338 18.081 8.094 16.867 17.652-1.513 11.903-6.036 29.782-18.191 53.223-18.308 35.31-18.308 61.792-18.308 97.102 0 17.655-9.154 26.482-27.463 26.482-27.463 0-183.089-17.655-183.089-17.655v-26.482c0-.001 100.904-145.953 230.184-150.322z"/><path style="fill:#ff9b46" d="M356.288 100.226c38.304-29.255 86.168-54.431 138.724-56.207 9.978-.338 18.081 8.094 16.867 17.652-1.513 11.903-6.036 29.782-18.191 53.223-18.308 35.31-18.308 61.792-18.308 97.102 0 17.655-9.154 26.482-27.463 26.482-10.209 0-38.137-2.441-69.191-5.507-8.52-81.665-67.554-73.389-22.438-132.745z"/><path style="fill:#e17837" d="m428.861 58.387.012-.111c1.404-.551 2.861-.974 4.277-1.498 2.6-.96 5.212-1.885 7.85-2.751a220.561 220.561 0 0 1 6.859-2.14c2.66-.777 5.349-1.461 8.046-2.134 2.196-.548 4.372-1.149 6.591-1.624.06-.013.117-.031.178-.044l-.004.015c10.551-2.249 21.334-3.709 32.342-4.081 9.978-.338 18.081 8.094 16.867 17.652-1.513 11.903-6.036 29.782-18.191 53.223-18.308 35.31-18.308 61.792-18.308 97.102 0 17.655-9.154 26.482-27.463 26.482-6.671 0-20.973-1.053-38.704-2.631l10.017-90.465-24.196 11.442c3.31-35.31-24.827-35.31-24.282-67.099 17.772-12.255 37.298-23.196 58.109-31.338z"/><path style="fill:#695046" d="M411.952 106.065c10.093-15.726 9.931-34.574 4.74-42.599a239.07 239.07 0 0 1 23.142-9.111c13.129 9.781 16.181 28.396 1.941 54.38-38.65 70.526 3.648 91.859-12.879 128.745-7.981-.594-17.535-1.414-28.05-2.387 19.198-28.982-36.342-55.097 11.106-129.028zM447.722 193.789c-8.827-26.482 4.552-59.973 20.138-87.723 15.081-26.85 9.931-48.919 2.997-59.586 7.927-1.335 15.983-2.185 24.156-2.461 9.978-.338 18.081 8.094 16.867 17.652-1.513 11.903-6.036 29.782-18.191 53.223-18.308 35.31-18.308 61.792-18.308 97.102 0 17.149-8.713 25.895-25.987 26.388 3.018-8.734 4.255-26.816-1.672-44.595zM434.989 301.9c-10.817 6.773-13.609 20.853-11.478 34.307-2.852 2.087-4.822 4.584-6.135 6.728-5.384 8.805-5.726 21.527-4.826 31.664a42.88 42.88 0 0 0-8.436-.843c-5.157 0-10.014 1.134-14.52 2.946 6.405-16.852 12.215-44.871-1.181-76.431-12.697-29.915-5.432-50.945-1.749-58.58l4.505.59c39.886 10.742 43.763 46.619 43.82 59.619z"/><circle style="fill:#695046" cx="360.823" cy="400.681" r="9.931"/><circle style="fill:#e17837" cx="409.65" cy="306.061" r="7.448"/><circle style="fill:#e17837" cx="402.754" cy="272.042" r="9.195"/><path style="fill:#ff9b46" d="M117.976 224.849a7.547 7.547 0 0 0-1.06.207C65.7 238.28 57.063 285.495 59.64 308.608a8.83 8.83 0 0 0 6.189 7.457c9.189 2.81 4.086 22.405 4.034 22.577a8.814 8.814 0 0 0 .871 6.922 8.796 8.796 0 0 0 5.612 4.129c1.035.242 2.146.707 3.224 2.465 4.233 6.922 2.629 24.198.138 34.258a8.829 8.829 0 0 0 3.431 9.302 8.8 8.8 0 0 0 9.913.25c10.879-6.991 24-5.827 30.508 2.716 9.06 11.88-12.319 41.818-24.086 54.465a8.828 8.828 0 0 0 12.913 12.042c2.91-3.122 19.473-21.448 27.073-41.336h18.815a17.658 17.658 0 0 0 14.69-7.862l83.034-124.55v-84.797a5.819 5.819 0 0 1-1.146.28l-136.877 17.923z"/><path style="fill:#ffde9b" d="M256 253.971c-8.859 4.694-16 9.886-16 9.886s-58.874 95.448-32.439 100.244L256 291.443v-37.472z"/><path style="fill:#e17837" d="M112.389 465.191c2.91-3.122 19.473-21.448 27.073-41.336h18.815a17.658 17.658 0 0 0 14.69-7.862l5.355-8.032c-15.595-20.153-25.586-44.646-19.424-72.381 15.97-71.862 9.122-104.292-15.838-114.016l-25.084 3.285a7.547 7.547 0 0 0-1.06.207C65.7 238.28 57.063 285.495 59.64 308.608a8.83 8.83 0 0 0 6.189 7.457c9.189 2.81 4.086 22.405 4.034 22.577a8.814 8.814 0 0 0 .871 6.922 8.796 8.796 0 0 0 5.612 4.129c1.035.242 2.146.707 3.224 2.465 4.233 6.922 2.629 24.198.138 34.258a8.829 8.829 0 0 0 3.431 9.302 8.8 8.8 0 0 0 9.913.25c10.879-6.991 24-5.827 30.508 2.716 9.06 11.88-12.319 41.818-24.086 54.465a8.828 8.828 0 0 0 12.915 12.042z"/><path style="fill:#ffde9b" d="M158.652 219.523c27.103 4.097 38.188 35.027 97.347 22.094v-34.971a5.819 5.819 0 0 1-1.146.28l-96.201 12.597z"/><path style="fill:#ffc864" d="M16.987 44.019C7.009 43.682-1.094 52.113.121 61.67c1.513 11.903 6.036 29.782 18.191 53.223 18.308 35.31 18.308 61.792 18.308 97.102 0 17.655 9.154 26.482 27.463 26.482 27.463 0 183.089-17.655 183.089-17.655V194.34c.001 0-100.905-145.952-230.185-150.321z"/><path style="fill:#ff9b46" d="M155.711 100.226C117.407 70.971 69.543 45.795 16.987 44.019 7.009 43.682-1.094 52.113.121 61.67c1.513 11.903 6.036 29.782 18.191 53.223 18.308 35.31 18.308 61.792 18.308 97.102 0 17.655 9.154 26.482 27.463 26.482 10.209 0 38.137-2.441 69.191-5.507 8.519-81.664 67.554-73.388 22.437-132.744z"/><path style="fill:#e17837" d="m83.138 58.387-.012-.111c-1.404-.551-2.861-.974-4.277-1.498-2.6-.96-5.212-1.885-7.85-2.751a220.561 220.561 0 0 0-6.859-2.14c-2.66-.777-5.349-1.461-8.046-2.134-2.196-.548-4.372-1.149-6.591-1.624-.06-.013-.117-.031-.178-.044l.002.013c-10.551-2.249-21.334-3.709-32.342-4.081C7.009 43.682-1.094 52.113.121 61.67c1.513 11.903 6.036 29.782 18.191 53.223 18.308 35.31 18.308 61.792 18.308 97.102 0 17.655 9.154 26.482 27.463 26.482 6.671 0 20.973-1.053 38.704-2.631L92.77 145.381l24.196 11.442c-3.31-35.31 24.827-35.31 24.282-67.099-17.773-12.254-37.299-23.195-58.11-31.337z"/><path style="fill:#7c5546" d="M247.173 181.099a4.412 4.412 0 0 1-4.034-2.621l-35.31-79.447a4.418 4.418 0 0 1 2.241-5.827c2.225-.983 4.836.004 5.827 2.241l35.31 79.447a4.42 4.42 0 0 1-2.241 5.827c-.587.26-1.191.38-1.793.38zM264.828 181.099a4.417 4.417 0 0 1-4.034-6.207l35.31-79.447a4.416 4.416 0 0 1 8.068 3.586l-35.31 79.447a4.41 4.41 0 0 1-4.034 2.621z"/><circle style="fill:#6f463c" cx="255.997" cy="185.511" r="17.655"/><path style="fill:#7c5546" d="M256 335.58a8.822 8.822 0 0 1-8.827-8.827v-52.965c0-4.879 3.948-8.827 8.827-8.827s8.827 3.948 8.827 8.827v52.965A8.822 8.822 0 0 1 256 335.58z"/><path style="fill:#9b6450" d="M256 291.443c-14.626 0-26.482-11.856-26.482-26.482v-44.137c0-14.626 11.856-26.482 26.482-26.482s26.482 11.856 26.482 26.482v44.137c.001 14.625-11.857 26.482-26.482 26.482z"/><path style="fill:#695046" d="M100.047 106.065c-10.093-15.726-9.931-34.574-4.74-42.599a239.07 239.07 0 0 0-23.142-9.111c-13.129 9.781-16.181 28.396-1.941 54.38 38.651 70.526-3.648 91.859 12.879 128.745 7.981-.594 17.535-1.414 28.05-2.387-19.197-28.982 36.342-55.097-11.106-129.028zM64.278 193.789c8.827-26.482-4.552-59.973-20.138-87.723-15.081-26.85-9.931-48.919-2.997-59.586-7.927-1.335-15.983-2.185-24.156-2.461C7.009 43.682-1.094 52.113.121 61.67c1.513 11.903 6.036 29.782 18.191 53.223 18.308 35.31 18.308 61.792 18.308 97.102 0 17.148 8.713 25.895 25.987 26.388-3.019-8.733-4.256-26.815 1.671-44.594zM77.011 301.9c10.817 6.773 13.609 20.853 11.478 34.307 2.852 2.087 4.822 4.584 6.135 6.728 5.384 8.805 5.726 21.527 4.826 31.664a42.88 42.88 0 0 1 8.436-.843c5.157 0 10.014 1.134 14.52 2.946-6.405-16.852-12.215-44.871 1.181-76.431 12.697-29.915 5.432-50.945 1.749-58.58l-4.505.59C80.944 253.023 77.067 288.9 77.011 301.9z"/><circle style="fill:#695046" cx="151.17" cy="400.681" r="9.931"/><circle style="fill:#e17837" cx="102.343" cy="306.061" r="7.448"/><circle style="fill:#e17837" cx="109.24" cy="272.042" r="9.195"/></svg>