<svg xmlns="http://www.w3.org/2000/svg" viewBox="0 0 512 512" style="enable-background:new 0 0 512 512" xml:space="preserve"><path style="fill:#e6dcd2" d="M167.724 266.256c-17.655 0-105.931 52.965-114.759 105.931-7.4 44.399 42.674 93.948 97.103 70.621C211.862 416.325 256 310.394 256 283.912v-17.655l-88.276-.001z"/><path style="fill:#cfc1b4" d="M254.892 292.739c.655-3.417 1.108-6.516 1.108-8.828v-17.655h-88.276c-7.802 0-29.398 10.366-51.832 26.483h139z"/><path style="fill:#f59a90" d="M107.457 299.043c-25.532 19.898-50.054 46.515-54.492 73.144-7.4 44.399 42.674 93.948 97.103 70.621 20.887-8.951 39.68-27.051 55.511-48.021 12.906-80.876-56.21-109.623-98.122-95.744z"/><path style="fill:#ff6e64" d="M145.103 355.084c-23.735-27.357-66.069 5.803-82.392-7.83-4.79 8.179-8.346 16.543-9.746 24.934-7.179 43.074 39.753 90.787 92.259 72.311-1.717-17.193 27.205-57.92-.121-89.415z"/><path style="fill:#a5907d" d="M247.172 275.084H105.931C52.569 275.084 0 150.743 0 116.187c0-31.186 21.784-52.966 52.966-52.966 101.06 0 206.268 182.078 210.698 189.827a8.822 8.822 0 0 1-1.422 10.621l-8.828 8.828a8.821 8.821 0 0 1-6.242 2.587z"/><path style="fill:#e6dcd2" d="M254.169 268.848c2.498-4.203 2.443-9.422-.192-13.539-34.062-53.221-120.16-174.432-197.841-174.432-23.374 0-38.481 15.249-38.481 38.841 0 37.163 57.26 155.366 96.202 155.366h129.401c4.469 0 8.612-2.367 10.911-6.236z"/><circle style="fill:#5a464b" cx="84.601" cy="356.37" r="13.241"/><path style="fill:#e6dcd2" d="M344.276 266.256c17.655 0 105.931 52.965 114.759 105.931 7.4 44.399-42.674 93.948-97.103 70.621C300.138 416.325 256 310.394 256 283.912v-17.655l88.276-.001z"/><path style="fill:#cfc1b4" d="M257.109 292.739c-.655-3.417-1.108-6.516-1.108-8.828v-17.655h88.276c7.802 0 29.398 10.366 51.832 26.483h-139z"/><path style="fill:#f59a90" d="M404.543 299.043c25.532 19.898 50.053 46.514 54.492 73.144 7.4 44.399-42.674 93.948-97.103 70.621-20.887-8.951-39.68-27.051-55.511-48.021-12.906-80.876 56.21-109.623 98.122-95.744z"/><path style="fill:#ff6e64" d="M366.897 355.084c23.735-27.357 66.069 5.803 82.392-7.83 4.79 8.179 8.346 16.543 9.746 24.934 7.179 43.074-39.753 90.787-92.259 72.311 1.717-17.193-27.204-57.92.121-89.415z"/><path style="fill:#a5907d" d="m258.586 272.497-8.828-8.828a8.822 8.822 0 0 1-1.422-10.621c4.431-7.75 109.638-189.827 210.698-189.827 31.181 0 52.966 21.78 52.966 52.966 0 34.556-52.569 158.897-105.931 158.897H264.828a8.821 8.821 0 0 1-6.242-2.587z"/><path style="fill:#e6dcd2" d="M257.831 268.848c-2.498-4.203-2.443-9.422.192-13.539 34.062-53.222 120.161-174.432 197.843-174.432 23.374 0 38.481 15.249 38.481 38.841 0 37.163-57.26 155.366-96.202 155.366H268.743a12.7 12.7 0 0 1-10.912-6.236z"/><circle style="fill:#5a464b" cx="427.399" cy="356.37" r="13.241"/><path style="fill:#908490" d="M256 235.36a4.412 4.412 0 0 1-3.948-2.44l-44.138-88.276a4.417 4.417 0 0 1 1.974-5.922 4.417 4.417 0 0 1 5.922 1.974l40.19 80.38 40.19-80.38c1.095-2.185 3.75-3.048 5.922-1.974a4.416 4.416 0 0 1 1.974 5.922l-44.138 88.276a4.413 4.413 0 0 1-3.948 2.44z"/><path style="fill:#5a464b" d="M256 381.015a8.826 8.826 0 0 1-8.828-8.828V230.946a8.826 8.826 0 0 1 8.828-8.828 8.826 8.826 0 0 1 8.828 8.828v141.241a8.826 8.826 0 0 1-8.828 8.828z"/><path style="fill:#463246" d="M256 292.739c-9.751 0-17.655-7.904-17.655-17.655v-17.655c0-9.751 7.904-17.655 17.655-17.655 9.751 0 17.655 7.904 17.655 17.655v17.655c0 9.751-7.904 17.655-17.655 17.655z"/></svg>