<svg width="24" height="24" fill="none" xmlns="http://www.w3.org/2000/svg"><path style="fill:#fff" d="M21.216 5.45a.406.406 0 0 0-.299-.117h-4.024l-.911-2.174c-.13-.321-.365-.595-.703-.82C14.94 2.112 14.597 2 14.25 2h-4.167c-.347 0-.69.113-1.028.338-.339.226-.573.5-.703.82L7.44 5.334H3.417a.406.406 0 0 0-.3.117.406.406 0 0 0-.117.3v.833c0 .122.039.222.117.3a.406.406 0 0 0 .3.117h1.25v12.396c0 .72.204 1.334.611 1.842.409.508.899.762 1.472.762h10.834c.573 0 1.063-.262 1.471-.788.408-.525.612-1.148.612-1.868V7h1.25a.405.405 0 0 0 .3-.117.406.406 0 0 0 .117-.3V5.75a.406.406 0 0 0-.118-.3zM9.888 3.81a.367.367 0 0 1 .222-.144h4.127c.087.018.16.066.222.144l.625 1.523H9.25l.638-1.523zM18 19.344c0 .19-.03.367-.09.527-.062.16-.125.278-.19.352-.065.074-.11.11-.136.11H6.75c-.026 0-.071-.036-.137-.11a1.48 1.48 0 0 1-.28-.879V7H18v12.344z" fill="#000"/><path style="fill:#fff" d="M8.417 17.834h.833a.405.405 0 0 0 .3-.118.407.407 0 0 0 .117-.3v-7.5a.406.406 0 0 0-.117-.299.406.406 0 0 0-.3-.117h-.833a.406.406 0 0 0-.3.117.406.406 0 0 0-.117.3v7.5c0 .121.04.221.117.3a.406.406 0 0 0 .3.117zm3.333 0h.834a.405.405 0 0 0 .299-.118.405.405 0 0 0 .117-.3v-7.5a.405.405 0 0 0-.117-.299.405.405 0 0 0-.3-.117h-.833a.406.406 0 0 0-.3.117.405.405 0 0 0-.116.3v7.5a.41.41 0 0 0 .117.3.406.406 0 0 0 .3.117zm3.334 0h.833a.405.405 0 0 0 .3-.118.406.406 0 0 0 .116-.3v-7.5a.406.406 0 0 0-.117-.299.406.406 0 0 0-.3-.117h-.832a.406.406 0 0 0-.3.117.406.406 0 0 0-.117.3v7.5a.41.41 0 0 0 .117.3.406.406 0 0 0 .3.117z" fill="#000"/></svg>