<svg height="511pt" viewBox="-7 0 511 511.99945" width="511pt" xmlns="http://www.w3.org/2000/svg"><path d="m40.632812 7.761719c-3.34375-.839844-6.867187.324219-9.050781 2.996093-4.761719 5.839844-12.894531 17.167969-16.300781 30.066407l69.839844 40.207031 26.371094-27.773438s-30.933594-35.480468-70.859376-45.496093zm0 0" fill="#77889a"/><path d="m456.566406 7.761719c3.34375-.839844 6.867188.324219 9.050782 2.996093 4.761718 5.839844 12.894531 17.167969 16.296874 30.066407l-69.835937 40.207031-26.371094-27.773438s30.933594-35.480468 70.859375-45.496093zm0 0" fill="#77889a"/><path d="m85.121094 81.03125-16.796875 17.699219c-51.839844-12.613281-58.488281-37.265625-53.039063-57.90625 3.140625-.390625 6.367188-.59375 9.660156-.59375 30.851563 0 56.320313 17.785156 60.175782 40.800781zm0 0" fill="#ffbfc5"/><path d="m412.078125 81.03125 16.796875 17.699219c51.839844-12.613281 58.488281-37.265625 53.039062-57.90625-3.140624-.390625-6.367187-.59375-9.660156-.59375-30.851562 0-56.320312 17.785156-60.175781 40.800781zm0 0" fill="#ffbfc5"/><path d="m406.082031 426.175781c0-43.261719-70.507812-78.335937-157.480469-78.335937-86.976562 0-157.484374 35.074218-157.484374 78.335937s70.507812 78.332031 157.484374 78.332031c86.972657 0 157.480469-35.070312 157.480469-78.332031zm0 0" fill="#ffa0ab"/><path d="m456.335938 187.769531c0-98.898437-93.007813-179.070312-207.738282-179.070312-114.730468 0-207.734375 80.171875-207.734375 179.070312v69.363281h415.472657zm0 0" fill="#a5b0bc"/><path d="m263.601562 9.167969c-4.957031-.304688-9.957031-.46875-15-.46875-114.730468 0-207.738281 80.171875-207.738281 179.070312v69.363281h30v-69.363281c0-94.546875 85.011719-171.976562 192.738281-178.601562zm0 0" fill="#77889a"/><path d="m61.183594 394.023438v57.066406c0 13.375 10.84375 24.21875 24.222656 24.21875h30.214844c13.378906 0 24.222656-10.84375 24.222656-24.21875v-57.066406zm0 0" fill="#e8e8e8"/><path d="m91.183594 451.089844v-57.066406h-30v57.066406c0 13.375 10.84375 24.21875 24.222656 24.21875h30c-13.375 0-24.222656-10.84375-24.222656-24.21875zm0 0" fill="#d2d1d7"/><path d="m436.015625 394.023438v57.066406c0 13.375-10.84375 24.21875-24.222656 24.21875h-30.21875c-13.375 0-24.21875-10.84375-24.21875-24.21875v-57.066406zm0 0" fill="#e8e8e8"/><path d="m387.355469 451.089844v-57.066406h-30v57.066406c0 13.375 10.84375 24.21875 24.222656 24.21875h30c-13.378906 0-24.222656-10.84375-24.222656-24.21875zm0 0" fill="#d2d1d7"/><path d="m248.601562 173.96875c30.378907 0 60.910157 2.335938 90.664063 8.667969 52.660156 11.207031 105.84375 36.695312 134.164063 84.570312 28.5 48.179688 17.75 108.324219-26.378907 144.652344-44.59375 36.707031-109.203125 41.347656-160.019531 12.882813-13.066406-7.316407-23.78125-13.664063-38.429688-13.664063-14.652343 0-25.367187 6.347656-38.433593 13.664063-50.8125 28.464843-115.425781 23.824218-160.019531-12.882813-44.128907-36.328125-54.878907-96.472656-26.378907-144.652344 28.320313-47.875 81.507813-73.363281 134.164063-84.570312 29.753906-6.332031 60.285156-8.667969 90.667968-8.667969zm0 0" fill="#ffbfc5"/><path d="m80.152344 411.859375c-44.128906-36.328125-54.882813-96.472656-26.382813-144.652344 28.320313-47.875 81.507813-73.363281 134.164063-84.570312 24.859375-5.289063 50.261718-7.785157 75.667968-8.464844-5.003906-.132813-10.003906-.203125-15-.203125-30.382812 0-60.914062 2.335938-90.667968 8.667969-52.65625 11.207031-105.84375 36.695312-134.164063 84.570312-28.5 48.179688-17.75 108.324219 26.378907 144.652344 29.277343 24.097656 67.175781 34.375 104.136718 30.539063-26.824218-2.753907-52.777344-12.960938-74.132812-30.539063zm0 0" fill="#ffa0ab"/><path d="m133.070312 301.613281c-1.121093-1.121093-2.269531-2.191406-3.4375-3.21875-42.484374-37.246093-92.664062 12.929688-55.414062 55.414063 1.023438 1.171875 2.097656 2.316406 3.21875 3.4375 19.203125 19.203125 46.203125 24.597656 66.097656 14.933594 1.941406-.945313 3.523438-2.527344 4.464844-4.46875 9.667969-19.894532 4.269531-46.894532-14.929688-66.097657zm0 0" fill="#333a41"/><path d="m364.132812 301.613281c1.117188-1.121093 2.265626-2.191406 3.433594-3.21875 42.484375-37.246093 92.664063 12.929688 55.414063 55.414063-1.023438 1.171875-2.097657 2.316406-3.214844 3.4375-19.207031 19.203125-46.203125 24.597656-66.101563 14.933594-1.941406-.945313-3.523437-2.527344-4.464843-4.46875-9.667969-19.894532-4.269531-46.894532 14.933593-66.097657zm0 0" fill="#333a41"/><path d="m57.679688 303.984375c-7.914063 17.460937-3.832032 37.933594 10.921874 54.761719 18.824219 21.46875 51.300782 33.253906 78.234376 20.171875 3.445312-1.675781 6.261718-4.492188 7.9375-7.9375 11.222656-23.101563 4.488281-53.8125-16.375-74.679688-10.65625-10.652343-24.695313-18.445312-40.066407-18.445312-17.503906 0-33.457031 10.253906-40.652343 26.128906zm13.664062 6.191406c4.765625-10.523437 15.359375-17.320312 26.988281-17.320312 11.351563 0 21.644531 6.242187 29.457031 14.054687 16.417969 16.417969 21.96875 40.070313 13.492188 57.515625-.207031.429688-.574219.792969-1 1-19.480469 9.472657-43.023438 1.003907-57.515625-13.488281-10.824219-10.828125-18.203125-26.796875-11.421875-41.761719zm0 0"/><path d="m350.410156 378.917969c25.230469 12.257812 55.671875 2.632812 74.683594-16.378907 15.230469-15.234374 23.835938-37.902343 14.476562-58.554687-7.195312-15.875-23.152343-26.128906-40.652343-26.128906-15.3125 0-29.453125 7.832031-40.066407 18.445312-20.863281 20.867188-27.597656 51.578125-16.375 74.679688 1.671876 3.445312 4.488282 6.261719 7.933594 7.9375zm19.046875-72.007813c7.828125-7.824218 18.09375-14.054687 29.460938-14.054687 11.625 0 22.21875 6.796875 26.988281 17.320312 6.703125 14.792969-.714844 31.050781-11.421875 41.757813-14.503906 14.503906-38.035156 22.953125-57.515625 13.492187-.429688-.210937-.792969-.574219-1-1-8.476562-17.445312-2.929688-41.097656 13.488281-57.515625zm0 0"/><path d="m126 137.097656v21.144532c0 4.144531 3.355469 7.5 7.5 7.5 4.140625 0 7.5-3.355469 7.5-7.5v-21.144532c0-4.144531-3.359375-7.5-7.5-7.5-4.144531 0-7.5 3.355469-7.5 7.5zm0 0"/><path d="m371.25 158.242188v-21.148438c0-4.140625-3.359375-7.5-7.5-7.5-4.144531 0-7.5 3.359375-7.5 7.5v21.148438c0 4.140624 3.355469 7.5 7.5 7.5 4.140625 0 7.5-3.359376 7.5-7.5zm0 0"/><path d="m33.386719 241.152344c-6.058594 6.980468-11.414063 14.394531-16.046875 22.230468-14.722656 24.882813-20.039063 53.980469-14.972656 81.925782 5.789062 31.910156 25.007812 60.058594 51.34375 78.660156v27.113281c0 17.488281 14.230468 31.71875 31.71875 31.71875h30.21875c2.390624 0 4.714843-.273437 6.957031-.777343 31.234375 19.082031 76.902343 29.976562 126.019531 29.976562s94.785156-10.894531 126.019531-29.976562c2.242188.503906 4.566407.777343 6.957031.777343h30.21875c17.488282 0 31.71875-14.230469 31.71875-31.71875v-27.125c26.378907-18.636719 45.542969-46.675781 51.34375-78.648437 6.863282-37.863282-6.15625-75.476563-31.019531-104.125v-53.421875c0-29.980469-8.210937-58.796875-23.234375-84.480469 21.945313-6.738281 36.898438-16.601562 44.515625-29.394531 6.105469-10.253907 7.46875-22.023438 4.050781-34.984375-3.789062-14.347656-12.742187-26.765625-17.742187-32.894532-3.96875-4.855468-10.609375-7.054687-16.6875-5.53125-32.878906 8.253907-59.449219 32.214844-69.914063 42.78125-11.109374-7.855468-23.222656-14.828124-36.242187-20.753906-3.773437-1.71875-8.21875-.054687-9.9375 3.71875-1.714844 3.769532-.050781 8.214844 3.71875 9.933594 32.859375 14.957031 59.347656 37.839844 80.449219 66.964844 16.773437 25.335937 26.023437 54.359375 26.023437 84.644531v38.285156c-.066406-.058593-.136719-.117187-.203125-.175781-30.179687-26.679688-68.773437-42.273438-107.804687-50.578125-27.933594-5.945313-58.097657-8.835937-92.230469-8.835937-46.582031 0-94.183594 5.265624-137.816406 22.382812-3.742188 1.46875-5.675782 5.828125-4.289063 9.582031 1.429688 3.84375 5.9375 5.886719 9.769531 4.382813 41.894532-16.453125 87.625-21.347656 132.335938-21.347656 33.070312 0 62.214844 2.785156 89.109375 8.507812 71.046875 15.117188 157.820313 67.535156 142.386719 152.664062-5.300782 29.238282-23.617188 54.730469-48.15625 71.066407-.023438.015625-.050782.027343-.074219.042969-36.425781 24.515624-84.726563 28.253906-125.222656 12.054687-.152344-.0625-.304688-.121094-.460938-.183594-18.90625-7.648437-36.042969-22.042969-57.582031-22.042969-17.253906 0-31.175781 9.03125-45.949219 16.699219-42.902343 22.273438-96.882812 20.355469-137.3125-6.527343-.089843-.058594-.1875-.101563-.28125-.160157-24.816406-15.003906-42.820312-42.644531-47.949219-70.949219-4.425781-24.398437.234376-49.832031 13.117188-71.613281 14.183594-23.972656 35.925781-42.792969 60.164062-56.140625 3.816407-2.097656 5.023438-7.261718 2.550782-10.839844-2.15625-3.128906-6.378906-4.179687-9.78125-2.304687-12.261719 6.746094-24.203125 14.925781-34.792969 24.3125v-38.28125c0-94.605469 89.824219-171.574219 200.234375-171.574219 23.359375 0 46.253906 3.425782 68.058594 10.183594 3.957031 1.226562 8.15625-.988281 9.382812-4.945312 1.226563-3.957032-.988281-8.160157-4.945312-9.386719-23.238282-7.199219-47.628906-10.851563-72.496094-10.851563-50.234375 0-97.867188 14.824219-136.207031 42.070313-10.445313-10.5625-36.957031-34.507813-69.933594-42.785157-6.019531-1.507812-12.679687.625-16.6875 5.53125-5 6.125-13.953125 18.542969-17.742187 32.898438-3.417969 12.957031-2.054688 24.726562 4.050781 34.980469 7.613281 12.785156 22.554687 22.648437 44.480469 29.382812-15.167969 25.847657-23.199219 54.625-23.199219 84.492188zm438.867187-174.9375c-6.09375 10.238281-19.578125 18.273437-40.105468 23.917968-3.394532-4.792968-7.039063-9.460937-10.929688-13.972656-.371094-.429687 2.046875-4.34375 2.335938-4.828125 3.929687-6.605469 9.953124-11.847656 16.609374-15.589843 9.722657-5.46875 21.003907-8.019532 32.113282-8.019532 1.148437 0 2.292968.039063 3.433594.089844.9375 6.890625-.207032 12.945312-3.457032 18.402344zm-13.835937-51.1875c.523437-.132813 1.074219.054687 1.414062.46875 2.964844 3.632812 7.566407 9.847656 11.109375 17.234375-.347656.007812-.695312.023437-1.042968.035156-12.4375.351563-24.867188 3.40625-35.832032 9.339844-9.667968 5.234375-18.285156 12.761719-23.800781 22.355469-4.230469-4.160157-8.679687-8.167969-13.347656-12.007813 10.28125-10.054687 33.820312-30.480469 61.5-37.425781zm-372.988281 452.773437c-9.21875 0-16.71875-7.5-16.71875-16.71875v-17.851562c19.636718 10.519531 41.464843 16.351562 63.660156 17.339843v.511719c0 9-7.734375 16.71875-16.722656 16.71875zm343.109374-16.71875c0 9.21875-7.5 16.71875-16.722656 16.71875 0 0-30.210937 0-30.214844 0-9.441406 0-16.722656-7.972656-16.722656-17.226562 13.945313-.621094 27.734375-3.179688 40.941406-7.582031 5.199219-1.734376 20.304688-8.460938 22.71875-9.753907zm-179.914062-32.511719c21.121094 0 39.269531 16.644532 58.558594 23.441407 13.886718 4.890625 28.277344 7.707031 42.695312 8.476562-.015625 0 .03125 2.035157.039063 2.199219.394531 7.75 3.773437 15.332031 9.292969 20.851562-28.558594 14.996094-68.058594 23.460938-110.585938 23.460938s-82.03125-8.464844-110.585938-23.460938c5.535157-5.535156 8.890626-13.035156 9.289063-20.851562.039063-.730469.042969-1.460938.042969-2.195312 17.128906-.914063 34.226562-4.714844 50.472656-11.457032 15.894531-6.597656 30.808594-19.445312 48.539062-20.40625.746094-.039062 1.492188-.058594 2.242188-.058594zm-211.207031-403.074218c.335937-.414063.886719-.601563 1.414062-.46875 27.71875 6.957031 51.277344 27.425781 61.535157 37.460937-1.1875.980469-10.203126 8.929688-13.351563 12.023438-.324219-.5625-.660156-1.121094-1.007813-1.671875-.007812-.015625-.019531-.035156-.027343-.050782-10.722657-16.847656-30.085938-26.625-49.472657-29.273437-3.378906-.460937-6.789062-.722656-10.199218-.78125 3.539062-7.390625 8.144531-13.605469 11.109375-17.238281zm-12.421875 50.71875c-3.25-5.457032-4.394532-11.511719-3.460938-18.402344.125-.003906.25-.011719.375-.015625 10.769532-.503906 21.789063 1.46875 31.558594 6.078125 9.742188 4.597656 18.574219 12.070312 22.570312 22.316406-3.902343 4.515625-7.542968 9.171875-10.9375 13.945313-20.527343-5.648438-34.011718-13.683594-40.105468-23.921875zm0 0"/></svg>