<svg height="512pt" viewBox="-41 0 511 512" width="512pt" xmlns="http://www.w3.org/2000/svg"><path d="m186.515625 30.203125h56.394531v86.550781h-56.394531zm0 0" fill="#4a5660"/><path d="m186.515625 30.203125h30v86.546875h-30zm0 0" fill="#3d4851"/><path d="m421.429688 297.785156c0 114.164063-92.550782 206.714844-206.714844 206.714844-114.164063 0-206.714844-92.550781-206.714844-206.714844 0-114.164062 92.550781-206.714844 206.714844-206.714844 114.164062 0 206.714844 92.550782 206.714844 206.714844zm0 0" fill="#a5b0bc"/><path d="m214.714844 463.410156c-91.324219 0-165.625-74.300781-165.625-165.625 0-91.324218 74.296875-165.625 165.625-165.625 91.324218 0 165.625 74.300782 165.625 165.625 0 91.324219-74.300782 165.625-165.625 165.625zm0 0" fill="#76e5e6"/><path d="m79.089844 297.785156c0-86.269531 66.304687-157.332031 150.625-164.9375-4.941406-.445312-9.941406-.6875-15-.6875-91.324219 0-165.625 74.300782-165.625 165.625 0 91.324219 74.300781 165.625 165.625 165.625 5.058594 0 10.058594-.242187 15-.6875-84.320313-7.605468-150.625-78.667968-150.625-164.9375zm0 0" fill="#00bcb9"/><path d="m278.992188 230.277344-83.84375 31.640625c-7.523438 2.839843-13.460938 8.777343-16.300782 16.300781l-31.640625 83.84375c-.761719 2.019531 1.210938 3.992188 3.230469 3.230469l83.84375-31.644531c7.523438-2.835938 13.460938-8.773438 16.296875-16.296876l31.644531-83.84375c.761719-2.019531-1.210937-3.992187-3.230468-3.230468zm0 0" fill="#fa695b"/><g fill="#e8e8e8"><path d="m227.992188 297.785156c0 7.332032-5.945313 13.277344-13.277344 13.277344-7.332032 0-13.277344-5.945312-13.277344-13.277344 0-7.332031 5.945312-13.277344 13.277344-13.277344 7.332031 0 13.277344 5.945313 13.277344 13.277344zm0 0"/><path d="m214.714844 132.160156c-5.195313 0-10.335938.253906-15.410156.722656v39.496094c0 8.511719 6.898437 15.410156 15.410156 15.410156 8.507812 0 15.40625-6.898437 15.40625-15.410156v-39.496094c-5.074219-.46875-10.210938-.722656-15.40625-.722656zm0 0"/><path d="m379.617188 282.375h-39.496094c-8.511719 0-15.410156 6.898438-15.410156 15.410156 0 8.511719 6.898437 15.410156 15.410156 15.410156h39.496094c.46875-5.078124.722656-10.214843.722656-15.410156 0-5.195312-.253906-10.335937-.722656-15.410156zm0 0"/><path d="m214.714844 407.78125c-8.511719 0-15.410156 6.898438-15.410156 15.410156v39.496094c5.078124.46875 10.214843.722656 15.410156.722656 5.195312 0 10.335937-.253906 15.410156-.722656v-39.496094c0-8.511718-6.898438-15.410156-15.410156-15.410156zm0 0"/><path d="m89.308594 282.375h-39.496094c-.46875 5.078125-.722656 10.214844-.722656 15.410156 0 5.195313.253906 10.332032.722656 15.410156h39.496094c8.511718 0 15.410156-6.898437 15.410156-15.410156 0-8.511718-6.898438-15.410156-15.410156-15.410156zm0 0"/></g><path d="m207.773438 132.316406c-2.828126.128906-5.652344.304688-8.46875.566406v5.625c9.796874-2.796874 19.957031-4.714843 30.394531-5.65625-6.304688-.570312-12.652344-.800781-18.980469-.640624-.984375.023437-1.964844.0625-2.945312.105468zm0 0" fill="#d2d1d7"/><path d="m220.324219 463.3125c2.640625-.09375 5.277343-.257812 7.910156-.472656.488281-.039063.976563-.074219 1.460937-.121094-10.4375-.941406-20.597656-2.859375-30.390624-5.65625v5.621094c.015624.003906.03125.003906.042968.003906 2.511719.171875 5.007813.414062 7.523438.53125 4.480468.203125 8.96875.25 13.453125.09375zm0 0" fill="#d2d1d7"/><path d="m49.238281 304.726562c.121094 2.828126.316407 5.652344.574219 8.46875h29.996094c-.46875-5.078124-.71875-10.214843-.71875-15.410156 0-5.195312.246094-10.335937.71875-15.410156 0 0-29.996094 0-29.996094.007812-.117188 1.257813-.21875 2.523438-.308594 3.792969 0 .027344-.003906.054688-.003906.085938-.425781 6.144531-.519531 12.308593-.261719 18.464843zm0 0" fill="#d2d1d7"/><path d="m243.839844 7.5h-56.394532c-12.539062 0-24.558593 10.164062-24.558593 22.703125s12.019531 22.703125 24.558593 22.703125h56.394532c12.539062 0 22.703125-10.164062 22.703125-22.703125s-10.164063-22.703125-22.703125-22.703125zm0 0" fill="#a5b0bc"/><path d="m192.886719 30.203125c0-12.539063 12.019531-22.703125 24.558593-22.703125h-30c-12.539062 0-24.558593 10.164062-24.558593 22.703125s12.019531 22.703125 24.558593 22.703125h30c-12.539062 0-24.558593-10.164062-24.558593-22.703125zm0 0" fill="#77889a"/><path d="m149.539062 372.941406c1.191407.007813 2.390626-.195312 3.546876-.632812l83.84375-31.640625c9.535156-3.601563 17.070312-11.132813 20.667968-20.667969 0 0 31.542969-83.574219 31.640625-83.84375 2.992188-7.921875-4.992187-15.878906-12.890625-12.894531l-83.847656 31.640625c-9.535156 3.601562-17.066406 11.132812-20.667969 20.667968l-31.640625 83.84375c-1.160156 3.074219-.742187 6.519532 1.121094 9.214844 1.890625 2.738282 5.019531 4.296875 8.226562 4.3125zm36.328126-92.074218c2.074218-5.503907 6.421874-9.855469 11.929687-11.929688l73.507813-27.742188-27.742188 73.507813c-2.078125 5.503906-6.425781 9.855469-11.929688 11.929687l-73.511718 27.742188zm0 0"/><path d="m214.714844 277.007812c-11.457032 0-20.777344 9.320313-20.777344 20.777344 0 11.457032 9.320312 20.777344 20.777344 20.777344 11.457031 0 20.777344-9.320312 20.777344-20.777344 0-11.457031-9.320313-20.777344-20.777344-20.777344zm0 26.554688c-3.1875 0-5.777344-2.59375-5.777344-5.777344s2.59375-5.777344 5.777344-5.777344 5.777344 2.589844 5.777344 5.777344-2.589844 5.777344-5.777344 5.777344zm0 0"/><path d="m106.050781 422.894531c-2.578125 3.242188-2.035156 7.960938 1.210938 10.535157 34.449219 27.347656 79.691406 41.109374 123.558593 36.722656 83.972657-7.78125 150.738282-75.785156 156.589844-160.292969.003906-.035156.003906-.070313.007813-.105469.558593-8.027344 0-15.921875 0-23.933594-.003907-.035156-.003907-.074218-.007813-.109374-5.851562-84.507813-72.617187-152.511719-156.613281-160.296876-10.703125-.992187-21.484375-.976562-32.1875.003907-83.972656 7.78125-150.742187 75.78125-156.589844 160.292969-.003906.035156-.003906.070312-.007812.105468-.648438 9.328125-.585938 18.722656.332031 28.03125 0 .015625 0 .027344.003906.058594 3.390625 36.160156 18.113282 70.484375 42.316406 98.023438 2.734376 3.113281 7.472657 3.417968 10.582032.683593 3.113281-2.734375 3.417968-7.472656.683594-10.582031-20.269532-23.066406-33.253907-51.339844-37.65625-81.335938h31.035156c12.628906 0 22.910156-10.277343 22.910156-22.910156 0-12.632812-10.277344-22.910156-22.910156-22.910156h-31.050782c10.039063-68.890625 64.65625-123.507812 133.546876-133.550781v31.054687c0 12.632813 10.277343 22.910156 22.910156 22.910156 12.632812 0 22.910156-10.277343 22.910156-22.910156v-31.054687c68.886719 10.042969 123.507812 64.660156 133.550781 133.550781h-31.054687c-12.632813 0-22.910156 10.277344-22.910156 22.910156 0 12.628906 10.277343 22.90625 22.910156 22.90625h31.054687c-10.042969 68.890625-64.660156 123.507813-133.550781 133.550782v-31.050782c0-12.632812-10.277344-22.910156-22.910156-22.910156-12.632813 0-22.910156 10.277344-22.910156 22.910156v31.082032c-27.414063-3.953126-53.078126-15.019532-75.21875-32.59375-3.246094-2.574219-7.960938-2.03125-10.535157 1.214843zm-49.257812-133.019531h32.515625c4.363281 0 7.910156 3.546875 7.910156 7.910156 0 4.363282-3.546875 7.910156-7.910156 7.910156h-32.511719c-.003906-.042968-.007813-.082031-.007813-.125-.246093-5.105468-.257812-10.484374.003907-15.695312zm165.832031-117.496094c0 4.359375-3.550781 7.910156-7.910156 7.910156s-7.910156-3.550781-7.910156-7.910156v-32.515625c5.320312-.269531 10.5-.269531 15.820312 0zm150.011719 133.316406h-32.515625c-4.363282 0-7.910156-3.550781-7.910156-7.910156s3.546874-7.910156 7.910156-7.910156h32.515625c.265625 5.269531.265625 10.550781 0 15.820312zm-165.832031 150.011719c0-.003906 0-32.515625 0-32.515625 0-4.363281 3.550781-7.910156 7.910156-7.910156s7.910156 3.546875 7.910156 7.910156v32.515625c-.089844 1.042969-15.820312-.167969-15.820312 0zm0 0"/><path d="m63.242188 146.3125c-40.460938 40.460938-62.742188 94.253906-62.742188 151.472656s22.28125 111.011719 62.742188 151.472656c40.460937 40.460938 94.253906 62.742188 151.472656 62.742188s111.011718-22.28125 151.472656-62.742188c40.460938-40.460937 62.742188-94.253906 62.742188-151.472656 0-55.351562-21.042969-107.875-59.25-147.898437-2.863282-2.996094-7.609376-3.105469-10.605469-.246094-2.996094 2.859375-3.105469 7.605469-.246094 10.601563 35.53125 37.222656 55.101563 86.066406 55.101563 137.542968 0 109.847656-89.367188 199.214844-199.214844 199.214844s-199.214844-89.367188-199.214844-199.214844c0-100.863281 75.351562-184.449218 172.714844-197.449218 17.808594-2.351563 35.882812-2.347657 53.683594.085937.148437.019531.292968.019531.4375.03125 34.71875 4.761719 67.234374 18.527344 95.261718 40.519531 3.257813 2.558594 7.96875 1.988282 10.527344-1.269531s1.988281-7.972656-1.269531-10.53125c-28.519531-22.382813-61.363281-36.847656-96.445313-42.679687v-26.816407c13.503906-3.007812 23.632813-15.078125 23.632813-29.472656 0-16.652344-13.546875-30.203125-30.203125-30.203125h-56.394532c-17.078124 0-32.058593 14.113281-32.058593 30.203125 0 13.363281 10.339843 25.359375 23.628906 29.039063v27.28125c-43.644531 7.28125-83.859375 27.871093-115.773437 59.789062zm107.144531-116.109375c0-7.957031 8.128906-15.203125 17.058593-15.203125h56.398438c8.382812 0 15.203125 6.820312 15.203125 15.203125s-6.820313 15.203125-15.203125 15.203125h-56.398438c-8.929687 0-17.058593-7.246094-17.058593-15.203125zm23.628906 30.203125h41.398437v24.144531c-5.128906-.484375-10.300781-.792969-15.503906-.914062-.007812 0-.015625 0-.027344-.003907-1.71875-.039062-3.441406-.0625-5.167968-.0625-6.953125 0-13.859375.332032-20.695313.984376v-24.148438zm0 0"/></svg>