<svg height="512pt" viewBox="-25 0 512 512.00191" width="512pt" xmlns="http://www.w3.org/2000/svg"><path d="m410.519531 302.242188s-35.765625 60.3125-141.597656 6.460937l-19.652344-28.195313 28.289063-17.761718h105.910156zm0 0" fill="#ff8997"/><path d="m356.503906 291.707031c2.335938-.105469 4.746094-.214843 7.230469-.34375 44.128906-2.210937 68.523437 26.277344 78.085937 40.941407 1.863282 2.863281 6.273438 2.011718 6.964844-1.339844 19.351563-94.355469-18.371094-141.839844-54.164062-165.199219zm0 0" fill="#3d4851"/><path d="m249.269531 280.507812c38.761719 11.347657 53.964844 13.628907 107.234375 11.199219 60.515625-48.65625 38.117188-125.941406 38.117188-125.941406-26.710938-17.433594-52.335938-21.429687-52.335938-21.429687-4.667968-52.300782-50.257812-43.921876-50.257812-43.921876zm0 0" fill="#e8e8e8"/><path d="m173.371094 504.507812c5.59375-41.140624 1.785156-81.703124-11.351563-120.683593-10.574219-31.378907-23.566406-49.9375-23.695312-50.121094l.089843.132813 51.980469-37.578126c2.609375 3.609376 60.988281 86.066407 47.589844 208.25zm0 0" fill="#ffbfc5"/><path d="m138.417969 333.835938 51.980469-37.578126c1.449218 2.007813 20.117187 28.371094 34.125 72.363282-18.894532 6.457031-39.125 9.972656-60.140626 9.972656-.007812 0-.011718 0-.015624 0-.84375 0-1.671876-.003906-2.519532-.015625-.558594-.007813-1.117187-.03125-1.675781-.042969-10.183594-28.164062-21.726563-44.660156-21.851563-44.832031zm0 0" fill="#ff8997"/><path d="m157.457031 34.953125c5.140625-.222656 9.839844-3.0625 12.398438-7.523437 2.734375-4.773438 5.40625-11.640626 5.078125-19.925782 0 0 28.730468 4.273438 30.484375 32.726563 67.0625 18.113281 116.332031 79.5625 115.882812 152.457031-.535156 86.726562-72.324219 157.0625-159.046875 155.894531-85.660156-1.152343-154.742187-70.949219-154.742187-156.882812 0-84.324219 66.519531-153.109375 149.945312-156.746094zm0 0" fill="#ffbfc5"/><path d="m37.511719 191.699219c0-84.324219 66.519531-153.109375 149.945312-156.746094 5.140625-.222656 9.839844-3.0625 12.398438-7.523437.421875-.738282.839843-1.53125 1.25-2.367188-8.453125-14.917969-26.171875-17.558594-26.171875-17.558594.328125 8.285156-2.34375 15.152344-5.082032 19.925782-2.554687 4.460937-7.257812 7.300781-12.394531 7.523437-83.425781 3.636719-149.945312 72.421875-149.945312 156.746094 0 85.933593 69.082031 155.730469 154.742187 156.882812 5.765625.078125 11.464844-.167969 17.085938-.707031-79.582032-7.585938-141.828125-74.609375-141.828125-156.175781zm0 0" fill="#ff8997"/><path d="m251.21875 232.277344h-17.476562c-4.144532 0-7.5-3.355469-7.5-7.5 0-4.140625 3.355468-7.5 7.5-7.5h17.476562c4.144531 0 7.5 3.359375 7.5 7.5 0 4.144531-3.355469 7.5-7.5 7.5zm0 0" fill="#ff8997"/><path d="m248.785156 203.9375v-15.792969c0-4.140625 3.359375-7.5 7.5-7.5s7.5 3.359375 7.5 7.5v15.792969c0 4.144531-3.359375 7.5-7.5 7.5s-7.5-3.355469-7.5-7.5zm0 0"/><path d="m167.429688 7.800781c.25 6.289063-2.015626 19.296875-10.308594 19.65625-36.378906 1.585938-70.371094 14.804688-98.300782 38.230469-3.171874 2.660156-3.585937 7.390625-.925781 10.566406 2.660157 3.171875 7.394531 3.589844 10.566407.925782 25.378906-21.285157 56.261718-33.296876 89.316406-34.738282 7.773437-.335937 14.71875-4.558594 18.574218-11.285156 2.507813-4.375 4.265626-9.015625 5.230469-13.75 6.726563 3.074219 15.5 9.667969 16.339844 23.28125.199219 3.210938 2.421875 5.9375 5.53125 6.777344 63.277344 17.09375 107.8125 73.558594 110.234375 138.652344 1.632812 43.871093-17.238281 87.578124-49.886719 116.832031-31.507812 28.230469-74.382812 41.949219-116.433593 37.183593-33.804688-3.824218-65.070313-18.953124-89.28125-43.472656-27.785157-28.140625-43.085938-65.414062-43.085938-104.964844 0-34.332031 11.941406-67.863281 33.625-94.417968 2.621094-3.207032 2.144531-7.933594-1.0625-10.550782-3.210938-2.621093-7.933594-2.144531-10.554688 1.0625-23.863281 29.226563-37.007812 66.128907-37.007812 103.90625 0 43.519532 16.839844 84.539063 47.414062 115.503907 25.691407 26.019531 58.601563 42.433593 94.261719 47.339843 5.03125 9.910157 9.480469 20.546876 13.230469 31.675782 12.75 37.839844 16.457031 77.296875 11.023438 117.277344-.601563 4.445312 2.949218 8.507812 7.433593 8.507812h64.613281c3.828126 0 7.039063-2.878906 7.457032-6.679688 1.367187-12.476562 2.050781-25.167968 2.03125-37.722656-.007813-4.136718-3.363282-7.488281-7.5-7.488281-4.15625.007813-7.507813 3.371094-7.5 7.511719.015625 9.769531-.414063 19.621094-1.277344 29.378906h-49.367188c4.152344-39.375-.113281-78.21875-12.699218-115.578125-2.960938-8.785156-6.332032-17.289063-10.070313-25.417969 1.03125.035156 11.386719.015625 15.527344-.238281 12.027344-.734375 23.816406-2.777344 35.210937-6.0625 11.34375 28.386719 18.515626 58.339844 21.339844 89.152344.375 4.125 4.027344 7.160156 8.152344 6.785156 4.125-.378906 7.160156-4.027344 6.78125-8.152344-2.929688-31.984375-10.351562-63.097656-22.058594-92.605469 16.515625-6.46875 31.988282-15.652343 45.867188-27.339843 28.535156 13.941406 54.769531 21.023437 78.019531 21.023437 36.277344-.003906 56.152344-16.921875 64.421875-26.359375 11.054688 7.671875 18.613281 17.128907 23.214844 24.1875 5.417968 8.316407 18.605468 5.773438 20.597656-3.925781 20.257812-98.789062-20.039062-148.597656-57.414062-172.988281-20.480469-13.371094-40.246094-19.203125-49.636719-21.410157-2.53125-16.691406-9.488281-29.105468-20.714844-36.953124-10.296875-7.191407-21.742187-8.703126-29.527344-8.703126-1.226562 0-2.347656.039063-3.34375.097657-20.457031-27.0625-49.238281-47.8125-83.230469-58.128907-4.164062-23.332031-25.035156-32.640624-36.230468-34.304687-2.257813-.335937-4.453125.453125-6.0625 1.894531-1.605469 1.441406-2.628906 3.546875-2.535156 5.828125zm220.625 162.679688c.5 2.207031 1.207031 5.734375 1.820312 10.246093 2.222656 16.308594 1.671875 33.128907-2.269531 49.140626-4.898438 19.886718-15.628907 37.980468-30.824219 51.730468-.980469.878906-3.074219 2.683594-3.125 2.726563-.789062.035156-1.582031.070312-2.371094.101562-8.847656.371094-17.703125.652344-26.558594.652344-8.121093 0-16.246093-.261719-24.328124-1.039063-.042969-.003906-.082032-.007812-.121094-.015624 5.640625-8.230469 10.480468-16.910157 14.496094-25.945313 11.925781-26.816406 16.285156-56.703125 12.867187-85.832031-2.671875-22.773438-10.019531-44.5625-21.75-64.300782 13.101563 2.0625 26.566406 10.777344 28.914063 37.050782.304687 3.429687 2.910156 6.214844 6.3125 6.742187.222656.039063 22.910156 3.78125 46.9375 18.742188zm26.199218 125.261719c-9.046875-5.214844-18.78125-8.734376-29.054687-10.550782-2.980469-.527344-9.445313-1.1875-9.667969-1.203125.117188-.132812.226562-.273437.34375-.40625 4.75-5.335937 9.011719-11.105469 12.6875-17.230469 12.628906-21.046874 18.039062-45.804687 17.558594-70.210937 0-.023437 0-.046875 0-.074219-.105469-4.65625-.410156-8.957031-.816406-12.804687 13.152343 11.574219 23.269531 25.457031 30.179687 41.449219 11.492187 26.601562 14.015625 59 7.523437 96.402343-7.871093-10.054687-17.667968-18.972656-28.753906-25.371093zm-132.554687 10.835937c.015625-.015625.03125-.03125.046875-.046875 2.761718-2.820312 5.410156-5.71875 7.945312-8.695312.035156.003906.0625.007812.097656.015624 11.554688 1.695313 23.242188 2.230469 34.910157 2.230469 8.730469 0 18.933593-.28125 32.136719-.882812 7.921874-.359375 15.90625-.75 23.785156.4375 6.324218.953125 12.398437 2.660156 18.183594 5.128906-7.449219 7.472656-23.296876 18.804687-50.914063 18.804687-19.5625 0-41.789063-5.710937-66.191406-16.992187zm0 0"/></svg>