<svg height="512pt" viewBox="0 -19 512.00097 512" width="512pt" xmlns="http://www.w3.org/2000/svg"><path d="m441.910156 312.796875 52.035156 39.996094c11.902344 9.148437 14.132813 26.214843 4.984376 38.117187-5.351563 6.964844-13.417969 10.617188-21.570313 10.617188-5.78125 0-11.609375-1.835938-16.546875-5.632813l-52.035156-39.996093zm0 0" fill="#ffb25a"/><path d="m322.929688 308.347656c0 87.121094-70.625 157.746094-157.746094 157.746094s-157.746094-70.625-157.746094-157.746094 70.625-157.746094 157.746094-157.746094 157.746094 70.625 157.746094 157.746094zm0 0" fill="#de8957"/><path d="m165.183594 404.367188c-52.945313 0-96.019532-43.074219-96.019532-96.019532 0-52.945312 43.074219-96.019531 96.019532-96.019531 52.941406 0 96.019531 43.074219 96.019531 96.019531 0 52.945313-43.074219 96.019532-96.019531 96.019532zm0 0" fill="#c76d33"/><path d="m165.183594 342.640625c-18.910156 0-34.292969-15.382813-34.292969-34.292969s15.382813-34.292968 34.292969-34.292968c18.90625 0 34.292968 15.382812 34.292968 34.292968s-15.386718 34.292969-34.292968 34.292969zm0 0" fill="#de8957"/><path d="m310.25 161.824219c-5.789062 0-11.335938-3.273438-13.96875-8.855469-20.707031-43.929688-7.304688-78.257812 7.589844-99.320312 15.492187-21.914063 35.703125-33.769532 36.558594-34.265626 7.375-4.273437 16.8125-1.757812 21.085937 5.617188 4.265625 7.359375 1.769531 16.78125-5.574219 21.0625-.390625.234375-15.976562 9.609375-27.402344 26.167969-14.269531 20.679687-15.730468 43.414062-4.339843 67.578125 3.636719 7.707031.332031 16.902344-7.375 20.539062-2.128907 1.003906-4.371094 1.476563-6.574219 1.476563zm0 0" fill="#ffb25a"/><path d="m397.253906 157.1875c-7.382812 0-13.910156-5.3125-15.195312-12.835938-8.179688-47.871093 13.933594-77.351562 33.925781-93.65625 20.796875-16.960937 43.445313-22.96875 44.402344-23.214843 8.246093-2.136719 16.671875 2.8125 18.8125 11.0625 2.136719 8.234375-2.796875 16.640625-11.019531 18.800781-.511719.140625-17.996094 5-33.410157 17.863281-19.289062 16.101563-26.789062 37.617188-22.289062 63.945313 1.4375 8.402344-4.210938 16.375-12.609375 17.8125-.878906.148437-1.753906.222656-2.617188.222656zm0 0" fill="#ffb25a"/><path d="m351.046875 108.839844c-58.332031 0-105.621094 47.285156-105.621094 105.621094 0 210.554687-80.242187 251.632812-80.242187 251.632812h144.933594c80.941406 0 146.550781-65.613281 146.550781-146.550781v-105.082031c0-58.335938-47.285157-105.621094-105.621094-105.621094zm0 0" fill="#f8d070"/><path d="m275.433594 214.460938c0-53.238282 39.394531-97.269532 90.617187-104.558594-4.898437-.695313-9.910156-1.0625-15.003906-1.0625-58.332031 0-105.621094 47.285156-105.621094 105.621094 0 210.554687-80.242187 251.632812-80.242187 251.632812h30.007812s80.242188-41.078125 80.242188-251.632812zm0 0" fill="#ffb25a"/><path d="m373.394531 32.734375c0 13.9375-11.296875 25.234375-25.230469 25.234375-13.9375 0-25.234374-11.296875-25.234374-25.234375 0-13.933594 11.296874-25.230469 25.234374-25.230469 13.933594 0 25.230469 11.296875 25.230469 25.230469zm0 0" fill="#f8d070"/><path d="m470.996094 18.121094c-13.425782-3.734375-27.335938 4.125-31.070313 17.546875-3.730469 13.425781 4.125 27.335937 17.550781 31.070312 13.425782 3.734375 27.335938-4.125 31.066407-17.550781 3.734375-13.421875-4.121094-27.332031-17.546875-31.066406zm0 0" fill="#f8d070"/><path d="m165.25 350.140625c23.042969 0 41.792969-18.75 41.792969-41.792969 0-23.046875-18.75-41.796875-41.792969-41.796875-23.046875 0-41.796875 18.75-41.796875 41.796875 0 23.042969 18.75 41.792969 41.796875 41.792969zm0-68.585937c14.769531 0 26.789062 12.019531 26.789062 26.792968 0 14.773438-12.019531 26.792969-26.789062 26.792969-14.773438 0-26.792969-12.019531-26.792969-26.792969 0-14.773437 12.019531-26.792968 26.792969-26.792968zm0 0"/><path d="m317.808594 208.964844v-9.59375c0-4.144532-3.359375-7.5-7.503906-7.5-4.140626 0-7.5 3.355468-7.5 7.5v9.59375c0 4.144531 3.359374 7.503906 7.5 7.503906 4.144531 0 7.503906-3.359375 7.503906-7.503906zm0 0"/><path d="m423.835938 208.964844v-9.59375c0-4.144532-3.359376-7.5-7.503907-7.5-4.140625 0-7.5 3.355468-7.5 7.5v9.59375c0 4.144531 3.359375 7.503906 7.5 7.503906 4.144531 0 7.503907-3.359375 7.503907-7.503906zm0 0"/><path d="m382.050781 213.234375c2.730469-3.117187 2.410157-7.855469-.710937-10.585937-3.117188-2.726563-7.855469-2.410157-10.582032.710937-1.792968 2.050781-4.503906 3.226563-7.4375 3.226563-2.9375 0-5.648437-1.175782-7.4375-3.226563-2.726562-3.121094-7.464843-3.4375-10.585937-.710937-3.121094 2.726562-3.4375 7.46875-.710937 10.585937 4.640624 5.308594 11.46875 8.355469 18.734374 8.355469 7.261719 0 14.089844-3.046875 18.730469-8.355469zm0 0"/><path d="m343.6875 393.871094c-4.226562.03125-8.472656-1.230469-11.976562-3.921875l-52.035157-40c-3.285156-2.523438-7.996093-1.90625-10.519531 1.375-2.523438 3.285156-1.910156 7.996093 1.375 10.519531 0 0 52.011719 39.980469 52.035156 40 15.007813 11.535156 37.125 8.617188 48.636719-6.363281 11.523437-14.992188 8.605469-37.132813-6.359375-48.636719l-52.035156-39.996094c-3.285156-2.523437-7.996094-1.910156-10.519532 1.375-2.523437 3.285156-1.910156 7.996094 1.375 10.519532 0 0 51.996094 39.96875 52.035157 40 8.507812 6.539062 10.140625 19.09375 3.609375 27.59375-3.726563 4.851562-9.652344 7.484374-15.621094 7.535156zm0 0"/><path d="m248.964844 165.886719c-25.328125-14.917969-54.078125-22.789063-83.714844-22.789063-91.121094 0-165.25 74.132813-165.25 165.25 0 91.117188 74.128906 165.246094 165.25 165.246094h144.933594c26.773437 0 53.152344-6.980469 76.28125-20.183594 3.597656-2.054687 4.847656-6.636718 2.792968-10.234375-2.054687-3.601562-6.636718-4.851562-10.234374-2.796875-20.867188 11.914063-44.667969 18.214844-68.839844 18.214844h-123.867188c.007813-.011719.019532-.023438.03125-.035156 7.335938-7.503906 13.644532-15.941406 19.265625-24.78125 23.113281-36.351563 34.421875-79.753906 40.722657-121.96875 2.960937-19.851563 4.300781-39.898438 5.183593-59.9375 1.054688-23.933594-.917969-48.464844 7.535157-71.367188 13.847656-37.417968 49.886718-64.164062 92.058593-64.164062 53.308594 0 98.121094 44.832031 98.121094 98.121094v105.082031c0 3.742187-.160156 7.5-.457031 11.230469-2.902344 35.796874-19.601563 69.289062-46.816406 93.21875-3.113282 2.738281-3.414063 7.476562-.679688 10.585937 2.734375 3.113281 7.476562 3.417969 10.585938.683594 13.667968-12.019531 24.9375-26.21875 33.480468-41.84375 0 0 10.957032 8.421875 10.960938 8.425781 15.007812 11.535156 37.125 8.613281 48.636718-6.359375 11.523438-14.996094 8.605469-37.136719-6.359374-48.640625l-34.359376-26.40625c.003907-.300781.011719-.597656.011719-.894531v-105.082031c0-37.019532-17.871093-69.941407-45.441406-90.589844.226563-17.339844 7.070313-31.40625 20.847656-42.902344 3.621094-3.023438 7.6875-5.8125 12.113281-8.335938 1.226563.507813 2.488282.957032 3.796876 1.320313 17.167968 4.777344 35.535156-5.597656 40.308593-22.765625 2.34375-8.421875 1.265625-17.253906-3.03125-24.867188-4.300781-7.613281-11.308593-13.097656-19.734375-15.441406-2.871094-.796875-5.824218-1.203125-8.785156-1.203125-13.371094 0-25.34375 8.230469-30.304688 20.417969-8.273437 4.285156-15.902343 9.246094-22.699218 14.789062-13.824219 11.273438-30.722656 30.363282-36.421875 58.972657-7.667969-1.644531-15.617188-2.519531-23.769531-2.519531-9.210938 0-18.164063 1.113281-26.746094 3.203124.765625-9.714843 4.242187-19.117187 10.410156-28.050781 2.675781-3.878906 5.84375-7.65625 9.433594-11.273437 1.316406.160156 2.65625.253906 4.015625.253906 18.050781 0 32.734375-14.683594 32.734375-32.734375s-14.683594-32.734375-32.734375-32.734375c-16.78125 0-30.648438 12.695312-32.515625 28.988281-6.820313 6.339844-12.839844 13.164063-17.902344 20.328125-11.78125 16.660156-24.113281 43.335938-17.910156 77.316406-13.011719 10.574219-23.640625 23.96875-30.9375 39.253907zm-233.960938 142.460937c0-82.84375 67.398438-150.246094 150.246094-150.246094 27.722656 0 54.601562 7.546876 78.101562 21.882813-.082031.246094-.144531.496094-.222656.742187-2.472656 7.914063-4.207031 16.234376-4.761718 24.515626-.453126 6.792968-.355469 13.609374-.457032 20.414062v.078125c-.042968 2.875-.109375 5.808594-.1875 8.773437-19.195312-18.84375-45.132812-29.683593-72.472656-29.683593-19.960938 0-39.351562 5.722656-56.085938 16.546875-3.476562 2.25-4.472656 6.894531-2.222656 10.371094 2.25 3.480468 6.894532 4.476562 10.371094 2.226562 14.300781-9.25 30.875-14.136719 47.9375-14.136719 28.308594 0 54.867188 13.589844 71.558594 36.484375-1.308594 22.648438-3.855469 46.824219-8.367188 70.707032-3.574218 18.808593-8.332031 37.429687-14.859375 55.4375-14.398437 9.433593-31.054687 14.40625-48.332031 14.40625-48.808594 0-88.519531-39.710938-88.519531-88.519532 0-20.425781 7.15625-40.371094 20.152343-56.160156 2.632813-3.199219 2.175782-7.925781-1.023437-10.558594-3.199219-2.636718-7.929687-2.175781-10.5625 1.023438-15.199219 18.464844-23.570313 41.796875-23.570313 65.695312 0 57.082032 46.441407 103.523438 103.523438 103.523438 13.664062 0 26.996094-2.675782 39.40625-7.808594-6.039062 12.808594-13.226562 25.125-22.191406 36.125-7.898438 9.75-14.914063 15.6875-19.207032 18.390625-81.933593-1.066406-148.253906-68.046875-148.253906-150.230469zm448.078125 30.132813s26.34375 20.25 26.359375 20.261719c8.503906 6.535156 10.140625 19.097656 3.609375 27.597656-6.539062 8.503906-19.097656 10.144531-27.597656 3.609375l-13.394531-10.292969c5.351562-12.601562 8.9375-25.75 10.761718-39.285156.085938-.628906.183594-1.257813.261719-1.890625zm1.230469-313.800781c11.535156 0 20.1875 11.371093 17.097656 22.488281-2.128906 7.644531-9.144531 12.984375-17.070312 12.984375-7.992188 0-15.46875-5.886719-17.292969-13.769532-.003906-.027343-.007813-.054687-.011719-.082031-2.457031-10.90625 6.125-21.621093 17.277344-21.621093zm-43.523438 31.832031c3.535157-2.882813 7.328126-5.59375 11.355469-8.113281.03125.164062.074219.324218.105469.484374 1.035156 5.113282 3.308594 10 6.578125 14.066407-3.117187 2.042969-6.058594 4.214843-8.796875 6.5-14.707031 12.273437-23.285156 27.445312-25.605469 45.222656-4.851562-2.597656-9.882812-4.835937-15.0625-6.695313 3.679688-20.15625 14.234375-37.445312 31.425781-51.464843zm-72.558593-41.507813c9.777343 0 17.730469 7.957032 17.730469 17.730469 0 9.777344-7.953126 17.730469-17.730469 17.730469-9.488281 0-17.71875-8.226563-17.730469-17.707032l.003906-.089843c.035156-9.746094 7.972656-17.664063 17.726563-17.664063zm-38.167969 42.976563c2.632812-3.722657 5.5625-7.351563 8.765625-10.859375.726563 1.488281 1.585937 2.921875 2.53125 4.28125 2.132813 3.054687 4.777344 5.773437 7.804687 7.945312-2.457031 2.800782-4.707031 5.683594-6.734374 8.621094-8.964844 12.992188-13.402344 26.890625-13.230469 41.390625-5.367188 2.140625-10.554688 4.691406-15.527344 7.628906-2.554687-25.613281 7.128906-45.910156 16.390625-59.007812zm0 0"/></svg>