<?xml version="1.0" standalone="no"?>
<!DOCTYPE svg PUBLIC "-//W3C//DTD SVG 20010904//EN"
 "http://www.w3.org/TR/2001/REC-SVG-20010904/DTD/svg10.dtd">
<svg version="1.0" xmlns="http://www.w3.org/2000/svg"
 width="700.000000pt" height="700.000000pt" viewBox="0 0 700.000000 700.000000"
 preserveAspectRatio="xMidYMid meet">
<metadata>
Created by potrace 1.14, written by Peter Selinger 2001-2017
</metadata>
<g transform="translate(0.000000,700.000000) scale(0.100000,-0.100000)"
fill="#000000" stroke="none">
<path d="M2745 6550 c-38 -9 -126 -40 -195 -69 -69 -29 -179 -75 -245 -102
-66 -28 -183 -77 -260 -109 -77 -32 -234 -98 -350 -145 -115 -48 -223 -93
-240 -100 -16 -7 -109 -46 -205 -85 -96 -40 -188 -78 -205 -85 -47 -20 -305
-127 -470 -195 -291 -119 -348 -153 -435 -257 -88 -106 -131 -219 -135 -361
-4 -121 10 -176 94 -380 39 -92 144 -345 234 -562 90 -217 190 -458 222 -535
67 -163 112 -272 125 -300 5 -11 26 -60 46 -110 20 -49 45 -110 56 -135 10
-25 23 -54 28 -65 4 -11 101 -245 215 -520 113 -275 210 -509 214 -520 5 -11
16 -36 24 -55 8 -19 58 -141 111 -270 54 -129 101 -244 106 -255 5 -11 27 -61
49 -111 21 -51 52 -111 69 -135 109 -159 295 -259 484 -260 131 0 154 7 557
170 151 61 283 111 293 111 11 0 61 -13 111 -29 51 -16 101 -31 112 -34 11 -3
139 -42 285 -86 146 -45 272 -83 280 -85 8 -3 159 -48 335 -101 358 -109 443
-134 465 -140 8 -2 76 -23 150 -46 74 -23 155 -47 180 -54 25 -8 92 -28 150
-45 58 -18 130 -38 162 -44 83 -19 243 -10 293 16 11 6 22 11 25 10 11 -2 92
39 137 69 121 82 201 202 251 374 11 39 43 147 72 240 28 94 53 177 55 185 2
8 37 126 79 261 41 135 84 277 95 315 11 38 68 227 126 419 58 193 117 386
130 430 13 44 56 186 96 315 39 129 77 255 84 280 7 25 46 158 88 295 41 138
80 266 85 285 6 19 28 94 50 165 22 72 57 184 77 250 19 66 48 158 62 205 23
72 27 103 27 200 0 98 -4 126 -26 187 -14 40 -38 92 -52 117 -60 103 -181 207
-290 249 -28 11 -130 43 -226 73 -96 29 -303 91 -460 139 -157 47 -307 92
-335 100 -27 8 -198 60 -380 115 -181 55 -337 102 -345 105 -8 2 -159 47 -335
101 -176 53 -349 104 -385 112 -77 16 -220 11 -293 -12 -74 -24 -177 -82 -232
-132 l-49 -45 -39 83 c-165 356 -168 360 -241 433 -152 151 -363 214 -561 165z"/>
</g>
</svg>
