<?xml version="1.0" encoding="iso-8859-1"?>
<!-- Generator: Adobe Illustrator 19.0.0, SVG Export Plug-In . SVG Version: 6.00 Build 0)  -->
<svg version="1.1" id="Layer_1" xmlns="http://www.w3.org/2000/svg" xmlns:xlink="http://www.w3.org/1999/xlink" x="0px" y="0px"
	 viewBox="0 0 512 512" style="enable-background:new 0 0 512 512;" xml:space="preserve">
<path style="fill:#5A464B;" d="M406.069,289.099c0,0,35.31,26.483,17.655,52.966c-24.483,36.725-97.103,52.966-123.586,44.138
	C281.411,379.961,256,306.755,256,306.755v-26.483L406.069,289.099z"/>
<g>
	<path style="fill:#463246;" d="M394.809,367.387c-31.802,18.337-75.41,25.237-94.671,18.816
		C281.411,379.961,256,306.755,256,306.755v-17.655C359.643,289.099,387.565,337.768,394.809,367.387z"/>
	<path style="fill:#463246;" d="M476.69,147.858c26.483,0,35.27,12.284,35.31,26.484c0.036,12.716-9.399,26.002-16.646,35.309
		c-27.492,35.31-71.63,79.448-89.286,79.448c-17.655,0-141.241,0-141.241,0v-35.31C264.828,253.789,414.897,147.858,476.69,147.858z
		"/>
</g>
<path style="fill:#FF643C;" d="M376.276,330.479c0,0-27.862-13.977-50.574-12.874l18.574,33.288c0,0-15.633-14.712-46.529-27.402
	l5.977,35.402c-24.276-21.793-36.754-24.047-36.754-24.047c-6.516-15.307-10.97-28.09-10.97-28.09v-17.655h35.31
	C349.241,289.099,376.276,330.479,376.276,330.479z"/>
<path style="fill:#E6DCD2;" d="M372.23,202.294c5.772,0,10.998,1.508,12.811,6.662c0.271-0.004,0.525-0.041,0.798-0.041
	c13.992,0,25.327,5.443,26.296,12.316c5.441,3.215,9.014,8.34,9.014,14.167c0,9.75-9.88,17.655-22.069,17.655
	c-12.189,0-22.069-7.905-22.069-17.655c0-0.273,0.085-0.526,0.1-0.796c-10.315-1.811-19.459-12.536-21.433-17.963
	C352.736,208.548,358.988,202.294,372.23,202.294z"/>
<g>
	
		<ellipse transform="matrix(-0.4099 0.9121 -0.9121 -0.4099 808.9102 -184.3371)" style="fill:#AEA1A1;" cx="464.082" cy="169.489" rx="7.484" ry="11.439"/>
	<circle style="fill:#AEA1A1;" cx="485.959" cy="184.166" r="5.996"/>
</g>
<path style="fill:#5A464B;" d="M105.931,289.099c0,0-35.31,26.483-17.655,52.966c24.483,36.725,97.103,52.966,123.586,44.138
	C230.589,379.961,256,306.755,256,306.755v-26.483L105.931,289.099z"/>
<g>
	<path style="fill:#463246;" d="M117.191,367.387c31.802,18.337,75.41,25.237,94.671,18.816
		C230.589,379.961,256,306.755,256,306.755v-17.655C152.358,289.099,124.435,337.768,117.191,367.387z"/>
	<path style="fill:#463246;" d="M35.31,147.858c-26.483,0-35.27,12.284-35.31,26.484c-0.036,12.716,9.399,26.002,16.646,35.309
		c27.492,35.31,71.63,79.448,89.286,79.448s141.241,0,141.241,0v-35.31C247.173,253.789,97.104,147.858,35.31,147.858z"/>
</g>
<g>
	<path style="fill:#908490;" d="M247.173,231.72c-1.759,0-3.423-1.06-4.104-2.793c-26.06-65.87-52.457-113.768-52.724-114.241
		c-1.181-2.13-0.405-4.819,1.725-5.999c2.146-1.155,4.81-0.414,6.001,1.725c0.267,0.483,26.922,48.836,53.207,115.276
		c0.897,2.268-0.215,4.828-2.483,5.725C248.267,231.625,247.715,231.72,247.173,231.72z"/>
	<path style="fill:#908490;" d="M264.828,231.72c-0.543,0-1.095-0.095-1.621-0.31c-2.268-0.897-3.38-3.457-2.483-5.725
		c26.284-66.44,52.94-114.793,53.207-115.276c1.19-2.138,3.853-2.879,6.001-1.725c2.13,1.181,2.905,3.871,1.725,5.999
		c-0.267,0.474-26.664,48.371-52.724,114.241C268.251,230.66,266.587,231.72,264.828,231.72z"/>
</g>
<path style="fill:#FF643C;" d="M135.724,330.479c0,0,27.862-13.977,50.574-12.874l-18.574,33.288c0,0,15.633-14.712,46.529-27.402
	l-5.977,35.402c24.276-21.793,36.754-24.047,36.754-24.047c6.516-15.307,10.97-28.09,10.97-28.09v-17.655h-35.31
	C162.759,289.099,135.724,330.479,135.724,330.479z"/>
<g>
	<path style="fill:#463246;" d="M256,403.858c-4.879,0-8.828-3.948-8.828-8.828V289.099c0-4.879,3.948-8.828,8.828-8.828
		c4.879,0,8.828,3.948,8.828,8.828V395.03C264.828,399.91,260.88,403.858,256,403.858z"/>
	<path style="fill:#463246;" d="M256,253.789L256,253.789c-9.71,0-17.655-7.945-17.655-17.655l0,0
		c0-9.71,7.945-17.655,17.655-17.655l0,0c9.71,0,17.655,7.945,17.655,17.655l0,0C273.655,245.844,265.71,253.789,256,253.789z"/>
</g>
<path style="fill:#5A464B;" d="M256,306.755L256,306.755c-9.751,0-17.655-7.904-17.655-17.655v-26.483
	c0-9.751,7.904-17.655,17.655-17.655l0,0c9.751,0,17.655,7.904,17.655,17.655v26.483C273.655,298.849,265.751,306.755,256,306.755z"
	/>
<path style="fill:#E6DCD2;" d="M139.771,202.294c-5.772,0-10.998,1.508-12.811,6.662c-0.271-0.004-0.525-0.041-0.798-0.041
	c-13.992,0-25.327,5.443-26.296,12.316c-5.441,3.215-9.014,8.34-9.014,14.167c0,9.75,9.88,17.655,22.069,17.655
	s22.069-7.905,22.069-17.655c0-0.273-0.085-0.526-0.1-0.796c10.315-1.811,19.459-12.536,21.433-17.963
	C159.264,208.548,153.012,202.294,139.771,202.294z"/>
<g>
	
		<ellipse transform="matrix(-0.4099 -0.9121 0.9121 -0.4099 -87.018 282.6571)" style="fill:#AEA1A1;" cx="47.922" cy="169.476" rx="7.484" ry="11.439"/>
	<circle style="fill:#AEA1A1;" cx="26.037" cy="184.166" r="5.996"/>
</g>
<g>
</g>
<g>
</g>
<g>
</g>
<g>
</g>
<g>
</g>
<g>
</g>
<g>
</g>
<g>
</g>
<g>
</g>
<g>
</g>
<g>
</g>
<g>
</g>
<g>
</g>
<g>
</g>
<g>
</g>
</svg>
