<svg xmlns="http://www.w3.org/2000/svg" viewBox="0 0 512 512" style="enable-background:new 0 0 512 512" xml:space="preserve"><path style="fill:#5a464b" d="M406.069 289.099s35.31 26.483 17.655 52.966c-24.483 36.725-97.103 52.966-123.586 44.138C281.411 379.961 256 306.755 256 306.755v-26.483l150.069 8.827z"/><path style="fill:#463246" d="M394.809 367.387c-31.802 18.337-75.41 25.237-94.671 18.816C281.411 379.961 256 306.755 256 306.755V289.1c103.643-.001 131.565 48.668 138.809 78.287zM476.69 147.858c26.483 0 35.27 12.284 35.31 26.484.036 12.716-9.399 26.002-16.646 35.309-27.492 35.31-71.63 79.448-89.286 79.448H264.827v-35.31c.001 0 150.07-105.931 211.863-105.931z"/><path style="fill:#ff643c" d="M376.276 330.479s-27.862-13.977-50.574-12.874l18.574 33.288s-15.633-14.712-46.529-27.402l5.977 35.402c-24.276-21.793-36.754-24.047-36.754-24.047-6.516-15.307-10.97-28.09-10.97-28.09v-17.655h35.31c57.931-.002 84.966 41.378 84.966 41.378z"/><path style="fill:#e6dcd2" d="M372.23 202.294c5.772 0 10.998 1.508 12.811 6.662.271-.004.525-.041.798-.041 13.992 0 25.327 5.443 26.296 12.316 5.441 3.215 9.014 8.34 9.014 14.167 0 9.75-9.88 17.655-22.069 17.655-12.189 0-22.069-7.905-22.069-17.655 0-.273.085-.526.1-.796-10.315-1.811-19.459-12.536-21.433-17.963-2.942-8.091 3.31-14.345 16.552-14.345z"/><ellipse transform="scale(-1) rotate(-65.801 -261.993 717.372)" style="fill:#aea1a1" cx="464.082" cy="169.489" rx="7.484" ry="11.439"/><circle style="fill:#aea1a1" cx="485.959" cy="184.166" r="5.996"/><path style="fill:#5a464b" d="M105.931 289.099s-35.31 26.483-17.655 52.966c24.483 36.725 97.103 52.966 123.586 44.138C230.589 379.961 256 306.755 256 306.755v-26.483l-150.069 8.827z"/><path style="fill:#463246" d="M117.191 367.387c31.802 18.337 75.41 25.237 94.671 18.816C230.589 379.961 256 306.755 256 306.755V289.1c-103.642-.001-131.565 48.668-138.809 78.287zM35.31 147.858C8.827 147.858.04 160.142 0 174.342c-.036 12.716 9.399 26.002 16.646 35.309 27.492 35.31 71.63 79.448 89.286 79.448h141.241v-35.31S97.104 147.858 35.31 147.858z"/><path style="fill:#908490" d="M247.173 231.72a4.41 4.41 0 0 1-4.104-2.793c-26.06-65.87-52.457-113.768-52.724-114.241a4.416 4.416 0 0 1 1.725-5.999c2.146-1.155 4.81-.414 6.001 1.725.267.483 26.922 48.836 53.207 115.276a4.41 4.41 0 0 1-4.105 6.032zM264.828 231.72a4.275 4.275 0 0 1-1.621-.31 4.41 4.41 0 0 1-2.483-5.725c26.284-66.44 52.94-114.793 53.207-115.276 1.19-2.138 3.853-2.879 6.001-1.725a4.418 4.418 0 0 1 1.725 5.999c-.267.474-26.664 48.371-52.724 114.241a4.41 4.41 0 0 1-4.105 2.796z"/><path style="fill:#ff643c" d="M135.724 330.479s27.862-13.977 50.574-12.874l-18.574 33.288s15.633-14.712 46.529-27.402l-5.977 35.402c24.276-21.793 36.754-24.047 36.754-24.047 6.516-15.307 10.97-28.09 10.97-28.09v-17.655h-35.31c-57.931-.002-84.966 41.378-84.966 41.378z"/><path style="fill:#463246" d="M256 403.858a8.823 8.823 0 0 1-8.828-8.828V289.099a8.823 8.823 0 0 1 8.828-8.828 8.823 8.823 0 0 1 8.828 8.828V395.03a8.822 8.822 0 0 1-8.828 8.828zM256 253.789c-9.71 0-17.655-7.945-17.655-17.655s7.945-17.655 17.655-17.655 17.655 7.945 17.655 17.655-7.945 17.655-17.655 17.655z"/><path style="fill:#5a464b" d="M256 306.755c-9.751 0-17.655-7.904-17.655-17.655v-26.483c0-9.751 7.904-17.655 17.655-17.655 9.751 0 17.655 7.904 17.655 17.655V289.1c0 9.749-7.904 17.655-17.655 17.655z"/><path style="fill:#e6dcd2" d="M139.771 202.294c-5.772 0-10.998 1.508-12.811 6.662-.271-.004-.525-.041-.798-.041-13.992 0-25.327 5.443-26.296 12.316-5.441 3.215-9.014 8.34-9.014 14.167 0 9.75 9.88 17.655 22.069 17.655s22.069-7.905 22.069-17.655c0-.273-.085-.526-.1-.796 10.315-1.811 19.459-12.536 21.433-17.963 2.941-8.091-3.311-14.345-16.552-14.345z"/><ellipse transform="scale(-1) rotate(65.801 261.974 -74.077)" style="fill:#aea1a1" cx="47.922" cy="169.476" rx="7.484" ry="11.439"/><circle style="fill:#aea1a1" cx="26.037" cy="184.166" r="5.996"/></svg>