<?xml version="1.0" encoding="iso-8859-1"?>
<!-- Generator: Adobe Illustrator 19.0.0, SVG Export Plug-In . SVG Version: 6.00 Build 0)  -->
<svg version="1.1" id="Layer_1" xmlns="http://www.w3.org/2000/svg" xmlns:xlink="http://www.w3.org/1999/xlink" x="0px" y="0px"
	 viewBox="0 0 512 512" style="enable-background:new 0 0 512 512;" xml:space="preserve">
<path style="fill:#D7E1E1;" d="M425.379,268.138c27.77,18.574,30.883,71.431,11.586,90.298
	c-24.828,24.276-32.736,54.436-32.736,54.436c-20.598,1.839-27.954,21.702-27.954,21.702c-16.184-7.357-34.574,2.574-34.574,2.574
	l-32.116-20.748c-6.146-3.97-10.906-9.752-13.624-16.545l-48.789-130.798v-35.31L425.379,268.138z"/>
<path style="fill:#C8D2D2;" d="M459.034,74.851c35.31,0,52.966,26.483,52.966,44.138c0,0-35.31,35.31-35.31,97.103
	c0,35.31-17.655,52.965-44.138,52.965c-17.655,0-158.897-26.483-158.897-26.483l-8.828-8.828
	C300.138,154.299,414.023,74.851,459.034,74.851z"/>
<path style="fill:#B9C3C3;" d="M453.726,169.786c-39.08-2.936-123.67,26.088-186.076,66.784l-2.823-2.823
	c35.31-79.448,149.195-158.897,194.207-158.897c35.31,0,52.966,26.483,52.966,44.138c0,0-20.21,20.265-30.045,56.899
	C474.017,172.815,464.632,170.606,453.726,169.786z"/>
<path style="fill:#9B9A9C;" d="M455.251,98.391c-42.511,0-144.511,65.585-189.198,136.582l-1.225-1.225
	c35.31-79.448,149.195-158.897,194.207-158.897c35.31,0,52.966,26.483,52.966,44.138c0,0-2.568,2.637-6.228,7.468
	C498.606,112.241,481.796,98.391,455.251,98.391z"/>
<path style="fill:#D7E1E1;" d="M86.621,268.138c-27.77,18.574-30.883,71.431-11.586,90.298
	c24.828,24.276,32.735,54.436,32.735,54.436c20.598,1.839,27.955,21.702,27.955,21.702c16.184-7.357,34.574,2.574,34.574,2.574
	l32.116-20.748c6.146-3.97,10.906-9.752,13.624-16.545l48.789-130.798v-35.31L86.621,268.138z"/>
<path style="fill:#C8D2D2;" d="M52.966,74.851C17.655,74.851,0,101.334,0,118.989c0,0,35.31,35.31,35.31,97.103
	c0,35.31,17.655,52.965,44.138,52.965c17.655,0,158.897-26.483,158.897-26.483l8.828-8.828
	C211.862,154.299,97.977,74.851,52.966,74.851z"/>
<path style="fill:#B9C3C3;" d="M58.274,169.786c39.08-2.936,123.67,26.088,186.076,66.784l2.823-2.823
	C211.862,154.299,97.977,74.851,52.966,74.851C17.655,74.851,0,101.334,0,118.989c0,0,20.21,20.265,30.045,56.899
	C37.983,172.815,47.368,170.606,58.274,169.786z"/>
<g>
	<path style="fill:#9B9A9C;" d="M56.749,98.391c42.511,0,144.511,65.585,189.198,136.582l1.225-1.225
		C211.862,154.299,97.977,74.851,52.966,74.851C17.655,74.851,0,101.334,0,118.989c0,0,2.568,2.637,6.228,7.468
		C13.394,112.241,30.204,98.391,56.749,98.391z"/>
	<path style="fill:#9B9A9C;" d="M256,216.086c-2.026,0-3.794-1.379-4.285-3.345c-8.388-33.543-25.155-50.75-25.327-50.922
		c-1.716-1.725-1.707-4.518,0.018-6.232c1.725-1.707,4.509-1.725,6.232,0c0.647,0.647,13.913,14.146,23.362,40.785
		c9.448-26.638,22.716-40.138,23.362-40.785c1.732-1.725,4.517-1.707,6.232,0c1.725,1.716,1.732,4.509,0.018,6.232
		c-0.172,0.172-16.94,17.379-25.327,50.922C259.793,214.706,258.026,216.086,256,216.086z"/>
</g>
<path style="fill:#7D7175;" d="M256,233.747L256,233.747c-7.313,0-13.241-5.929-13.241-13.241v-2.207
	c0-7.313,5.929-13.241,13.241-13.241l0,0c7.313,0,13.241,5.929,13.241,13.241v2.207C269.241,227.82,263.313,233.747,256,233.747z"/>
<path style="fill:#B9C3C3;" d="M256,277.885L256,277.885c-9.751,0-17.655-7.904-17.655-17.655v-17.655
	c0-9.751,7.904-17.655,17.655-17.655l0,0c9.751,0,17.655,7.904,17.655,17.655v17.655C273.655,269.981,265.75,277.885,256,277.885z"
	/>
<g>
	<circle style="fill:#7D7175;" cx="414.157" cy="302.533" r="8.828"/>
	<circle style="fill:#7D7175;" cx="407.36" cy="336.188" r="8.828"/>
	<circle style="fill:#7D7175;" cx="366.345" cy="393.016" r="8.828"/>
	<circle style="fill:#7D7175;" cx="390.985" cy="367.261" r="8.828"/>
	<circle style="fill:#7D7175;" cx="330.847" cy="393.38" r="8.828"/>
	<circle style="fill:#7D7175;" cx="97.843" cy="302.533" r="8.828"/>
	<circle style="fill:#7D7175;" cx="104.64" cy="336.188" r="8.828"/>
	<circle style="fill:#7D7175;" cx="145.655" cy="393.016" r="8.828"/>
	<circle style="fill:#7D7175;" cx="121.015" cy="367.261" r="8.828"/>
	<circle style="fill:#7D7175;" cx="181.153" cy="393.38" r="8.828"/>
</g>
<g>
</g>
<g>
</g>
<g>
</g>
<g>
</g>
<g>
</g>
<g>
</g>
<g>
</g>
<g>
</g>
<g>
</g>
<g>
</g>
<g>
</g>
<g>
</g>
<g>
</g>
<g>
</g>
<g>
</g>
</svg>
