<svg xmlns="http://www.w3.org/2000/svg" viewBox="0 0 512 512" style="enable-background:new 0 0 512 512" xml:space="preserve"><path style="fill:#ffdc50" d="M256 273.52s-26.465 44.109-26.465 105.861c0 0-13.336 26.672-16.82 62.625-.569 5.878-7.761 8.319-11.97 4.177-11.829-11.641-33.952-29.696-70.456-46.953-61.553-29.098-81.98-69.751-77.191-108.067 3.308-26.465 26.465-52.931 26.465-52.931l176.436-8.822.001 44.11z"/><path style="fill:#ffdc50" d="M7.369 68.241C2.312 69.339-.774 74.509.168 79.598c6.25 33.811 28.962 151.879 42.474 158.636 17.644 8.822 151.606 8.822 213.358-8.822v-35.287c0-.001-97.039-158.793-248.631-125.884z"/><path style="fill:#ffbe46" d="M7.932 119.612a2016.196 2016.196 0 0 0 3.619 17.446c38.574-4.597 144.267-10.947 229.063 42.154-94.908-14.506-177.288 5.537-214.965 17.463 1.682 6.161 3.362 11.906 5.02 17.055 38.298-11.959 127.169-33.372 225.333-13.85v-5.755s-13.026-21.253-36.9-46.581c-84.196-39.065-175.932-32.52-211.17-27.932zM79.565 238.233S56.408 264.698 53.1 291.164c-2.128 17.022.758 34.501 9.977 51.226 23.492-23.769 86.697-81.942 168.949-111.78l-152.461 7.623z"/><path style="fill:#ffdc50" d="M256 273.52s26.465 44.109 26.465 105.861c0 0 13.336 26.672 16.82 62.625.569 5.878 7.761 8.319 11.97 4.177 11.829-11.641 33.952-29.696 70.456-46.953 61.553-29.098 81.98-69.751 77.191-108.067-3.308-26.465-26.465-52.931-26.465-52.931l-176.436-8.822-.001 44.11z"/><path style="fill:#ffdc50" d="M504.63 68.241c5.057 1.098 8.143 6.268 7.201 11.357-6.25 33.811-28.962 151.879-42.474 158.636-17.644 8.822-151.606 8.822-213.358-8.822v-35.287C256 194.124 353.04 35.332 504.63 68.241z"/><path style="fill:#ffbe46" d="M504.069 119.612a2016.196 2016.196 0 0 1-3.619 17.446c-38.574-4.597-144.267-10.947-229.063 42.154 94.908-14.506 177.288 5.537 214.965 17.463-1.682 6.161-3.362 11.906-5.02 17.055-38.298-11.959-127.169-33.372-225.333-13.85v-5.755s13.025-21.253 36.9-46.581c84.195-39.065 175.932-32.52 211.17-27.932zM432.436 238.233s23.157 26.465 26.465 52.931c2.128 17.022-.758 34.501-9.977 51.226-23.492-23.769-86.697-81.942-168.949-111.78l152.461 7.623z"/><path style="fill:#b49f77" d="M256 180.891a4.403 4.403 0 0 1-4.221-3.145c-17.067-56.885-51.191-85.814-51.535-86.098a4.413 4.413 0 0 1-.56-6.212 4.42 4.42 0 0 1 6.212-.56c1.37 1.137 31.505 26.689 50.106 77.622 18.6-50.931 48.735-76.484 50.104-77.622 1.887-1.577 4.644-1.301 6.212.56a4.412 4.412 0 0 1-.56 6.212c-.345.285-34.521 29.385-51.535 86.098a4.406 4.406 0 0 1-4.223 3.145z"/><path style="fill:#a58c69" d="M256 344.095a8.817 8.817 0 0 1-8.822-8.822V176.481a8.817 8.817 0 0 1 8.822-8.822 8.817 8.817 0 0 1 8.822 8.822v158.792a8.817 8.817 0 0 1-8.822 8.822z"/><path style="fill:#b49f77" d="M256 273.52c-9.745 0-17.644-7.899-17.644-17.644v-52.931c0-9.745 7.899-17.644 17.644-17.644 9.745 0 17.644 7.899 17.644 17.644v52.931c0 9.745-7.9 17.644-17.644 17.644z"/></svg>