<svg height="512pt" viewBox="0 -5 512 512" width="512pt" xmlns="http://www.w3.org/2000/svg"><path d="M174.027 442.23h10.106v-50.98c0-8.375 6.793-15.168 15.168-15.168s15.164 6.793 15.164 15.168v50.98h33.363c18.399 0 33.363 14.97 33.363 33.364 0 8.375-6.789 15.168-15.164 15.168-8.379 0-15.168-6.793-15.168-15.168a3.034 3.034 0 0 0-3.03-3.031h-73.802a3.037 3.037 0 0 0-3.035 3.03c0 8.376-6.789 15.169-15.164 15.169s-15.168-6.793-15.168-15.168c.004-18.395 14.969-33.364 33.367-33.364zm0 0" fill="#50e0e0"/><path d="m26.148 480.445 86.918-114.254c10.043 13.891 15.82 31.07 15.407 49.63-.961 43.449-36.438 78.859-79.891 79.745a82.159 82.159 0 0 1-17.281-1.464c-6.238-1.207-9-8.598-5.153-13.657zm0 0" fill="#4a5660"/><path d="M113.066 366.191 26.148 480.445c-3.847 5.059-1.086 12.45 5.153 13.657a82.25 82.25 0 0 0 13.363 1.449l80.258-105.504a81.255 81.255 0 0 0-11.856-23.856zm0 0" fill="#3d4851"/><path d="M199.3 376.086c-8.374 0-15.167 6.789-15.167 15.164v40.32h9.847c6.903 0 13.739-.453 20.485-1.285V391.25c0-8.375-6.79-15.164-15.164-15.164zm0 0" fill="#00bcb9"/><path d="M331.117 73.7a114.306 114.306 0 0 0-22.898-32.75c-20.676-20.677-49.23-33.466-80.785-33.466-63.086 0-114.246 51.149-114.246 114.246v184.012H73.425c0 58.445 47.375 105.824 105.824 105.824h14.73c59.844 0 111.368-35.59 134.579-86.746zm0 0" fill="#3d4851"/><path d="M143.195 121.73c0-58.011 43.243-105.918 99.246-113.265-4.91-.645-9.918-.98-15.004-.98-63.09 0-114.25 51.148-114.25 114.245v184.012h30.008zM103.43 305.742H73.426c0 58.445 47.375 105.824 105.824 105.824h14.73c2.73 0 5.434-.101 8.13-.246-55.114-3.675-98.68-49.53-98.68-105.578zm0 0" fill="#333a41"/><path d="M195.14 150.07c3.169 32.496 23.673 51.746 48.098 70.493 37.246 28.57 82.754 52.632 85.32 104.257 8.434-18.586 13.126-39.23 13.126-60.968V121.73c0-17.156-3.782-33.433-10.567-48.03-14.246-10.68-31.937-17.009-51.11-17.009-49.679 0-89.655 44.274-84.866 93.38zm0 0" fill="#e8e8e8"/><path d="M452.117 121.145c-31.758-29.188-74.926-47.446-121-47.446 5.856 52.696-21.625 68.91-28.328 94.239l34.848 24.566 63.363 10zm0 0" fill="#ff8f71"/><path d="M401 178.855v23.649l44.484 7.016 54.457 24.113c2.293.8 4.68-.969 4.598-3.395-1.547-42.183-21.605-80.785-52.422-109.093-28.805 3.46-51.117 27.976-51.117 57.71zm0 0" fill="#4a5660"/><path d="M301.332 178.531c-.254 24.7 20.855 44.266 45.527 43.223 96.36-4.063 139.786 7.289 153.082 11.879-75.457-79.68-197.152-65.696-197.152-65.696a42.425 42.425 0 0 0-1.457 10.594zm0 0" fill="#f75747"/><path d="M255.676 152.004h17.91a7.5 7.5 0 0 0 7.5-7.5 7.5 7.5 0 0 0-7.5-7.504h-17.91a7.503 7.503 0 0 0 0 15.004zm0 0" fill="#ff8997"/><path d="m9.313 360.953 91.894-131.078c18.211-25.977 52.902-34.336 80.95-19.512 34.644 18.317 44.421 63.586 20.187 94.383-33.34 42.367-92.047 87.406-186.285 72.125-7.434-1.203-11.07-9.75-6.747-15.918zm0 0" fill="#4a5660"/><path d="M46.063 376.871c-7.434-1.203-11.07-9.75-6.747-15.918l91.895-131.078c9.05-12.91 22.176-21.465 36.535-24.988-24.7-6.075-51.351 3.324-66.539 24.988L9.313 360.953c-4.325 6.168-.688 14.715 6.746 15.918 18.46 2.996 35.55 3.664 51.363 2.5a237.466 237.466 0 0 1-21.36-2.5zm0 0" fill="#3d4851"/><path d="M282.2 105.977v14.16a7.5 7.5 0 0 1-7.505 7.5 7.5 7.5 0 0 1-7.5-7.5v-14.16a7.5 7.5 0 0 1 7.5-7.5 7.5 7.5 0 0 1 7.504 7.5zm0 0"/><path d="M497.45 240.742c7.132 2.453 14.82-3.183 14.542-10.738-1.566-42.707-21.043-83.313-54.84-114.363-33.011-30.34-77.007-48.176-121.375-49.36a121.197 121.197 0 0 0-22.304-30.62C290.48 12.663 259.906 0 227.39 0c-67.133 0-121.75 54.617-121.75 121.75v91.86a70.227 70.227 0 0 0-10.621 11.976l-48.676 69.43a7.499 7.499 0 0 0 1.836 10.445 7.5 7.5 0 0 0 10.449-1.836l48.676-69.426c21.148-30.172 67.5-30.949 89.68-1.558 14.93 19.78 14.753 48-.583 67.48-23.918 30.399-56.25 54.637-93.668 65.43-26.304 7.554-54.957 8.89-85.52 3.933-1.929-.312-2.952-2.574-1.804-4.207l26.184-37.351a7.498 7.498 0 0 0-1.836-10.446 7.5 7.5 0 0 0-10.45 1.836L3.126 356.664c-7.379 10.524-.969 25.578 11.688 27.629 13.285 2.152 25.906 3.145 37.851 3.148 13.266 0 25.715-1.226 37.395-3.437l-69.926 91.914c-7.086 9.32-1.813 23.328 9.703 25.562 28.781 5.586 59.144-3.804 79.883-24.503 16.39-16.364 25.703-38.02 26.21-60.977.04-1.84.02-3.684-.054-5.527a113.183 113.183 0 0 0 40.715 8.574v15.7h-2.606c-22.535 0-40.867 18.331-40.867 40.866 0 12.496 10.168 22.664 22.668 22.664 10.969 0 20.145-7.832 22.223-18.195h65.75c2.082 10.367 11.258 18.195 22.226 18.195 12.496 0 22.668-10.168 22.668-22.664 0-22.535-18.332-40.867-40.867-40.867h-25.86v-18.16c24.813-4.484 48.032-14.961 68.243-30.957a7.503 7.503 0 0 0 1.227-10.54 7.498 7.498 0 0 0-10.536-1.226c-19.675 15.57-42.504 25.356-66.89 28.809-11.524 1.648-23.262 1.41-34.762 1.41a98.151 98.151 0 0 1-51.941-14.84c-5.176-3.21-10.012-6.933-14.504-11.047 3.457-1.12 13.73-5.058 15.343-5.75 32.668-14.011 65.563-38.879 84.547-69.398 23.258-37.379 5.118-88.485-36.175-103.328a70.333 70.333 0 0 0-55.829 3.558V121.75C120.648 62.887 168.535 15 227.395 15c28.507 0 55.312 11.105 75.476 31.27a106.695 106.695 0 0 1 7.16 7.898c-9.636-3.305-19.879-4.961-30.062-4.961-53.278 0-97.504 48.516-92.332 101.61 4.035 41.449 37.261 66.023 68.504 88.64 19.644 14.223 40.714 28.621 53.613 49.715 6.336 10.367 10.281 22.14 11.144 34.273a140.369 140.369 0 0 1-19.687 30.684 7.503 7.503 0 0 0 .906 10.57 7.503 7.503 0 0 0 10.57-.906c9.196-10.918 16.82-22.98 22.665-35.856 9.152-20.171 13.793-41.726 13.793-64.066v-34.687c12.77-.512 25.18-.774 36.918-.774 68.292 0 100.644 8.621 111.386 12.332zM184.09 449.75c4.14 0 7.5-3.36 7.5-7.504v-23.16s11.035-.18 15.328-.531v23.691a7.504 7.504 0 0 0 7.504 7.504h33.36c14.261 0 25.863 11.602 25.863 25.863 0 4.223-3.438 7.664-7.665 7.664-4.226 0-7.664-3.441-7.664-7.664 0-5.808-4.726-10.535-10.535-10.535h-73.8c-5.81 0-10.536 4.727-10.536 10.535 0 4.223-3.437 7.664-7.664 7.664-4.222 0-7.664-3.441-7.664-7.664 0-14.261 11.602-25.863 25.863-25.863zM32.074 485.004 103.97 390.5c4.82 4.281 15.879 11.805 16.07 11.926.691 4.383.988 8.824.89 13.242-.421 19.07-8.167 37.074-21.812 50.691C81.82 483.625 56.703 491.41 32.68 486.75a1.005 1.005 0 0 1-.754-.652 1.151 1.151 0 0 1 .148-1.094zM386.06 213.406c-12.563 0-25.875.293-39.559.871-19.977.84-37.906-15.48-37.71-35.629.01-1.23.1-2.457.241-3.68 3.598-.226 8.844-.452 15.364-.452 26.12 0 52.382 3.351 77.539 10.453 24.23 6.836 47.546 17.363 67.925 32.246 1.043.765 2.067 1.547 3.094 2.328-19.121-3.238-47.289-6.137-86.894-6.137zM323.94 77.828c.051.613.094 1.219.137 1.82.723 10.059.219 20.262-2.265 30.059-6.93 27.34-33.711 49.383-26.915 79.711.008.027.012.055.02.082 4.316 19.254 19.937 34.559 39.219 38.664v35.707c0 10.777-.782 22.356-3.852 32.738-3.258-6.828-6.355-13.644-10.652-19.851-12.79-18.469-30.988-32.176-48.938-45.27-13.199-9.629-26.672-18.972-38.824-29.933-16.422-14.817-28.348-32.817-29.55-55.43-2.13-40.035 29.835-77.156 69.609-81.477 18.207-1.98 36.933 2.809 52.011 13.18zm112.07 39.594c-8.472 3.183-16.277 8.187-22.761 14.492-6.418 6.238-11.52 13.832-14.906 22.117a65.737 65.737 0 0 0-3.895 13.5c-27.691-6.531-52.847-8.023-70.011-8.023-3.93 0-7.41.078-10.41.191.03-.054.054-.11.081-.164 7.715-15.16 17.848-29.191 22.137-45.887 2.613-10.171 3.45-20.773 3.012-31.253-.016-.325-.024-.645-.04-.973 34.743 1.738 69.02 14.531 96.794 36zm60.126 101.98c-12.121-11.187-25.813-20.867-40.196-28.73-14.855-8.121-30.671-14.488-46.902-19.274a50.277 50.277 0 0 1 6.832-18.73c5.613-9.176 14.129-16.559 24.086-20.656a49.214 49.214 0 0 1 9.66-2.867c26.313 25.195 42.547 56.796 46.52 90.257zm0 0"/></svg>