<svg height="511pt" viewBox="-7 0 511 511.999" width="511pt" xmlns="http://www.w3.org/2000/svg"><path d="M40.633 7.762a8.886 8.886 0 0 0-9.051 2.996c-4.762 5.84-12.895 17.168-16.3 30.066l69.84 40.207 26.37-27.773S80.56 17.778 40.632 7.762zM456.566 7.762a8.886 8.886 0 0 1 9.051 2.996c4.762 5.84 12.895 17.168 16.297 30.066l-69.836 40.207-26.371-27.773s30.934-35.48 70.86-45.496zm0 0" fill="#77889a"/><path d="m85.121 81.031-16.797 17.7C16.484 86.116 9.836 61.464 15.285 40.823c3.14-.39 6.367-.594 9.66-.594 30.852 0 56.32 17.786 60.176 40.801zM412.078 81.031l16.797 17.7c51.84-12.614 58.488-37.266 53.04-57.907a78.276 78.276 0 0 0-9.661-.594c-30.852 0-56.32 17.786-60.176 40.801zm0 0" fill="#ffbfc5"/><path d="M406.082 426.176c0-43.262-70.508-78.336-157.48-78.336-86.977 0-157.485 35.074-157.485 78.336s70.508 78.332 157.485 78.332c86.972 0 157.48-35.07 157.48-78.332zm0 0" fill="#ffa0ab"/><path d="M456.336 187.77c0-98.899-93.008-179.07-207.738-179.07S40.863 88.87 40.863 187.77v69.363h415.473zm0 0" fill="#a5b0bc"/><path d="M263.602 9.168a244.414 244.414 0 0 0-15-.469c-114.73 0-207.739 80.172-207.739 179.07v69.364h30V187.77c0-94.547 85.012-171.977 192.739-178.602zm0 0" fill="#77889a"/><path d="M61.184 394.023v57.067c0 13.375 10.843 24.219 24.222 24.219h30.215c13.379 0 24.223-10.844 24.223-24.22v-57.066zm0 0" fill="#e8e8e8"/><path d="M91.184 451.09v-57.067h-30v57.067c0 13.375 10.843 24.219 24.222 24.219h30c-13.375 0-24.222-10.844-24.222-24.22zm0 0" fill="#d2d1d7"/><path d="M436.016 394.023v57.067c0 13.375-10.844 24.219-24.223 24.219h-30.219c-13.375 0-24.219-10.844-24.219-24.22v-57.066zm0 0" fill="#e8e8e8"/><path d="M387.355 451.09v-57.067h-30v57.067c0 13.375 10.844 24.219 24.223 24.219h30c-13.379 0-24.223-10.844-24.223-24.22zm0 0" fill="#d2d1d7"/><path d="M248.602 173.969c30.378 0 60.91 2.336 90.664 8.668 52.66 11.207 105.843 36.695 134.164 84.57 28.5 48.18 17.75 108.324-26.38 144.652-44.593 36.707-109.202 41.348-160.019 12.883-13.066-7.316-23.781-13.664-38.43-13.664-14.652 0-25.367 6.348-38.433 13.664-50.813 28.465-115.426 23.824-160.02-12.883C6.02 375.531-4.73 315.387 23.77 267.207c28.32-47.875 81.507-73.363 134.164-84.57 29.754-6.332 60.285-8.668 90.668-8.668zm0 0" fill="#ffbfc5"/><path d="M80.152 411.86C36.023 375.53 25.27 315.386 53.77 267.206c28.32-47.875 81.507-73.363 134.164-84.57 24.859-5.29 50.261-7.785 75.668-8.465a565.334 565.334 0 0 0-15-.203c-30.383 0-60.915 2.336-90.668 8.668-52.657 11.207-105.844 36.695-134.164 84.57-28.5 48.18-17.75 108.324 26.378 144.652 29.278 24.098 67.176 34.375 104.137 30.54-26.824-2.754-52.777-12.962-74.133-30.54zm0 0" fill="#ffa0ab"/><path d="M133.07 301.613a73.593 73.593 0 0 0-3.437-3.218c-42.485-37.247-92.664 12.93-55.414 55.414a69.761 69.761 0 0 0 3.219 3.437c19.203 19.203 46.203 24.598 66.097 14.934a9.689 9.689 0 0 0 4.465-4.47c9.668-19.894 4.27-46.894-14.93-66.097zM364.133 301.613a71.614 71.614 0 0 1 3.433-3.218c42.485-37.247 92.664 12.93 55.414 55.414a71.597 71.597 0 0 1-3.214 3.437c-19.207 19.203-46.204 24.598-66.102 14.934a9.689 9.689 0 0 1-4.465-4.47c-9.668-19.894-4.27-46.894 14.934-66.097zm0 0" fill="#333a41"/><path d="M57.68 303.984c-7.914 17.461-3.832 37.934 10.922 54.762 18.824 21.469 51.3 33.254 78.234 20.172a17.254 17.254 0 0 0 7.937-7.938c11.223-23.101 4.489-53.812-16.375-74.68-10.656-10.652-24.695-18.445-40.066-18.445-17.504 0-33.457 10.254-40.652 26.13zm13.664 6.192c4.765-10.524 15.36-17.32 26.988-17.32 11.352 0 21.645 6.242 29.457 14.054 16.418 16.418 21.969 40.07 13.492 57.516-.207.43-.574.793-1 1-19.48 9.472-43.023 1.004-57.515-13.489-10.825-10.828-18.204-26.796-11.422-41.761zM350.41 378.918c25.23 12.258 55.672 2.633 74.684-16.379 15.23-15.234 23.836-37.902 14.476-58.555-7.195-15.875-23.152-26.129-40.652-26.129-15.313 0-29.453 7.832-40.066 18.446-20.864 20.867-27.598 51.578-16.375 74.68a17.227 17.227 0 0 0 7.933 7.937zm19.047-72.008c7.828-7.824 18.094-14.055 29.461-14.055 11.625 0 22.219 6.797 26.988 17.32 6.703 14.794-.715 31.052-11.422 41.759-14.504 14.504-38.035 22.953-57.515 13.492a2.213 2.213 0 0 1-1-1c-8.477-17.446-2.93-41.098 13.488-57.516zM126 137.098v21.144c0 4.145 3.355 7.5 7.5 7.5a7.5 7.5 0 0 0 7.5-7.5v-21.144a7.5 7.5 0 0 0-7.5-7.5 7.497 7.497 0 0 0-7.5 7.5zM371.25 158.242v-21.148a7.5 7.5 0 1 0-15 0v21.148a7.5 7.5 0 1 0 15 0zm0 0"/><path d="M33.387 241.152a151.547 151.547 0 0 0-16.047 22.23C2.617 288.267-2.7 317.364 2.367 345.31c5.79 31.91 25.008 60.058 51.344 78.66v27.113c0 17.488 14.23 31.719 31.719 31.719h30.218c2.391 0 4.715-.274 6.957-.778C153.84 501.105 199.508 512 248.625 512s94.785-10.895 126.02-29.977c2.242.504 4.566.778 6.957.778h30.218c17.489 0 31.72-14.23 31.72-31.719v-27.125c26.378-18.637 45.542-46.676 51.343-78.648 6.863-37.864-6.156-75.477-31.02-104.125v-53.422c0-29.98-8.21-58.797-23.234-84.48 21.945-6.739 36.898-16.602 44.516-29.395 6.105-10.254 7.468-22.024 4.05-34.985-3.789-14.347-12.742-26.765-17.742-32.894-3.969-4.856-10.61-7.055-16.687-5.531-32.88 8.253-59.45 32.214-69.914 42.78-11.11-7.855-23.223-14.827-36.243-20.753a7.5 7.5 0 0 0-9.937 3.719 7.503 7.503 0 0 0 3.719 9.933c32.859 14.957 59.347 37.84 80.449 66.965 16.773 25.336 26.023 54.36 26.023 84.645v38.285c-.066-.059-.136-.117-.203-.176-30.18-26.68-68.773-42.273-107.805-50.578-27.933-5.945-58.097-8.836-92.23-8.836-46.582 0-94.184 5.266-137.816 22.383-3.743 1.468-5.676 5.828-4.29 9.582 1.43 3.844 5.938 5.886 9.77 4.383 41.895-16.454 87.625-21.348 132.336-21.348 33.07 0 62.215 2.785 89.11 8.508 71.046 15.117 157.82 67.535 142.386 152.664-5.3 29.238-23.617 54.73-48.156 71.066-.024.016-.05.028-.074.043-36.426 24.516-84.727 28.254-125.223 12.055-.152-.063-.305-.121-.461-.184-18.906-7.648-36.043-22.043-57.582-22.043-17.254 0-31.176 9.032-45.95 16.7-42.902 22.273-96.882 20.355-137.312-6.528-.09-.058-.187-.101-.281-.16-24.816-15.004-42.82-42.645-47.95-70.95-4.425-24.398.235-49.831 13.118-71.612 14.184-23.973 35.926-42.793 60.164-56.141 3.816-2.098 5.023-7.262 2.55-10.84a7.495 7.495 0 0 0-9.78-2.305C70.922 208.48 58.98 216.66 48.39 226.047v-38.281c0-94.606 89.824-171.575 200.234-171.575 23.36 0 46.254 3.426 68.059 10.184a7.499 7.499 0 0 0 9.382-4.945 7.503 7.503 0 0 0-4.945-9.387c-23.238-7.2-47.629-10.852-72.496-10.852-50.234 0-97.867 14.825-136.207 42.07C101.973 32.7 75.461 8.755 42.484.478c-6.02-1.508-12.68.625-16.687 5.53-5 6.126-13.953 18.544-17.742 32.9C4.637 51.862 6 63.632 12.105 73.886c7.614 12.785 22.555 22.648 44.48 29.383-15.167 25.847-23.198 54.625-23.198 84.492zM472.254 66.215c-6.094 10.238-19.578 18.273-40.106 23.918a186.082 186.082 0 0 0-10.93-13.973c-.37-.43 2.048-4.344 2.337-4.828 3.93-6.605 9.953-11.848 16.61-15.59 9.722-5.469 21.003-8.02 32.112-8.02 1.149 0 2.293.04 3.434.09.937 6.891-.207 12.946-3.457 18.403zm-13.836-51.188a1.39 1.39 0 0 1 1.414.47c2.965 3.632 7.566 9.847 11.11 17.233-.348.008-.696.024-1.044.036-12.437.351-24.867 3.406-35.832 9.34-9.668 5.234-18.285 12.761-23.8 22.355-4.23-4.16-8.68-8.168-13.348-12.008 10.281-10.055 33.82-30.48 61.5-37.426zM85.43 467.801c-9.22 0-16.72-7.5-16.72-16.719V433.23c19.638 10.52 41.466 16.352 63.661 17.34v.512c0 9-7.734 16.719-16.723 16.719zm343.11-16.719c0 9.219-7.5 16.719-16.724 16.719h-30.214c-9.442 0-16.723-7.973-16.723-17.227a150.729 150.729 0 0 0 40.941-7.582c5.2-1.734 20.305-8.46 22.72-9.754zM248.624 418.57c21.121 0 39.27 16.645 58.559 23.442a153.121 153.121 0 0 0 42.695 8.476c-.016 0 .031 2.035.039 2.2.395 7.75 3.773 15.332 9.293 20.851C330.652 488.535 291.152 497 248.625 497s-82.031-8.465-110.586-23.46c5.535-5.536 8.89-13.036 9.29-20.852.038-.731.042-1.461.042-2.196a152.98 152.98 0 0 0 50.473-11.457c15.894-6.597 30.808-19.445 48.539-20.406a42.84 42.84 0 0 1 2.242-.059zM37.418 15.496a1.386 1.386 0 0 1 1.414-.469c27.719 6.957 51.277 27.426 61.535 37.461-1.187.98-10.203 8.93-13.351 12.024a48.632 48.632 0 0 0-1.008-1.672l-.028-.05C75.258 45.94 55.895 36.163 36.508 33.515a86.503 86.503 0 0 0-10.2-.782c3.54-7.39 8.145-13.605 11.11-17.238zM24.996 66.215c-3.25-5.457-4.394-11.512-3.46-18.402.124-.004.25-.012.374-.016 10.77-.504 21.79 1.469 31.559 6.078 9.742 4.598 18.574 12.07 22.57 22.316a187.507 187.507 0 0 0-10.937 13.946C44.574 84.488 31.09 76.453 24.996 66.215zm0 0"/></svg>