<svg height="512pt" viewBox="-41 0 511 512" width="512pt" xmlns="http://www.w3.org/2000/svg"><path d="M186.516 30.203h56.394v86.55h-56.394zm0 0" fill="#4a5660"/><path d="M186.516 30.203h30v86.547h-30zm0 0" fill="#3d4851"/><path d="M421.43 297.785c0 114.164-92.551 206.715-206.715 206.715S8 411.95 8 297.785C8 183.621 100.55 91.07 214.715 91.07c114.164 0 206.715 92.551 206.715 206.715zm0 0" fill="#a5b0bc"/><path d="M214.715 463.41c-91.324 0-165.625-74.3-165.625-165.625 0-91.324 74.297-165.625 165.625-165.625 91.324 0 165.625 74.3 165.625 165.625 0 91.324-74.3 165.625-165.625 165.625zm0 0" fill="#76e5e6"/><path d="M79.09 297.785c0-86.27 66.305-157.332 150.625-164.937a167.02 167.02 0 0 0-15-.688c-91.324 0-165.625 74.3-165.625 165.625 0 91.324 74.3 165.625 165.625 165.625 5.058 0 10.058-.242 15-.687-84.32-7.606-150.625-78.668-150.625-164.938zm0 0" fill="#00bcb9"/><path d="m278.992 230.277-83.844 31.641a27.986 27.986 0 0 0-16.3 16.3l-31.641 83.844c-.762 2.02 1.211 3.993 3.23 3.231l83.844-31.645a27.952 27.952 0 0 0 16.297-16.296l31.645-83.844c.761-2.02-1.211-3.992-3.23-3.23zm0 0" fill="#fa695b"/><g fill="#e8e8e8"><path d="M227.992 297.785c0 7.332-5.945 13.277-13.277 13.277-7.332 0-13.278-5.945-13.278-13.277 0-7.332 5.946-13.277 13.278-13.277 7.332 0 13.277 5.945 13.277 13.277zM214.715 132.16c-5.195 0-10.336.254-15.41.723v39.496c0 8.512 6.898 15.41 15.41 15.41 8.508 0 15.406-6.898 15.406-15.41v-39.496a167.399 167.399 0 0 0-15.406-.723zM379.617 282.375h-39.496c-8.512 0-15.41 6.898-15.41 15.41s6.898 15.41 15.41 15.41h39.496c.469-5.078.723-10.215.723-15.41s-.254-10.336-.723-15.41zM214.715 407.781c-8.512 0-15.41 6.899-15.41 15.41v39.497c5.078.468 10.215.722 15.41.722s10.336-.254 15.41-.723v-39.496c0-8.511-6.898-15.41-15.41-15.41zM89.309 282.375H49.813a167.549 167.549 0 0 0-.723 15.41c0 5.195.254 10.332.722 15.41H89.31c8.511 0 15.41-6.898 15.41-15.41s-6.899-15.41-15.41-15.41zm0 0"/></g><path d="M207.773 132.316c-2.828.13-5.652.305-8.468.567v5.625a164.472 164.472 0 0 1 30.394-5.656c-6.304-.57-12.652-.801-18.98-.641-.985.023-1.965.062-2.946.105zM220.324 463.313c2.64-.094 5.278-.258 7.91-.473.489-.04.977-.074 1.461-.121a164.37 164.37 0 0 1-30.39-5.656v5.62a.175.175 0 0 0 .043.005c2.511.171 5.007.414 7.523.53 4.48.204 8.969.25 13.453.094zM49.238 304.727c.121 2.828.317 5.652.575 8.468h29.996a167.553 167.553 0 0 1-.72-15.41c0-5.195.247-10.336.72-15.41 0 0-29.996 0-29.996.008a171.16 171.16 0 0 0-.31 3.793c0 .027-.003.054-.003.086a166.392 166.392 0 0 0-.262 18.465zm0 0" fill="#d2d1d7"/><path d="M243.84 7.5h-56.395c-12.539 0-24.558 10.164-24.558 22.703s12.02 22.703 24.558 22.703h56.395c12.539 0 22.703-10.164 22.703-22.703S256.379 7.5 243.84 7.5zm0 0" fill="#a5b0bc"/><path d="M192.887 30.203c0-12.539 12.02-22.703 24.558-22.703h-30c-12.539 0-24.558 10.164-24.558 22.703s12.02 22.703 24.558 22.703h30c-12.539 0-24.558-10.164-24.558-22.703zm0 0" fill="#77889a"/><path d="M149.54 372.941a9.816 9.816 0 0 0 3.546-.632l83.844-31.641A35.5 35.5 0 0 0 257.598 320s31.543-83.574 31.64-83.844c2.992-7.922-4.992-15.879-12.89-12.894l-83.848 31.64a35.51 35.51 0 0 0-20.668 20.668l-31.64 83.844a9.998 9.998 0 0 0 1.12 9.215c1.891 2.738 5.02 4.297 8.227 4.312zm36.327-92.074a20.46 20.46 0 0 1 11.93-11.93l73.508-27.742-27.743 73.508a20.481 20.481 0 0 1-11.93 11.93l-73.51 27.742zm0 0"/><path d="M214.715 277.008c-11.457 0-20.778 9.32-20.778 20.777s9.32 20.778 20.778 20.778c11.457 0 20.777-9.32 20.777-20.778 0-11.457-9.32-20.777-20.777-20.777zm0 26.555c-3.188 0-5.778-2.594-5.778-5.778s2.594-5.777 5.778-5.777 5.777 2.59 5.777 5.777-2.59 5.777-5.777 5.777zm0 0"/><path d="M106.05 422.895a7.493 7.493 0 0 0 1.212 10.535c34.449 27.347 79.691 41.11 123.558 36.722 83.973-7.78 150.739-75.785 156.59-160.293.004-.035.004-.07.008-.105.559-8.027 0-15.922 0-23.934-.004-.035-.004-.074-.008-.11-5.851-84.507-72.617-152.51-156.613-160.296a175.436 175.436 0 0 0-32.188.004c-83.972 7.781-150.742 75.781-156.59 160.293-.003.035-.003.07-.007.105-.649 9.329-.586 18.723.332 28.032 0 .015 0 .027.004.058 3.39 36.16 18.113 70.485 42.316 98.024a7.495 7.495 0 0 0 10.582.683 7.495 7.495 0 0 0 .684-10.582 157.94 157.94 0 0 1-37.657-81.336H89.31c12.629 0 22.91-10.277 22.91-22.91 0-12.633-10.278-22.91-22.91-22.91H58.258c10.039-68.89 64.656-123.508 133.547-133.55v31.054c0 12.633 10.277 22.91 22.91 22.91 12.633 0 22.91-10.277 22.91-22.91v-31.055c68.887 10.043 123.508 64.66 133.55 133.551h-31.054c-12.633 0-22.91 10.277-22.91 22.91 0 12.63 10.277 22.906 22.91 22.906h31.055c-10.043 68.891-64.66 123.508-133.551 133.551v-31.05c0-12.633-10.277-22.91-22.91-22.91-12.633 0-22.91 10.277-22.91 22.91v31.081c-27.414-3.953-53.078-15.02-75.22-32.593a7.497 7.497 0 0 0-10.534 1.215zm-49.257-133.02h32.516c4.363 0 7.91 3.547 7.91 7.91 0 4.363-3.547 7.91-7.91 7.91H56.797c-.004-.043-.008-.082-.008-.125a161.802 161.802 0 0 1 .004-15.695zm165.832-117.496c0 4.36-3.55 7.91-7.91 7.91s-7.91-3.55-7.91-7.91v-32.516c5.32-.27 10.5-.27 15.82 0zm150.012 133.316H340.12c-4.363 0-7.91-3.55-7.91-7.91s3.547-7.91 7.91-7.91h32.516c.265 5.27.265 10.55 0 15.82zM206.805 455.707v-32.516c0-4.363 3.55-7.91 7.91-7.91s7.91 3.547 7.91 7.91v32.516c-.09 1.043-15.82-.168-15.82 0zm0 0"/><path d="M63.242 146.313C22.782 186.773.5 240.565.5 297.784s22.281 111.012 62.742 151.473C103.703 489.718 157.496 512 214.715 512s111.012-22.281 151.472-62.742c40.461-40.461 62.743-94.254 62.743-151.473 0-55.351-21.043-107.875-59.25-147.898a7.503 7.503 0 0 0-10.606-.246 7.498 7.498 0 0 0-.246 10.601c35.531 37.223 55.102 86.067 55.102 137.543C413.93 407.633 324.562 497 214.715 497S15.5 407.633 15.5 297.785c0-100.863 75.352-184.45 172.715-197.45 17.808-2.35 35.883-2.347 53.683.087.149.02.293.02.438.031 34.719 4.762 67.234 18.527 95.262 40.52a7.5 7.5 0 0 0 9.258-11.8c-28.52-22.384-61.364-36.849-96.446-42.68V59.675c13.504-3.008 23.633-15.078 23.633-29.473C274.043 13.551 260.496 0 243.84 0h-56.395c-17.078 0-32.058 14.113-32.058 30.203 0 13.363 10.34 25.36 23.629 29.04v27.28c-43.645 7.282-83.86 27.872-115.774 59.79zm107.145-116.11c0-7.957 8.129-15.203 17.058-15.203h56.399c8.383 0 15.203 6.82 15.203 15.203s-6.82 15.203-15.203 15.203h-56.399c-8.93 0-17.058-7.246-17.058-15.203zm23.629 30.203h41.398v24.145c-5.129-.485-10.3-.793-15.504-.914-.008 0-.015 0-.027-.004a217.854 217.854 0 0 0-25.863.922V60.406zm0 0"/></svg>