<svg height="511pt" viewBox="0 -22 512 511" width="511pt" xmlns="http://www.w3.org/2000/svg"><path d="M149.016 364.945c10.039-3.87 18.144-14.445 18.261-25.222.137-12.692 10.536-22.868 23.227-22.727 12.691.137 22.867 10.535 22.73 23.227-.132 11.933-9.441 26.011-17.77 34.14-10.003 9.766-23.421 15.836-37.116 18.16-8.942 1.52-18.047-3.152-18.676-13.082-.41-6.488 3.504-12.25 9.266-14.468 0 0 .074-.024.078-.028zM362.984 364.945c-10.039-3.87-18.144-14.445-18.261-25.222-.137-12.692-10.54-22.868-23.227-22.727-12.691.137-22.867 10.535-22.73 23.227.129 11.933 9.441 26.011 17.77 34.14 10.003 9.766 23.421 15.836 37.116 18.16 8.942 1.52 18.047-3.152 18.676-13.082.41-6.488-3.504-12.25-9.265-14.468 0 0-.075-.024-.079-.028zm0 0" fill="#e8e8e8"/><path d="M169.906 37.188C68.707-23.087-36.44 21.12 26.586 151.96c23.004 51.976-32.371 174.973 91.8 128.11zm0 0" fill="#77889a"/><path d="M169.906 37.188c-8.066-4.805-16.156-8.942-24.187-12.43C115.62 51.34 96.339 87.37 91.055 127.39c-1.336 10.066-3.485 19.89-6.395 29.21-5.312 17.02-8.043 34.747-8.125 52.692-.12 27.144 6.063 53.996 17.762 78.336 7.168-1.703 15.16-4.188 24.086-7.559zm0 0" fill="#5f7080"/><path d="M342.094 37.188C443.293-23.087 548.44 21.12 485.41 151.96c-23 51.976 32.375 174.973-91.797 128.11zm0 0" fill="#77889a"/><path d="M420.945 127.395c-5.285-40.024-24.562-76.051-54.664-102.637-8.031 3.484-16.12 7.625-24.187 12.43l51.52 242.886c9.019 3.403 17.085 5.903 24.308 7.606 11.547-23.97 17.543-50.243 17.543-77.575 0-18.718-2.88-37.18-8.559-54.882-2.605-8.094-4.554-17.2-5.96-27.828zm0 0" fill="#5f7080"/><path d="M151.566 67.984c-21.136-12.59-47.597-21.593-69.203-21.593-12.152 0-22.765 2.847-30.043 9.507-14 12.817-11.547 42.91 6.563 80.504l.25.524.234.527c10.14 22.922 9.844 49.512 9.559 75.227-.063 5.57.398 15.23.953 23.89.68 10.54 8.918 19.016 19.433 19.973 19.376 1.77 49.16 3.508 61.223-1.047zM360.434 67.984c21.136-12.59 47.597-21.593 69.203-21.593 12.152 0 22.765 2.847 30.039 9.507 14.004 12.817 11.55 42.91-6.559 80.504l-.25.524-.234.527c-10.145 22.922-9.844 49.512-9.559 75.227.063 5.57-.398 15.23-.957 23.89-.676 10.54-8.914 19.016-19.43 19.973-19.374 1.77-49.16 3.508-61.222-1.047zm0 0" fill="#ffbfc5"/><path d="m150.535 255.496 1.031-187.512c-9.738-5.8-20.605-10.82-31.605-14.57-15.367 21.715-25.336 46.934-28.906 73.977-1.336 10.066-3.485 19.89-6.395 29.21-5.312 17.02-8.043 34.747-8.125 52.692-.07 15.336 1.88 30.582 5.692 45.332a21.3 21.3 0 0 0 7.085 1.914c19.376 1.774 49.16 3.508 61.223-1.043zM420.945 127.395c-3.57-27.043-13.539-52.262-28.906-73.98-11 3.75-21.867 8.769-31.601 14.57l1.027 187.511c12.062 4.55 41.848 2.813 61.223 1.047a21.48 21.48 0 0 0 7.285-2.004c3.636-14.344 5.492-29.223 5.492-44.434 0-18.718-2.875-37.18-8.555-54.882-2.61-8.094-4.558-17.2-5.965-27.828zm0 0" fill="#ff8997"/><path d="M344.723 339.723c-.137-12.692-10.54-22.868-23.227-22.727-12.691.137-22.867 10.535-22.73 23.227.129 11.933 9.441 26.011 17.77 34.14a59.497 59.497 0 0 0 3.698 3.313 180.292 180.292 0 0 0 34.504-17.778c-5.886-5.117-9.93-12.59-10.015-20.175zM213.234 340.223c.137-12.692-10.039-23.09-22.73-23.227-12.691-.14-23.09 10.035-23.227 22.727-.082 7.535-4.074 14.96-9.898 20.078a180.797 180.797 0 0 0 34.465 17.812 59.437 59.437 0 0 0 3.625-3.25c8.324-8.129 17.636-22.207 17.765-34.14zm0 0" fill="#d2d1d7"/><path d="M410.469 210.105c0-16.472-2.582-32.343-7.356-47.226-3.37-10.477-5.504-21.305-6.945-32.207-5.02-37.988-25.11-71.219-54.074-93.488a141.631 141.631 0 0 0-28.89-17.18C295.706 12.262 276.358 7.96 256 7.96s-39.707 4.3-57.2 12.043a141.554 141.554 0 0 0-28.894 17.18c-28.96 22.27-49.054 55.5-54.07 93.488-1.5 11.308-3.91 22.473-7.316 33.371a154.545 154.545 0 0 0-6.989 45.363c-.32 72.442 49.867 133.797 117.27 150.606 0 0 4 43.18-15.32 68.914-6.481 8.629-4.325 20.91 4.89 26.523l3.461 2.11c9.215 5.617 21.106 4.441 28.906-3.016 36.91-35.277 52.633-94.531 52.633-94.531 67.254-16.715 117.098-77.489 117.098-149.907zm0 0" fill="#a5b0bc"/><path d="M183.813 269.793c-4.141 0-7.5 3.355-7.5 7.496v15.762c0 4.144 3.359 7.5 7.5 7.5s7.5-3.356 7.5-7.5v-15.762c0-4.14-3.36-7.496-7.5-7.496zM328.27 269.793c-4.141 0-7.5 3.355-7.5 7.496v15.762c0 4.144 3.359 7.5 7.5 7.5s7.5-3.356 7.5-7.5v-15.762c0-4.14-3.36-7.496-7.5-7.496zm0 0"/><path d="M357.898 40.77c-.851-.793-1.71-1.583-2.586-2.36 21.282-11.273 43.008-18.074 63.372-19.789 22.12-1.86 41.12 2.36 54.957 12.195a7.5 7.5 0 0 0 10.457-1.765 7.5 7.5 0 0 0-1.766-10.457C449.039-5.074 394.625-1.18 342.637 28.27a149.042 149.042 0 0 0-26.36-15.086C297.257 4.766 276.992.5 256.04.5c-20.95 0-41.219 4.27-60.234 12.688a148.78 148.78 0 0 0-26.36 15.082c-28.61-16.188-58.941-25.067-85.918-25.067-32.394 0-57.953 12.277-71.957 34.57C-.89 57.61-9.57 94.066 19.816 155.137c6.286 14.312 6.043 36.058 5.813 57.09-.316 28.543-.645 58.058 15.285 74.171 7.645 7.73 18.328 11.653 31.774 11.657 11.667 0 25.542-2.86 42.242-8.7a161.697 161.697 0 0 0 13.996 20.903c8.953 11.332 19.37 21.379 30.863 29.906-.32 7.184-6.027 14.867-13.309 17.773-.066.024-.132.051-.203.075-9.011 3.476-14.656 12.293-14.047 21.941.868 13.715 14.454 22.195 27.415 20.004 15.937-2.707 30.535-9.875 41.101-20.191 3.953-3.86 7.742-8.575 10.899-13.47.289 11.88-.602 40.161-14.122 58.165-8.96 11.934-5.812 29.633 6.989 37.43l3.46 2.109c11.97 7.29 27.844 5.7 37.989-4 32.625-31.18 49.062-79.23 53.48-93.785.266-.074.528-.156.793-.23 3.192 5.007 7.067 9.84 11.102 13.78 11.402 11.133 29.383 20.579 45.668 20.579 12.492 0 22.101-8.578 22.848-20.39.609-9.65-5.036-18.466-14.051-21.942a4.622 4.622 0 0 0-.188-.067c-7.191-2.832-12.898-10.441-13.308-17.601 11.457-8.469 21.836-18.45 30.754-29.703a164.417 164.417 0 0 0 14.28-21.223c16.434 5.715 30.419 8.574 42.102 8.574 10.844 0 19.72-2.46 26.739-7.375 20.988-14.695 20.629-47.074 20.277-78.387-.234-21.035-.477-42.785 5.809-57.093 27.093-56.309 21.355-91.45 11.765-111.024-1.82-3.718-6.312-5.254-10.031-3.433a7.499 7.499 0 0 0-3.437 10.03c11.664 23.806 7.562 57.704-11.868 98.032-.035.07-.066.145-.101.219-7.649 17.289-7.387 40.75-7.133 63.437.305 27.422.621 55.778-13.883 65.934-10.015 7.012-27.965 6.188-53.422-2.426a158.87 158.87 0 0 0 4.301-10.703c4.777-.3 9.781-.683 14.95-1.156 14.28-1.305 25.312-12.64 26.234-26.957.32-4.953 1.054-17.25.972-24.457-.273-24.219-1.168-50.293 9.301-72.938 19.918-41.347 21.691-73.89 4.867-89.293-8.316-7.613-20.129-11.476-35.105-11.476-17.578 0-38.828 5.515-59.117 15.226a149.553 149.553 0 0 0-12.66-13.382zm2.426 331.21.18.067a6.985 6.985 0 0 1 4.379 6.957c-.317 5.039-5.567 6.906-9.934 6.164-12.965-2.2-24.73-7.93-33.137-16.133-2.406-2.351-4.742-5.098-6.84-8.004a161.018 161.018 0 0 0 23.923-11.71c3.3 9.964 11.34 18.765 21.43 22.66zM72.676 283.055c-9.406 0-16.305-2.356-21.098-7.203-11.527-11.66-11.234-37.993-10.953-63.457.25-22.688.512-46.145-7.14-63.434a3.737 3.737 0 0 0-.102-.219C12.727 105.855 9.488 69.282 24.27 45.75 35.434 27.984 56.477 18.2 83.53 18.2c22.793 0 48.465 7.124 73.23 20.214a150.253 150.253 0 0 0-14.616 15.012c-.208.242-.418.484-.625.726-20.286-9.71-41.536-15.226-59.114-15.226-14.976 0-26.789 3.86-35.11 11.476-16.823 15.403-15.05 47.946 4.868 89.29 2.52 5.23 4.242 10.906 5.57 16.546a7.496 7.496 0 0 0 9.016 5.582 7.497 7.497 0 0 0 5.582-9.015c-1.574-6.7-3.664-13.41-6.656-19.621-16.098-33.418-19.34-61.57-8.25-71.72 5.386-4.933 14.027-7.538 24.976-7.538 14.422 0 32.59 4.59 49.926 12.48-.016.024-.035.047-.05.074-8.383 12.579-14.954 26.485-19.192 41.102-5.168 17.82-6.129 36.484-11.684 54.266-6.539 20.922-8.789 43.293-6.437 65.093a160.443 160.443 0 0 0 4.07 22.918c-2.93-.218-5.933-.468-9-.75-6.875-.625-12.187-6.086-12.633-12.984-.64-9.96-.992-18.68-.941-23.324.11-9.461.215-19.239-.207-28.961-.18-4.137-3.672-7.356-7.82-7.164a7.497 7.497 0 0 0-7.164 7.816c.406 9.313.3 18.883.195 28.14-.082 7.208.652 19.505.972 24.454.918 14.32 11.954 25.656 26.235 26.96 5.234.477 10.3.868 15.125 1.169a160.343 160.343 0 0 0 4.285 10.637c-14.102 4.785-25.984 7.203-35.406 7.203zm117.594 85.98c-8.407 8.203-20.172 13.934-33.137 16.133-4.469.758-9.61-1.02-9.938-6.164a6.99 6.99 0 0 1 4.38-6.957c.066-.024.132-.047.179-.067 10.133-3.91 18.2-12.77 21.476-22.789a161.181 161.181 0 0 0 23.926 11.77c-2.105 2.934-4.46 5.703-6.886 8.074zm181.035-67.707c-14.973 18.895-34.47 33.836-56.34 43.453a145.8 145.8 0 0 1-23.36 7.989 7.495 7.495 0 0 0-5.464 5.46c-.762 2.782-16.27 58.176-50.54 90.926-5.3 5.07-13.597 5.828-19.824 2.035 0 0-3.457-2.105-3.46-2.109-5.387-3.281-6.532-10.645-2.797-15.617 20.324-27.07 17.136-70.125 16.808-73.906a7.497 7.497 0 0 0-5.668-6.79 145.103 145.103 0 0 1-28.52-10.402c-19.867-9.691-37.578-23.86-51.44-41.41-28.524-36.098-38.56-84.957-26.509-129.39 1.243-4.575 2.743-9.075 3.957-13.66 3.028-11.442 4.293-23.087 6.559-34.66l.047-.227c4.238-21.274 14.398-37.387 25.328-55.563 20.52-34.113 67.855-51.96 105.961-51.96 40.906 0 80.672 19.398 105.96 51.96 10.946 18.164 21.102 34.281 25.333 55.57.012.07.027.137.039.207 2.738 13.871 4.223 28.246 8.637 41.97 14.707 45.726 5.3 98.253-24.707 136.124zm83.351-239.863c11.086 10.148 7.848 38.3-8.254 71.722-11.699 24.286-11.078 53.18-10.785 79.614.055 4.644-.3 13.363-.941 23.324-.442 6.898-5.754 12.36-12.63 12.984-3.03.278-6.003.524-8.898.739A159.16 159.16 0 0 0 416 235.824c3.953-25.043 2.04-51.058-5.71-75.207-2.927-9.105-5.103-19.21-6.65-30.89-2.652-20.082-9.433-39.676-19.886-57.032a146.273 146.273 0 0 0-4-6.293c17.332-7.886 35.504-12.476 49.922-12.476 10.953 0 19.59 2.605 24.98 7.539zm0 0"/></svg>