<svg height="512pt" viewBox="0 -22 512 512" width="512pt" xmlns="http://www.w3.org/2000/svg"><path d="M156.258 337.102s-26.785 33.378-26.785 78.918c0 45.539 53.574 44.87 53.574 44.87h145.902s53.578.669 53.578-44.87c0-45.54-26.789-78.918-26.789-78.918l-96.39-24.215zm0 0" fill="#e8e8e8"/><path d="M159.473 416.02c0-45.54 26.785-78.918 26.785-78.918l87.586-20.575-14.496-3.64-103.09 24.215s-26.785 33.378-26.785 78.918c0 45.539 53.574 44.87 53.574 44.87h29.738c-3.95-.023-53.312-1.156-53.312-44.87zm0 0" fill="#d2d1d7"/><path d="M427.281 337.004c-1.293.07-2.582.101-3.89.101H88.609c-1.308 0-2.597-.03-3.89-.101L7.75 244.766c1.46-32.801 9.281-63.95 22.262-92.243l79.539-97.296a246.942 246.942 0 0 1 67.12-34.793h158.657a246.942 246.942 0 0 1 67.121 34.793l79.54 97.296c12.98 28.293 20.8 59.442 22.261 92.243zm0 0" fill="#f75747"/><path d="M44.355 288.633a80.749 80.749 0 0 1-6.855-32.63c0-3.769.078-7.507.25-11.237 1.46-32.801 9.277-63.95 22.258-92.243 17.82-38.867 45.37-72.34 79.543-97.3a246.93 246.93 0 0 1 67.12-34.79h-30a249.689 249.689 0 0 0-11.73 4.29 247.715 247.715 0 0 0-55.39 30.5l-79.543 97.3a246.701 246.701 0 0 0-17.996 56.102 249.127 249.127 0 0 0-4.262 36.14zm0 0" fill="#e73826"/><g fill="#e8e8e8"><path d="M335.324 20.434c-6.18 38.23-39.344 67.43-79.324 67.43s-73.145-29.2-79.324-67.43C201.586 12.047 228.262 7.5 256 7.5s54.414 4.547 79.324 12.934zM481.992 152.523a65.377 65.377 0 0 1-25.082 4.97c-36.242 0-65.629-29.388-65.629-65.63 0-13.57 4.117-26.18 11.168-36.64a249.525 249.525 0 0 1 29.27 25.058c20.765 20.77 37.875 45.2 50.273 72.242zM120.719 91.863c0 36.242-29.387 65.63-65.63 65.63a65.377 65.377 0 0 1-25.081-4.97c17.82-38.867 45.375-72.34 79.543-97.3 7.05 10.46 11.168 23.074 11.168 36.64zM324.668 202.195c0 37.922-30.746 68.668-68.668 68.668s-68.668-30.746-68.668-68.668c0-37.925 30.746-68.668 68.668-68.668s68.668 30.743 68.668 68.668zM88.012 315.555c0 7.48-1.153 14.68-3.293 21.449-20.86-.98-39.649-9.84-53.457-23.66C16.578 298.676 7.5 278.394 7.5 256.004c0-3.77.078-7.508.25-11.238 2.922-.36 5.898-.551 8.922-.551 39.398 0 71.34 31.941 71.34 71.34zm0 0"/></g><path d="M86.438 330.45a81.02 81.02 0 0 1-25.18-17.106c-14.68-14.668-23.758-34.95-23.758-57.34 0-2.899.063-5.774.164-8.645a71.27 71.27 0 0 0-20.992-3.144c-3.024 0-6 .191-8.922.55-.172 3.731-.25 7.47-.25 11.239 0 14.45 4.086 29.45 11.742 42.05 13.824 22.743 38.89 37.7 65.477 38.95a70.16 70.16 0 0 0 1.719-6.555zM30.012 152.523c7.726 3.204 16.199 4.97 25.078 4.97.918 0 1.832-.032 2.742-.067.711-1.645 1.434-3.278 2.176-4.903 13.89-30.296 33.695-57.312 57.937-79.578a65.393 65.393 0 0 0-8.394-17.722C80.727 76.28 56.508 103.566 39.062 134.71a246.499 246.499 0 0 0-9.05 17.812zM179.297 31.512a247.362 247.362 0 0 1 27.375-11.078c20.39-6.864 41.96-11.153 64.324-12.485C269.66 7.871 259.66 7.5 256 7.5c-16.98 0-33.965 1.715-50.594 5.156a246.828 246.828 0 0 0-28.734 7.778 80.1 80.1 0 0 0 2.625 11.078zm0 0" fill="#d2d1d7"/><path d="M504.5 256.004c0 43.473-34.23 78.98-77.219 81a70.994 70.994 0 0 1-3.293-21.45c0-39.398 31.942-71.34 71.34-71.34 3.024 0 6 .192 8.922.552.172 3.73.25 7.468.25 11.238zm0 0" fill="#e8e8e8"/><path d="M193.758 378.832a7.5 7.5 0 0 0-7.5 7.5v11.266c0 4.14 3.36 7.5 7.5 7.5 4.14 0 7.5-3.36 7.5-7.5v-11.266a7.5 7.5 0 0 0-7.5-7.5zM318.242 405.098c4.14 0 7.5-3.36 7.5-7.5v-11.266c0-4.14-3.36-7.5-7.5-7.5-4.14 0-7.5 3.36-7.5 7.5v11.266c0 4.14 3.36 7.5 7.5 7.5zM276.297 391.164a7.5 7.5 0 0 0-10.582.711c-2.352 2.691-5.895 4.234-9.715 4.234s-7.363-1.543-9.715-4.234a7.5 7.5 0 0 0-10.582-.71 7.497 7.497 0 0 0-.71 10.581c5.198 5.95 12.855 9.363 21.007 9.363s15.809-3.414 21.008-9.363a7.497 7.497 0 0 0-.711-10.582zM256 126.027a76.16 76.16 0 0 0-49.402 18.22 7.5 7.5 0 0 0-.84 10.573c2.691 3.149 7.426 3.524 10.574.836A61.174 61.174 0 0 1 256 141.027c33.727 0 61.168 27.442 61.168 61.168 0 33.727-27.441 61.164-61.168 61.164s-61.168-27.437-61.168-61.164a60.696 60.696 0 0 1 5.496-25.332 7.496 7.496 0 0 0-3.715-9.933 7.497 7.497 0 0 0-9.933 3.71c-4.543 9.97-6.848 20.583-6.848 31.555 0 41.996 34.168 76.164 76.168 76.164s76.168-34.168 76.168-76.164c0-42-34.168-76.168-76.168-76.168zm0 0"/><path d="M511.742 244.43c-1.472-33.09-9.183-65.055-22.933-95.032-12.707-27.722-30.133-52.761-51.79-74.418C389.325 27.285 323.438 0 256 0c-53.973 0-107.246 17.273-150.824 49.133-.016.012-.035.02-.051.031-35.39 25.856-63.723 60.516-81.934 100.234-.007.012-.011.028-.015.04-13.735 29.949-21.446 61.906-22.918 95-.172 3.75-.258 7.64-.258 11.566 0 48.203 40.367 88.601 88.61 88.601h53.617c-8.415 14.262-20.254 39.926-20.254 71.41 0 33.423 29.93 52.376 60.84 52.376.113 0 .195-.004.234-.004h145.812c31.196 0 61.168-18.703 61.168-52.367 0-31.489-11.843-57.153-20.254-71.415h53.618c48.363-.003 88.609-40.242 88.609-88.601 0-3.926-.086-7.816-.258-11.574zm-40.18-96.309c-.113.027-.222.063-.335.094a58.357 58.357 0 0 1-14.317 1.777c-32.05 0-58.129-26.074-58.129-58.129 0-8.8 2.02-17.64 5.903-25.543a243.446 243.446 0 0 1 21.73 19.266c18.41 18.414 33.574 39.418 45.149 62.535zM326.618 25.511c-7.46 29.282-34.023 51.868-64.12 54.563-4.794.43-9.602.364-14.388-.156-29.445-3.207-55.406-25.68-62.726-54.406C208.183 18.535 231.906 15 256 15s47.816 3.535 70.617 10.512zm-219.3 40.81c.035.07.074.144.105.214 5.535 11.406 7.16 24.613 4.613 37.028-5.43 26.464-28.898 46.43-56.945 46.43-4.942 0-9.871-.634-14.653-1.872 15.93-31.766 38.848-59.793 66.88-81.8zM15 256.003c0-1.43.012-2.852.035-4.266 14.828-.383 29.688 4.621 41.305 13.836 18.644 14.785 27.687 39.656 22.836 62.969l-.094.441c-16.05-2.074-30.969-9.382-42.52-20.945C22.657 294.145 15 275.664 15 256.004zm293.426 73.601a7.5 7.5 0 1 0 0 15h43.504c5.996 8.657 23.097 36.43 23.097 71.41 0 25.141-23.414 37.446-46.074 37.376h-146c-22.844 0-45.98-12.149-45.98-37.371 0-35 17.117-62.782 23.093-71.415h119.16a7.5 7.5 0 1 0 0-15H94.259c2.449-13.59 1.36-28.136-3.524-41.085-.007-.016-.011-.032-.015-.047-11.149-30.91-41.903-52.012-74.684-51.75-.09.004-.183-.004-.277-.004 2.043-25.895 8.183-50.989 18.3-74.797 6.805 2.047 13.926 3.07 21.032 3.07 34.023 0 62.695-23.355 70.824-54.875 4.54-17.605 2.262-36.785-6.352-52.804a239.157 239.157 0 0 1 51.586-26.954c.145.543.313 1.079.47 1.618 9.12 31.46 36.027 55.906 68.359 61.906 10.398 1.926 21.203 1.965 31.613.086 29.902-5.395 56.004-27.246 66.707-55.672a86.935 86.935 0 0 0 2.558-7.938 239.129 239.129 0 0 1 51.583 26.954c-5.665 10.558-8.657 22.574-8.657 34.55 0 40.325 32.805 73.13 73.13 73.13 7.105 0 14.23-1.028 21.034-3.071 10.118 23.808 16.254 48.902 18.297 74.797-.094 0-.183.008-.273.004-20.133-.137-40.125 7.66-54.73 21.543-19.11 18.168-28.192 45.336-23.497 71.34zm124.492-.617c-1.203-.152-1.43-12.336-1.43-13.433 0-35.2 28.64-63.84 63.84-63.84.543 0 1.09.012 1.637.023.023 1.414.035 2.836.035 4.266 0 37.348-27.695 68.32-64.082 72.984zm0 0"/></svg>